<?xml version="1.0" encoding="utf-8"?>
<!-- Generator: Adobe Illustrator 28.0.0, SVG Export Plug-In . SVG Version: 6.00 Build 0)  -->
<svg version="1.1" id="Layer_1" xmlns="http://www.w3.org/2000/svg" xmlns:xlink="http://www.w3.org/1999/xlink" x="0px" y="0px"
	 viewBox="0 0 109.7 33.4" style="enable-background:new 0 0 109.7 33.4;" xml:space="preserve">
<path d="M22.6,17.8c0-4.2,3.5-6.3,3.6-6.3c-1.9-2.9-5.1-3.3-6.1-3.3c-2.6-0.3-5.1,1.6-6.3,1.6c-1.4,0-3.3-1.5-5.5-1.5
	c-2.8,0-5.4,1.7-6.8,4.1c-3,5.1-0.8,12.7,2,16.8c1.4,2,3,4.3,5.2,4.2c2.1-0.1,2.9-1.4,5.5-1.4s3.3,1.4,5.5,1.3c2.3,0,3.7-2,5.1-4
	c1.7-2.3,2.3-4.6,2.3-4.8C27,24.5,22.7,22.8,22.6,17.8L22.6,17.8z M18.5,5.3c1.1-1.5,1.9-3.4,1.7-5.3c-1.7,0.1-3.7,1.1-4.9,2.6
	c-1,1.2-2,3.2-1.7,5.1C15.3,7.8,17.3,6.7,18.5,5.3L18.5,5.3z M42.5,27.4h-2.2l-1.2-3.9h-4.2l-1.2,3.9h-2.1l4.2-13h2.6L42.5,27.4z
	 M38.6,22l-1.1-3.4c-0.1-0.3-0.3-1.2-0.7-2.5h-0.1l-0.6,2.5L35,22H38.6z M53.3,22.6c0,1.6-0.4,2.9-1.3,3.8c-0.8,0.8-1.7,1.2-2.9,1.2
	c-1.2,0-2.1-0.4-2.7-1.3v5h-2.1V21.1L44.2,18h1.9l0.1,1.5h0.1c0.7-1.1,1.7-1.7,3.2-1.7c1.1,0,2.1,0.4,2.8,1.3
	C52.9,20,53.3,21.1,53.3,22.6L53.3,22.6z M51.1,22.7c0-0.9-0.2-1.7-0.6-2.3c-0.5-0.6-1-0.9-1.8-0.9c-0.5,0-1,0.2-1.4,0.5
	c-0.4,0.3-0.7,0.8-0.8,1.4c-0.1,0.2-0.1,0.4-0.1,0.6v1.6c0,0.6,0.2,1.2,0.6,1.7c0.4,0.5,1,0.7,1.7,0.7c0.8,0,1.4-0.3,1.9-0.9
	C50.9,24.5,51.1,23.6,51.1,22.7L51.1,22.7z M64.1,22.6c0,1.6-0.4,2.9-1.3,3.8c-0.8,0.8-1.7,1.2-2.9,1.2c-1.2,0-2.1-0.4-2.7-1.3h-0.1
	v5h-2.1V21.1L55,18h1.9l0.1,1.5h0.1c0.7-1.1,1.7-1.7,3.2-1.7c1.1,0,2.1,0.4,2.8,1.3C63.8,20,64.1,21.1,64.1,22.6L64.1,22.6z
	 M62,22.7c0-0.9-0.2-1.7-0.6-2.3c-0.5-0.6-1-0.9-1.8-0.9c-0.5,0-1,0.2-1.4,0.5c-0.4,0.3-0.7,0.8-0.8,1.4c-0.1,0.3-0.1,0.5-0.1,0.6
	v1.6c0,0.6,0.2,1.2,0.6,1.7c0.4,0.5,1,0.7,1.7,0.7c0.8,0,1.4-0.3,1.9-0.9C61.8,24.5,62,23.6,62,22.7L62,22.7z M76.2,23.7
	c0,1.1-0.4,2-1.2,2.7c-0.8,0.8-2,1.2-3.6,1.2c-1.4,0-2.6-0.3-3.4-0.8l0.5-1.7c0.9,0.6,1.9,0.8,3,0.8c0.8,0,1.4-0.2,1.9-0.6
	c0.4-0.3,0.7-0.8,0.7-1.5c0-0.5-0.2-1-0.6-1.3c-0.3-0.3-1-0.7-1.8-1c-2.3-0.8-3.5-2.1-3.5-3.7c0-1,0.4-2,1.2-2.6
	c0.8-0.7,1.9-1,3.2-1c1.2,0,2.2,0.2,3,0.6l-0.6,1.7c-0.8-0.4-1.6-0.6-2.5-0.6c-0.8,0-1.3,0.2-1.7,0.6c-0.3,0.3-0.6,0.7-0.6,1.2
	c0,0.5,0.2,1,0.6,1.3c0.3,0.3,1,0.6,1.9,1c1.1,0.5,1.9,1,2.5,1.6C76,22,76.2,22.8,76.2,23.7L76.2,23.7z M83.2,19.6h-2.3v4.6
	c0,1.2,0.4,1.7,1.2,1.7c0.3,0,0.7,0,0.9-0.1l0.1,1.6c-0.4,0.1-1,0.2-1.7,0.2c-0.8,0-1.4-0.3-1.9-0.8s-0.7-1.4-0.7-2.6v-4.8h-1.4
	v-1.6h1.4v-1.7l2.1-0.6V18h2.3L83.2,19.6z M93.5,22.6c0,1.5-0.4,2.6-1.2,3.6c-0.9,1-2,1.5-3.5,1.5c-1.4,0-2.5-0.5-3.3-1.4
	s-1.2-2.1-1.2-3.5c0-1.5,0.4-2.6,1.2-3.6c0.8-0.9,2-1.4,3.5-1.4c1.4,0,2.5,0.5,3.3,1.4C93.2,20,93.5,21.2,93.5,22.6L93.5,22.6z
	 M91.4,22.7c0-0.8-0.2-1.5-0.6-2.2c-0.4-0.8-1-1.1-1.9-1.1s-1.4,0.3-1.9,1.1c-0.3,0.6-0.6,1.4-0.6,2.3c0,0.8,0.2,1.5,0.6,2.2
	c0.5,0.8,1.1,1.1,1.9,1.1s1.4-0.4,1.9-1.2C91.2,24.3,91.4,23.6,91.4,22.7L91.4,22.7z M100.4,19.8c-0.2-0.1-0.4-0.1-0.7-0.1
	c-0.8,0-1.3,0.3-1.7,0.8c-0.3,0.5-0.6,1.1-0.6,1.9v5h-2.1V21l-0.1-3H97l0.1,1.8h0.1c0.2-0.6,0.6-1.1,1-1.5c0.5-0.3,1-0.5,1.5-0.5
	c0.2,0,0.3,0,0.6,0.1L100.4,19.8z M109.7,22.2c0,0.3,0,0.7-0.1,1h-6.3c0,0.9,0.3,1.7,0.9,2.1c0.6,0.5,1.3,0.7,2.1,0.7
	c0.9,0,1.8-0.1,2.6-0.4l0.3,1.5c-0.9,0.4-1.9,0.6-3.2,0.6c-1.4,0-2.6-0.4-3.5-1.3c-0.8-0.8-1.2-2-1.2-3.5s0.4-2.6,1.2-3.5
	c0.8-1,1.9-1.5,3.3-1.5s2.4,0.5,3.1,1.5C109.4,20,109.7,21.1,109.7,22.2L109.7,22.2z M107.7,21.7c0-0.6-0.1-1.2-0.4-1.6
	c-0.3-0.6-0.9-0.9-1.7-0.9c-0.7,0-1.2,0.3-1.7,0.8c-0.3,0.5-0.6,1-0.6,1.7H107.7z"/>
</svg>
