<svg version="1.1" id="Layer_1" xmlns="http://www.w3.org/2000/svg" xmlns:xlink="http://www.w3.org/1999/xlink" x="0px" y="0px" style="enable-background:new 0 0 201.1 77;" xml:space="preserve" viewBox="0 -0.02 201.1 60.62"><style type="text/css"> .st0{fill:black;} .st1{fill:black;} .st2{fill:black;} </style><g><g><polygon class="st0" points="52.3,55.6 29.7,13.8 39.1,13.8 61.4,55.6 "></polygon></g><g><path class="st1" d="M16.1,60.6l15.7-4.9c0,0,1.8-8.1,8.4-18.1l-2.8-5.2C30.1,39.9,22.9,49.1,16.1,60.6z"></path><path class="st1" d="M78.4,0.8l2.8,2.1c0,0-15.7,4.2-34.5,20.5l2,3.7C56.4,19,67.2,11.5,82.8,7c0,2.1,0,3.8,0,3.8 s4.9-5.6,17.7-10.2C90.5-0.9,78.4,0.8,78.4,0.8z"></path></g><path d="M69.7,48.1L69.7,48.1c-8.1,0-13.1-5.6-13.1-13.1c0-10.8,7.5-20.1,18.4-20.1c8.6,0,13,6.1,13,13.1 C88,38.8,80.5,48.1,69.7,48.1z M74.1,20.7c-6.1,0-9.6,8.1-9.6,14c0,4.4,2.3,7.4,6.1,7.4h0.1c5.7,0,9.5-7.8,9.5-14.2 C80.1,24.8,78.6,20.7,74.1,20.7z M30.5,34.2H7.8c0,0.2,0,0.4,0,0.6c0,4.4,2.3,7.4,6.1,7.4H14c2.8,0,5.2-2,6.9-4.7h8.4 c-2.9,6.3-8.8,10.6-16.2,10.6H13C5,48.1,0,42.5,0,35c0-10.8,7.5-20.1,18.4-20.1c8.6,0,13,6.1,13,13.1 C31.3,30.1,31.1,32.2,30.5,34.2z M17.4,20.7c-3.9,0-6.8,3.4-8.3,7.4c4.2,0,14.2,0,14.4,0C23.5,24.9,22,20.7,17.4,20.7z M124.4,10.7 c-1.4-0.8-4.5-1.6-8.3-1.6c-4.1,0-8.3,1.4-11.2,4.1c-3.9,3.4-6.4,9-6.4,15.3c0,7.5,3.8,13,12.5,13c2.7,0,5.6-0.4,7.8-1.2l-1.3,6.8 c-2.2,0.6-5.1,0.9-8.4,0.9c-11.5,0-18.8-7-18.8-18.5c0-9.2,3.9-17.1,10.4-21.8c4.6-3.5,10.1-5.2,16.5-5.2c3.9,0,7,0.8,8.6,1.5 L124.4,10.7z M128,48.1h-7.6l8.7-45.5h7.7L128,48.1z M139.5,48.1h-7.7l6.3-33.2h7.6L139.5,48.1z M143.6,10.1 c-2.1,0-3.8-1.7-3.8-3.7c0-2.1,1.7-3.8,3.8-3.8s3.7,1.7,3.7,3.8C147.4,8.4,145.7,10.1,143.6,10.1z M169.1,22c-1.2-0.5-2.7-1-4.8-1 c-7.3,0-12,6.8-12,13.5c0,4.8,2.7,7.5,7,7.5c2.7,0,4.7-0.6,6.3-1.3l-1.2,6.4c-1.8,0.6-4.3,1-7.1,1c-8,0-12.9-5.1-12.9-12.8 c0-11.1,8.4-20.5,20.2-20.5c2.3,0,4.4,0.4,5.8,0.9L169.1,22z M173.9,48.1h-7.6L175,2.6h7.6L173.9,48.1z M176,36.8l1.8-9.9 l13.8-12.1h9.5L176,36.8z M186.2,48.1l-5.7-12.3l5.6-4.9l8.6,17.2H186.2z"></path></g></svg>
