<?xml version="1.0" encoding="utf-8"?>
<!-- Generator: Adobe Illustrator 28.0.0, SVG Export Plug-In . SVG Version: 6.00 Build 0)  -->
<svg version="1.1" id="Layer_1" xmlns="http://www.w3.org/2000/svg" xmlns:xlink="http://www.w3.org/1999/xlink" x="0px" y="0px"
	 viewBox="0 0 738.8 372.5" style="enable-background:new 0 0 738.8 372.5;" xml:space="preserve">
<style type="text/css">
	.st0{fill:black;}
	.st1{fill:black;}
	.st2{fill:black;}
</style>
<g>
	<g>
		<g>
			<path class="st0" d="M234,291.5V185.8c0-23.2-18.8-42.1-42.1-42.1c-23.2,0-42.1,18.8-42.1,42.1l0,0v104.7H117V185.8
				c0-23.2-18.8-42.1-42.1-42.1c-5.5,0-11,1.1-16.1,3.2c-15.7,6.5-26,21.8-26,38.9v104.7H0V116h33.9v19.5
				c24.1-27.9,66.2-30.9,94.1-6.8c5.9,5.1,10.9,11.3,14.7,18.1c16.6-32.9,56.7-46.1,89.6-29.6c23.4,11.8,37.7,36.2,36.6,62.4v110.8
				L234,291.5z M502.8,291.5V143.7l33.9,20.6v126.2L502.8,291.5z M592.1,202.2c0,3.8,0.4,7.5,1.1,11.2c0.7,3.7,1.8,7.3,3.2,10.8
				c5.8,14.1,17,25.3,31.1,31.1c3.5,1.4,7.1,2.5,10.8,3.3c7.4,1.5,15,1.5,22.4,0c3.7-0.7,7.3-1.8,10.8-3.3c3.5-1.4,6.8-3.2,9.9-5.3
				c6.3-4.2,11.7-9.6,15.9-15.9c12.9-19.3,12.9-44.5,0-63.9c-4.2-6.3-9.6-11.7-15.9-15.9c-9.4-6.3-20.6-9.7-31.9-9.7
				c-7.6,0-15.2,1.5-22.2,4.5c-7,2.9-13.4,7.3-18.8,12.7c-2.7,2.7-5.1,5.7-7.1,8.9c-6.3,9.6-9.5,21-9.3,32.5V202.2z M559.2,202.2
				c0-23.3,9.1-45.7,25.4-62.4c16.3-16.7,38.5-26.3,61.8-26.9c21.6-0.1,42.5,8,58.5,22.6V66.7l33.9-19.5v243.2h-33.9v-20.5
				c-16,14.6-36.9,22.7-58.5,22.6c-5.8-0.1-11.7-0.7-17.4-1.9c-11.5-2.4-22.3-7.1-32-13.7s-17.9-15.1-24.3-24.9
				c-9.6-14.8-14.7-32.1-14.5-49.8L559.2,202.2z M323.2,202.2c0,3.8,0.4,7.5,1.1,11.2s1.8,7.3,3.3,10.8c5.8,14.1,17,25.3,31.1,31.1
				c3.5,1.4,7.1,2.5,10.8,3.3c7.4,1.5,15,1.5,22.4,0c3.7-0.7,7.3-1.8,10.8-3.3c10.5-4.4,19.5-11.7,25.8-21.2
				c12.9-19.3,12.9-44.5,0-63.9c-4.2-6.3-9.6-11.7-15.9-15.9c-6.3-4.2-13.3-7.1-20.7-8.6c-3.7-0.7-7.4-1.1-11.2-1.1
				c-7.6,0-15.2,1.5-22.2,4.5c-7,2.9-13.4,7.3-18.8,12.7c-2.7,2.7-5.1,5.7-7.1,8.9c-2.1,3.2-3.8,6.6-5.2,10.1
				c-2.8,7.1-4.2,14.7-4.1,22.4L323.2,202.2z M302.7,329.4l28.7-16.4c16.2,26.7,50.9,35.2,77.5,19c17-10.3,27.3-28.8,27.2-48.7
				v-13.4c-16,14.6-36.9,22.7-58.5,22.6c-5.8-0.1-11.7-0.7-17.4-1.9c-11.5-2.4-22.3-7.1-32-13.7c-14.6-10-25.8-24.1-32.4-40.5
				c-2.2-5.4-3.8-11.1-4.9-16.8c-8.1-41.5,13.9-83.1,52.9-99.6c5.3-2.3,10.9-4,16.6-5.2s11.5-1.8,17.3-1.9
				c21.6-0.1,42.5,8,58.5,22.6v-30.8l33.8,20.6v158c-0.6,49.9-41.5,89.8-91.4,89.2C347.6,372.1,318.9,355.9,302.7,329.4z"/>
			<polygon class="st1" points="476.1,41.1 436.1,58.5 537.7,116 570.5,96.5 			"/>
			<polygon class="st2" points="502.8,96.5 537.7,117 738.8,0 			"/>
		</g>
	</g>
</g>
</svg>
