<?xml version="1.0" encoding="utf-8"?>
<!-- Generator: Adobe Illustrator 28.0.0, SVG Export Plug-In . SVG Version: 6.00 Build 0)  -->
<svg version="1.1" id="Layer_1" xmlns="http://www.w3.org/2000/svg" xmlns:xlink="http://www.w3.org/1999/xlink" x="0px" y="0px"
	 viewBox="0 0 114.4 33.4" style="enable-background:new 0 0 114.4 33.4;" xml:space="preserve">
<style type="text/css">
	.st0{fill:black;}
	.st1{fill:black;}
</style>
<g>
	<path d="M16.9,5.9c0.9,0,1.8,0.2,2.6,0.6c1.3,0.6,2.4,1.7,3,3.1c0.3,0.8,0.3,1.7,0.3,2.5l-0.1,1.4l-0.1,1.1c0,0.1,0,0.2,0,0.3
		c0,0.2,0.3,0.3,0.5,0.4c0.4,0.1,0.9,0,1.3-0.1c0.2-0.1,0.5-0.2,0.7-0.2c0.2,0,0.4,0.1,0.6,0.2c0.1,0.1,0.1,0.3,0,0.4
		c-0.2,0.3-0.6,0.4-1,0.5c-0.4,0.1-0.7,0.2-1.1,0.4c-0.3,0.2-0.6,0.4-0.8,0.8c-0.2,0.4,0,0.9,0.2,1.2c0.3,0.7,0.7,1.3,1.2,1.9
		c0.9,1.1,2,1.9,3.3,2.3c0.2,0.1,0.4,0.1,0.6,0.1c0.1,0,0.1,0,0.1,0.1c0,0,0,0,0,0c0,0.1-0.1,0.1-0.2,0.2c-0.4,0.3-0.9,0.4-1.4,0.5
		L26,23.8c-0.2,0-0.5,0-0.7,0.1c-0.3,0.1-0.4,0.7-0.5,1l-0.1,0.4c0,0.1,0,0.2-0.1,0.2c-0.2,0-0.4,0-0.6-0.1
		c-0.5-0.1-0.9-0.1-1.4-0.1c-0.5,0-1,0.1-1.5,0.3c-0.4,0.2-0.9,0.5-1.2,0.7c-0.7,0.5-1.4,1-2.2,1.2c-0.4,0.1-0.9,0.1-1.3,0.1
		c-0.5,0-0.9-0.1-1.3-0.3c-0.8-0.3-1.5-0.9-2.2-1.4c-0.4-0.3-0.9-0.5-1.3-0.5c-0.5-0.1-1-0.1-1.6,0l-0.6,0.1c-0.2,0-0.4,0.1-0.6,0.1
		c-0.1,0-0.1,0-0.1-0.1L8.6,25c0-0.2-0.1-0.4-0.2-0.6C8.4,24.2,8.3,24,8.1,24c-0.2-0.1-0.5-0.1-0.7-0.1c-0.4-0.1-0.8-0.2-1.2-0.3
		c-0.3-0.1-0.7-0.2-1-0.5c0,0,0-0.1-0.1-0.1c0,0,0,0,0,0c0-0.1,0-0.1,0.1-0.1c0.4-0.1,0.8-0.2,1.1-0.3c0.7-0.3,1.3-0.7,1.8-1.1
		c0.8-0.7,1.4-1.5,1.9-2.5c0.2-0.3,0.3-0.7,0.4-1c0.1-0.9-0.6-1.4-1.3-1.7c-0.4-0.1-0.8-0.2-1.2-0.4c-0.2-0.1-0.5-0.3-0.5-0.5
		C7.6,15.1,7.9,15,8,15c0.1,0,0.2-0.1,0.3-0.1c0.1,0,0.2,0.1,0.4,0.1c0.4,0.2,0.9,0.3,1.4,0.2c0.2,0,0.5-0.1,0.6-0.3
		c0,0,0.1-0.1,0.1-0.1c0-0.1,0-0.2,0-0.3l0-0.7l0-2.8c0-0.4,0.1-0.8,0.2-1.2s0.3-0.8,0.5-1.1C11.8,8,12.3,7.5,12.9,7
		c0.9-0.6,1.9-1,3-1.1C16.2,5.9,16.6,5.9,16.9,5.9 M0,28.1c0,3,2.4,5.3,5.3,5.3h22.7c3,0,5.3-2.4,5.3-5.3V5.3c0-3-2.4-5.3-5.3-5.3
		H5.3C2.4,0,0,2.4,0,5.3L0,28.1"/>
	<path class="st0" d="M0.6,5.3c0-2.6,2.1-4.7,4.7-4.7h22.7c2.6,0,4.7,2.1,4.7,4.7l0,0v22.7c0,2.6-2.1,4.7-4.7,4.7l0,0H5.3
		c-2.6,0-4.7-2.1-4.7-4.7l0,0L0.6,5.3 M16.9,5.4c-0.8,0-1.6,0.1-2.3,0.3c-1.2,0.4-2.3,1.1-3.2,2.1c-0.5,0.6-0.9,1.4-1.1,2.1
		c-0.2,0.9-0.2,1.8-0.2,2.7l0.1,1.4l0,0.3c0,0.1,0.1,0.4,0,0.4c-0.1,0.1-0.4,0.1-0.5,0.1c-0.2,0-0.4-0.1-0.6-0.1
		c-0.2-0.1-0.4-0.2-0.7-0.2c-0.4,0-0.8,0.1-1.1,0.4c-0.4,0.5-0.2,1,0.3,1.3c0.4,0.3,0.8,0.4,1.2,0.5c0.4,0.1,0.7,0.2,1,0.5
		c0.4,0.4,0.2,0.9,0,1.3c-0.2,0.3-0.3,0.6-0.6,1c-0.7,1-1.6,1.9-2.8,2.5c-0.3,0.2-0.7,0.3-1.1,0.4c-0.2,0-0.4,0-0.6,0.2
		c-0.2,0.1-0.2,0.3-0.2,0.5c0.1,0.5,0.7,0.8,1.1,0.9c0.4,0.1,0.8,0.2,1.2,0.3l0.7,0.1c0.1,0,0.2,0,0.2,0.1C8,24.6,8,24.7,8,24.8
		l0.2,0.7c0,0.1,0.1,0.3,0.2,0.4c0.3,0.3,0.8,0.1,1.2,0c1-0.2,2-0.2,2.9,0.3c0.7,0.4,1.4,1,2.2,1.4c0.8,0.4,1.8,0.5,2.7,0.4
		c0.9-0.1,1.6-0.4,2.3-0.9c0.8-0.5,1.5-1.2,2.4-1.3c0.5-0.1,1-0.1,1.6,0c0.4,0,0.7,0.2,1.1,0.1c0.5,0,0.5-0.6,0.6-1
		c0-0.2,0-0.4,0.1-0.5c0.1-0.1,0.2-0.1,0.3-0.1l0.4-0.1c0.7-0.1,1.5-0.3,2.1-0.7c0.2-0.1,0.3-0.3,0.4-0.5c0.1-0.2,0.1-0.4,0-0.6
		c-0.1-0.2-0.3-0.2-0.5-0.2c-0.7-0.2-1.4-0.4-2-0.9c-0.9-0.6-1.7-1.5-2.3-2.5l-0.3-0.6c-0.2-0.3-0.3-0.7-0.1-1
		c0.2-0.3,0.6-0.5,0.9-0.6c0.4-0.1,0.8-0.3,1.2-0.5c0.3-0.2,0.6-0.4,0.7-0.7c0.2-0.9-1-1.3-1.7-1c-0.4,0.2-0.9,0.4-1.3,0.2
		c0,0-0.1,0-0.1,0c0,0,0-0.1,0-0.1l0.1-1c0.1-0.9,0.1-1.9,0-2.8c0-0.4-0.1-0.8-0.2-1.2c-0.1-0.4-0.3-0.8-0.5-1.1
		c-0.4-0.6-0.9-1.2-1.5-1.7c-0.9-0.7-2-1.1-3.1-1.3C17.6,5.4,17.3,5.4,16.9,5.4 M8.9,1.5C8.6,1.5,8.4,1.7,8.4,2s0.2,0.5,0.5,0.5
		S9.5,2.3,9.5,2S9.2,1.5,8.9,1.5 M10.6,1.5c-0.3,0-0.5,0.2-0.5,0.5s0.2,0.5,0.5,0.5s0.5-0.2,0.5-0.5S10.9,1.5,10.6,1.5 M15.8,1.5
		c-0.3,0-0.5,0.2-0.5,0.5s0.2,0.5,0.5,0.5c0.3,0,0.5-0.2,0.5-0.5S16.1,1.5,15.8,1.5 M17.6,1.5C17.3,1.5,17,1.7,17,2s0.2,0.5,0.5,0.5
		c0.3,0,0.5-0.2,0.5-0.5S17.9,1.5,17.6,1.5 M24.5,1.5c-0.3,0-0.5,0.2-0.5,0.5s0.2,0.5,0.5,0.5C24.8,2.6,25,2.3,25,2
		S24.8,1.5,24.5,1.5 M3.8,3.2c-0.3,0-0.5,0.2-0.5,0.5s0.2,0.5,0.5,0.5S4.3,4,4.3,3.8S4,3.2,3.8,3.2 M8.9,3.2c-0.3,0-0.5,0.2-0.5,0.5
		s0.2,0.5,0.5,0.5S9.5,4,9.5,3.8S9.2,3.2,8.9,3.2 M10.7,3.2c-0.3,0-0.5,0.2-0.5,0.5s0.2,0.5,0.5,0.5s0.5-0.2,0.5-0.5
		S11,3.2,10.7,3.2 M15.8,3.2c-0.3,0-0.5,0.2-0.5,0.5s0.2,0.5,0.5,0.5c0.3,0,0.5-0.2,0.5-0.5S16.1,3.2,15.8,3.2 M17.6,3.2
		c-0.3,0-0.5,0.2-0.5,0.5s0.2,0.5,0.5,0.5c0.3,0,0.5-0.2,0.5-0.5S17.9,3.2,17.6,3.2 M19.3,3.2c-0.3,0-0.5,0.2-0.5,0.5
		s0.2,0.5,0.5,0.5c0.3,0,0.5-0.2,0.5-0.5S19.6,3.2,19.3,3.2 M24.5,3.2c-0.3,0-0.5,0.2-0.5,0.5s0.2,0.5,0.5,0.5C24.8,4.3,25,4,25,3.8
		S24.8,3.2,24.5,3.2 M27.9,3.2c-0.3,0-0.5,0.2-0.5,0.5s0.2,0.5,0.5,0.5c0.3,0,0.5-0.2,0.5-0.5S28.2,3.2,27.9,3.2 M29.7,3.2
		c-0.3,0-0.5,0.2-0.5,0.5s0.2,0.5,0.5,0.5s0.5-0.2,0.5-0.5S30,3.2,29.7,3.2 M3.8,4.9c-0.3,0-0.5,0.2-0.5,0.5S3.5,6,3.8,6
		s0.5-0.2,0.5-0.5S4,4.9,3.8,4.9 M5.5,4.9c-0.3,0-0.5,0.2-0.5,0.5S5.2,6,5.5,6S6,5.8,6,5.5S5.8,4.9,5.5,4.9 M22.8,4.9
		c-0.3,0-0.5,0.2-0.5,0.5S22.5,6,22.8,6c0.3,0,0.5-0.2,0.5-0.5S23,4.9,22.8,4.9 M24.5,4.9c-0.3,0-0.5,0.2-0.5,0.5S24.2,6,24.5,6
		C24.8,6,25,5.8,25,5.5S24.8,4.9,24.5,4.9 M2,6.7c-0.3,0-0.5,0.2-0.5,0.5S1.7,7.7,2,7.7s0.5-0.2,0.5-0.5S2.3,6.7,2,6.7 M8.9,6.7
		c-0.3,0-0.5,0.2-0.5,0.5s0.2,0.5,0.5,0.5s0.5-0.2,0.5-0.5S9.2,6.7,8.9,6.7 M24.5,6.7c-0.3,0-0.5,0.2-0.5,0.5s0.2,0.5,0.5,0.5
		c0.3,0,0.5-0.2,0.5-0.5S24.8,6.7,24.5,6.7 M27.9,6.7c-0.3,0-0.5,0.2-0.5,0.5s0.2,0.5,0.5,0.5c0.3,0,0.5-0.2,0.5-0.5
		S28.2,6.7,27.9,6.7 M29.7,6.7c-0.3,0-0.5,0.2-0.5,0.5s0.2,0.5,0.5,0.5s0.5-0.2,0.5-0.5S30,6.7,29.7,6.7 M31.4,6.7
		c-0.3,0-0.5,0.2-0.5,0.5s0.2,0.5,0.5,0.5s0.5-0.2,0.5-0.5S31.7,6.7,31.4,6.7 M7.2,8.4c-0.3,0-0.5,0.2-0.5,0.5s0.2,0.5,0.5,0.5
		s0.5-0.2,0.5-0.5S7.5,8.4,7.2,8.4 M27.9,8.4c-0.3,0-0.5,0.2-0.5,0.5s0.2,0.5,0.5,0.5c0.3,0,0.5-0.2,0.5-0.5S28.2,8.4,27.9,8.4
		 M2,10.1c-0.3,0-0.5,0.2-0.5,0.5s0.2,0.5,0.5,0.5s0.5-0.2,0.5-0.5S2.3,10.1,2,10.1 M3.8,10.1c-0.3,0-0.5,0.2-0.5,0.5
		s0.2,0.5,0.5,0.5s0.5-0.2,0.5-0.5S4.1,10.1,3.8,10.1 M8.9,10.1c-0.3,0-0.5,0.2-0.5,0.5s0.2,0.5,0.5,0.5s0.5-0.2,0.5-0.5
		S9.2,10.1,8.9,10.1 M24.5,10.1c-0.3,0-0.5,0.2-0.5,0.5s0.2,0.5,0.5,0.5c0.3,0,0.5-0.2,0.5-0.5S24.8,10.1,24.5,10.1 M27.9,10.1
		c-0.3,0-0.5,0.2-0.5,0.5s0.2,0.5,0.5,0.5c0.3,0,0.5-0.2,0.5-0.5S28.2,10.1,27.9,10.1 M29.7,10.1c-0.3,0-0.5,0.2-0.5,0.5
		s0.2,0.5,0.5,0.5s0.5-0.2,0.5-0.5S30,10.1,29.7,10.1 M5.5,11.9c-0.3,0-0.5,0.2-0.5,0.5s0.2,0.5,0.5,0.5S6,12.7,6,12.4
		S5.8,11.9,5.5,11.9 M8.9,11.9c-0.3,0-0.5,0.2-0.5,0.5s0.2,0.5,0.5,0.5s0.5-0.2,0.5-0.5S9.2,11.9,8.9,11.9 M26.2,11.9
		c-0.3,0-0.5,0.2-0.5,0.5s0.2,0.5,0.5,0.5c0.3,0,0.5-0.2,0.5-0.5S26.5,11.9,26.2,11.9 M27.9,11.9c-0.3,0-0.5,0.2-0.5,0.5
		s0.2,0.5,0.5,0.5c0.3,0,0.5-0.2,0.5-0.5S28.2,11.9,27.9,11.9 M31.4,11.9c-0.3,0-0.5,0.2-0.5,0.5s0.2,0.5,0.5,0.5s0.5-0.2,0.5-0.5
		S31.7,11.9,31.4,11.9 M2,13.6c-0.3,0-0.5,0.2-0.5,0.5s0.2,0.5,0.5,0.5s0.5-0.2,0.5-0.5S2.3,13.6,2,13.6 M29.7,13.6
		c-0.3,0-0.5,0.2-0.5,0.5s0.2,0.5,0.5,0.5s0.5-0.2,0.5-0.5S30,13.6,29.7,13.6 M31.4,13.6c-0.3,0-0.5,0.2-0.5,0.5s0.2,0.5,0.5,0.5
		s0.5-0.2,0.5-0.5S31.7,13.6,31.4,13.6 M2,15.3c-0.3,0-0.5,0.2-0.5,0.5s0.2,0.5,0.5,0.5s0.5-0.2,0.5-0.5S2.3,15.3,2,15.3 M3.8,15.3
		c-0.3,0-0.5,0.2-0.5,0.5s0.2,0.5,0.5,0.5s0.5-0.2,0.5-0.5S4,15.3,3.8,15.3 M5.5,15.3c-0.3,0-0.5,0.2-0.5,0.5s0.2,0.5,0.5,0.5
		S6,16.1,6,15.8S5.8,15.3,5.5,15.3 M29.7,15.3c-0.3,0-0.5,0.2-0.5,0.5s0.2,0.5,0.5,0.5s0.5-0.2,0.5-0.5S30,15.3,29.7,15.3 M2,17
		c-0.3,0-0.5,0.2-0.5,0.5s0.2,0.5,0.5,0.5s0.5-0.2,0.5-0.5S2.3,17,2,17 M3.8,17c-0.3,0-0.5,0.2-0.5,0.5s0.2,0.5,0.5,0.5
		s0.5-0.2,0.5-0.5S4,17,3.8,17 M29.7,17c-0.3,0-0.5,0.2-0.5,0.5s0.2,0.5,0.5,0.5s0.5-0.2,0.5-0.5S30,17,29.7,17 M31.4,17
		c-0.3,0-0.5,0.2-0.5,0.5s0.2,0.5,0.5,0.5s0.5-0.2,0.5-0.5S31.7,17,31.4,17 M26.2,18.8c-0.3,0-0.5,0.2-0.5,0.5s0.2,0.5,0.5,0.5
		c0.3,0,0.5-0.2,0.5-0.5S26.5,18.8,26.2,18.8 M31.4,18.8c-0.3,0-0.5,0.2-0.5,0.5s0.2,0.5,0.5,0.5s0.5-0.2,0.5-0.5
		S31.7,18.8,31.4,18.8 M3.8,20.5c-0.3,0-0.5,0.2-0.5,0.5s0.2,0.5,0.5,0.5s0.5-0.2,0.5-0.5S4,20.5,3.8,20.5 M5.5,20.5
		c-0.3,0-0.5,0.2-0.5,0.5s0.2,0.5,0.5,0.5S6,21.3,6,21S5.8,20.5,5.5,20.5 M27.9,20.5c-0.3,0-0.5,0.2-0.5,0.5s0.2,0.5,0.5,0.5
		c0.3,0,0.5-0.2,0.5-0.5S28.2,20.5,27.9,20.5 M31.4,20.5c-0.3,0-0.5,0.2-0.5,0.5s0.2,0.5,0.5,0.5s0.5-0.2,0.5-0.5
		S31.7,20.5,31.4,20.5 M31.4,22.2c-0.3,0-0.5,0.2-0.5,0.5s0.2,0.5,0.5,0.5s0.5-0.2,0.5-0.5S31.7,22.2,31.4,22.2 M29.7,23.9
		c-0.3,0-0.5,0.2-0.5,0.5s0.2,0.5,0.5,0.5s0.5-0.2,0.5-0.5S30,23.9,29.7,23.9 M31.4,23.9c-0.3,0-0.5,0.2-0.5,0.5s0.2,0.5,0.5,0.5
		s0.5-0.2,0.5-0.5S31.7,23.9,31.4,23.9 M2,25.7c-0.3,0-0.5,0.2-0.5,0.5s0.2,0.5,0.5,0.5s0.5-0.2,0.5-0.5S2.3,25.7,2,25.7 M3.8,25.7
		c-0.3,0-0.5,0.2-0.5,0.5s0.2,0.5,0.5,0.5s0.5-0.2,0.5-0.5S4,25.7,3.8,25.7 M27.9,25.7c-0.3,0-0.5,0.2-0.5,0.5s0.2,0.5,0.5,0.5
		c0.3,0,0.5-0.2,0.5-0.5S28.2,25.7,27.9,25.7 M7.2,27.4c-0.3,0-0.5,0.2-0.5,0.5s0.2,0.5,0.5,0.5s0.5-0.2,0.5-0.5S7.5,27.4,7.2,27.4
		 M8.9,27.4c-0.3,0-0.5,0.2-0.5,0.5s0.2,0.5,0.5,0.5s0.5-0.2,0.5-0.5S9.2,27.4,8.9,27.4 M10.7,27.4c-0.3,0-0.5,0.2-0.5,0.5
		s0.2,0.5,0.5,0.5s0.5-0.2,0.5-0.5S11,27.4,10.7,27.4 M12.4,27.4c-0.3,0-0.5,0.2-0.5,0.5s0.2,0.5,0.5,0.5s0.5-0.2,0.5-0.5
		S12.7,27.4,12.4,27.4 M21,27.4c-0.3,0-0.5,0.2-0.5,0.5s0.2,0.5,0.5,0.5c0.3,0,0.5-0.2,0.5-0.5S21.3,27.4,21,27.4 M24.5,27.4
		c-0.3,0-0.5,0.2-0.5,0.5s0.2,0.5,0.5,0.5c0.3,0,0.5-0.2,0.5-0.5S24.8,27.4,24.5,27.4 M29.7,27.4c-0.3,0-0.5,0.2-0.5,0.5
		s0.2,0.5,0.5,0.5s0.5-0.2,0.5-0.5S30,27.4,29.7,27.4 M3.8,29.1c-0.3,0-0.5,0.2-0.5,0.5s0.2,0.5,0.5,0.5s0.5-0.2,0.5-0.5
		S4,29.1,3.8,29.1 M8.9,29.1c-0.3,0-0.5,0.2-0.5,0.5s0.2,0.5,0.5,0.5s0.5-0.2,0.5-0.5S9.2,29.1,8.9,29.1 M10.7,29.1
		c-0.3,0-0.5,0.2-0.5,0.5s0.2,0.5,0.5,0.5s0.5-0.2,0.5-0.5S11,29.1,10.7,29.1 M12.4,29.1c-0.3,0-0.5,0.2-0.5,0.5s0.2,0.5,0.5,0.5
		s0.5-0.2,0.5-0.5S12.7,29.1,12.4,29.1 M14.1,29.1c-0.3,0-0.5,0.2-0.5,0.5s0.2,0.5,0.5,0.5s0.5-0.2,0.5-0.5S14.4,29.1,14.1,29.1
		 M21,29.1c-0.3,0-0.5,0.2-0.5,0.5s0.2,0.5,0.5,0.5c0.3,0,0.5-0.2,0.5-0.5S21.3,29.1,21,29.1 M24.5,29.1c-0.3,0-0.5,0.2-0.5,0.5
		s0.2,0.5,0.5,0.5c0.3,0,0.5-0.2,0.5-0.5S24.8,29.1,24.5,29.1 M27.9,29.1c-0.3,0-0.5,0.2-0.5,0.5s0.2,0.5,0.5,0.5
		c0.3,0,0.5-0.2,0.5-0.5S28.2,29.1,27.9,29.1 M29.7,29.1c-0.3,0-0.5,0.2-0.5,0.5s0.2,0.5,0.5,0.5s0.5-0.2,0.5-0.5
		S29.9,29.1,29.7,29.1 M10.7,30.9c-0.3,0-0.5,0.2-0.5,0.5s0.2,0.5,0.5,0.5s0.5-0.2,0.5-0.5S10.9,30.9,10.7,30.9 M12.4,30.9
		c-0.3,0-0.5,0.2-0.5,0.5s0.2,0.5,0.5,0.5s0.5-0.2,0.5-0.5S12.7,30.9,12.4,30.9 M15.8,30.9c-0.3,0-0.5,0.2-0.5,0.5s0.2,0.5,0.5,0.5
		c0.3,0,0.5-0.2,0.5-0.5S16.1,30.9,15.8,30.9 M17.6,30.9c-0.3,0-0.5,0.2-0.5,0.5s0.2,0.5,0.5,0.5c0.3,0,0.5-0.2,0.5-0.5
		S17.9,30.9,17.6,30.9 M19.3,30.9c-0.3,0-0.5,0.2-0.5,0.5s0.2,0.5,0.5,0.5c0.3,0,0.5-0.2,0.5-0.5S19.6,30.9,19.3,30.9 M21,30.9
		c-0.3,0-0.5,0.2-0.5,0.5s0.2,0.5,0.5,0.5c0.3,0,0.5-0.2,0.5-0.5S21.3,30.9,21,30.9 M22.7,30.9c-0.3,0-0.5,0.2-0.5,0.5
		s0.2,0.5,0.5,0.5c0.3,0,0.5-0.2,0.5-0.5S23,30.9,22.7,30.9"/>
	<path class="st1" d="M37.2,22.2v-2.8c0.5,0.4,1.1,0.8,1.7,1s1.2,0.3,1.8,0.3c0.4,0,0.7,0,0.9-0.1s0.5-0.2,0.7-0.3s0.3-0.2,0.4-0.4
		c0.1-0.2,0.1-0.3,0.1-0.5c0-0.2-0.1-0.5-0.2-0.7c-0.2-0.2-0.4-0.4-0.6-0.5c-0.2-0.2-0.5-0.3-0.9-0.5l-1.1-0.5
		c-1-0.4-1.7-0.9-2.2-1.5s-0.7-1.3-0.7-2.2c0-0.7,0.1-1.2,0.4-1.7c0.3-0.5,0.6-0.9,1.1-1.2c0.5-0.3,1-0.5,1.6-0.7
		c0.6-0.1,1.3-0.2,1.9-0.2c0.7,0,1.2,0,1.8,0.1c0.5,0.1,1,0.2,1.4,0.4V13c-0.2-0.2-0.5-0.3-0.7-0.4c-0.2-0.1-0.5-0.2-0.8-0.3
		c-0.3-0.1-0.5-0.1-0.8-0.2c-0.2,0-0.5-0.1-0.7-0.1c-0.3,0-0.6,0-0.9,0.1s-0.5,0.1-0.7,0.3c-0.2,0.1-0.3,0.2-0.4,0.4
		c-0.1,0.2-0.2,0.3-0.2,0.5c0,0.2,0.1,0.4,0.2,0.6s0.3,0.3,0.5,0.5s0.5,0.3,0.8,0.4l1,0.4c0.5,0.2,0.9,0.4,1.4,0.7
		c0.4,0.2,0.7,0.5,1,0.8c0.3,0.3,0.5,0.6,0.7,1s0.2,0.8,0.2,1.3c0,0.7-0.1,1.3-0.4,1.8c-0.3,0.5-0.6,0.9-1.1,1.2
		c-0.5,0.3-1,0.5-1.6,0.6c-0.6,0.1-1.3,0.2-1.9,0.2c-0.7,0-1.3-0.1-2-0.2C38.2,22.6,37.7,22.4,37.2,22.2L37.2,22.2z M56.4,22.7h-2.8
		v-5c0-1.4-0.5-2.1-1.5-2.1c-0.5,0-0.9,0.2-1.2,0.6c-0.3,0.4-0.5,0.8-0.5,1.4v5.2h-2.8v-9h2.8v1.4h0c0.7-1.1,1.6-1.7,2.9-1.7
		c2,0,3,1.2,3,3.7L56.4,22.7z M66.2,22.7h-2.6v-1.3h0c-0.6,1-1.5,1.5-2.7,1.5c-0.9,0-1.6-0.2-2.1-0.7S58,21,58,20.2
		c0-1.8,1-2.8,3.1-3l2.5-0.3c0-1-0.5-1.5-1.6-1.5c-1.1,0-2.1,0.3-3.1,1v-2.1c0.4-0.2,0.9-0.4,1.6-0.5s1.3-0.2,1.8-0.2
		c2.6,0,3.9,1.3,3.9,3.9L66.2,22.7L66.2,22.7z M63.5,19v-0.6l-1.6,0.2c-0.9,0.1-1.4,0.5-1.4,1.2c0,0.3,0.1,0.6,0.3,0.8
		s0.5,0.3,0.9,0.3c0.5,0,0.9-0.2,1.3-0.5S63.5,19.6,63.5,19L63.5,19z M71.2,21.6L71.2,21.6l0,5.2h-2.8V13.6h2.8V15h0
		c0.7-1.1,1.7-1.6,2.9-1.6c1.2,0,2.1,0.4,2.7,1.2s1,1.9,1,3.3c0,1.5-0.4,2.7-1.1,3.6s-1.7,1.4-3,1.4C72.6,22.9,71.8,22.5,71.2,21.6
		L71.2,21.6z M71.1,17.9v0.7c0,0.6,0.2,1.1,0.5,1.5c0.3,0.4,0.8,0.6,1.3,0.6c0.6,0,1.1-0.2,1.5-0.7s0.5-1.2,0.5-2.1
		c0-1.6-0.6-2.4-1.9-2.4c-0.5,0-1.1,0.2-1.4,0.6C71.3,16.6,71.1,17.2,71.1,17.9L71.1,17.9z M86.4,22.4c-0.6,0.4-1.5,0.5-2.7,0.5
		c-1.4,0-2.5-0.4-3.4-1.3S79,19.7,79,18.4c0-1.5,0.5-2.8,1.4-3.6s2.2-1.3,3.7-1.3c1.1,0,1.8,0.1,2.3,0.4v2.4c-0.6-0.4-1.2-0.7-2-0.7
		c-0.8,0-1.4,0.2-1.9,0.7s-0.7,1.1-0.7,1.9c0,0.8,0.2,1.4,0.7,1.9s1.1,0.7,1.8,0.7c0.7,0,1.4-0.2,2-0.7L86.4,22.4z M97,22.7h-2.8
		v-5.1c0-1.3-0.5-2-1.4-2c-0.5,0-0.9,0.2-1.2,0.6c-0.3,0.4-0.5,0.8-0.5,1.4v5.2h-2.8V9.3h2.8V15h0c0.7-1,1.6-1.6,2.8-1.6
		c2.1,0,3.1,1.2,3.1,3.7L97,22.7z M106.7,22.7H104v-1.3h0c-0.6,1-1.5,1.5-2.7,1.5c-0.9,0-1.6-0.2-2.1-0.7s-0.8-1.2-0.8-2
		c0-1.8,1-2.8,3.1-3l2.5-0.3c0-1-0.5-1.5-1.6-1.5c-1.1,0-2.1,0.3-3.1,1v-2.1c0.4-0.2,0.9-0.4,1.6-0.5s1.3-0.2,1.8-0.2
		c2.6,0,3.9,1.3,3.9,3.9L106.7,22.7z M104.1,19v-0.6l-1.6,0.2c-0.9,0.1-1.4,0.5-1.4,1.2c0,0.3,0.1,0.6,0.3,0.8s0.5,0.3,0.9,0.3
		c0.5,0,0.9-0.2,1.3-0.5S104.1,19.6,104.1,19L104.1,19z M114.4,22.6c-0.4,0.2-1,0.3-1.9,0.3c-2,0-2.9-1-2.9-3.1v-4.1h-1.5v-2.1h1.5
		v-2l2.8-0.8v2.7h2v2.1h-2v3.7c0,0.9,0.4,1.4,1.1,1.4c0.3,0,0.6-0.1,0.9-0.3L114.4,22.6L114.4,22.6z"/>
</g>
</svg>
