<svg width="1004" height="185" viewBox="0 0 1004 185" fill="none" xmlns="http://www.w3.org/2000/svg">
<path fill-rule="evenodd" clip-rule="evenodd" d="M392.589 181.902C379.215 181.902 368.978 178.075 361.878 170.421C354.778 162.767 351.229 151.952 351.229 137.975V46.1294C351.229 32.1529 354.778 21.3377 361.878 13.6839C368.978 6.03004 379.215 2.20312 392.589 2.20312H475.123C488.498 2.20312 498.734 6.03004 505.834 13.6839C512.934 21.3377 516.484 32.1529 516.484 46.1294V137.975C516.484 151.952 512.934 162.767 505.834 170.421C498.734 178.075 488.498 181.902 475.123 181.902H392.589ZM397.255 26.8866C387.123 26.8866 378.909 35.1003 378.909 45.2324V137.953C378.909 148.085 387.123 156.299 397.255 156.299H470.638C480.77 156.299 488.984 148.085 488.984 137.953V45.2324C488.984 35.1003 480.77 26.8866 470.638 26.8866H397.255Z" fill="#283025"/>
<path d="M596.347 184.698C582.837 184.698 572.49 180.85 565.308 173.154C558.296 165.458 554.79 154.599 554.79 140.575V44.1222C554.79 30.0989 558.296 19.2393 565.308 11.5436C572.49 3.84787 582.837 0 596.347 0C609.857 0 620.118 3.84787 627.13 11.5436C634.313 19.2393 637.904 30.0989 637.904 44.1222V63.105H611.225V42.3265C611.225 31.2105 606.523 25.6525 597.117 25.6525C587.711 25.6525 583.008 31.2105 583.008 42.3265V142.628C583.008 153.573 587.711 159.045 597.117 159.045C606.523 159.045 611.225 153.573 611.225 142.628V115.18H637.904V140.575C637.904 154.599 634.313 165.458 627.13 173.154C620.118 180.85 609.857 184.698 596.347 184.698Z" fill="#283025"/>
<path d="M695.593 2.56524H733.815L763.059 182.132H734.841L729.711 146.475V146.989H697.645L692.515 182.132H666.349L695.593 2.56524ZM726.376 122.619L713.806 33.8612H713.293L700.98 122.619H726.376Z" fill="#283025"/>
<path d="M795.751 2.56524H837.564C852.101 2.56524 862.704 5.98557 869.373 12.8262C876.043 19.4959 879.378 29.8424 879.378 43.8657V54.8962C879.378 73.537 873.221 85.3372 860.908 90.2966V90.8097C867.749 92.8619 872.537 97.0518 875.273 103.379C878.181 109.707 879.634 118.172 879.634 128.775V160.328C879.634 165.458 879.805 169.648 880.147 172.898C880.489 175.976 881.344 179.054 882.713 182.132H853.982C852.956 179.225 852.272 176.489 851.93 173.924C851.588 171.358 851.417 166.741 851.417 160.071V127.236C851.417 119.027 850.048 113.298 847.312 110.049C844.747 106.8 840.215 105.175 833.716 105.175H823.968V182.132H795.751V2.56524ZM834.229 79.5226C839.873 79.5226 844.063 78.069 846.799 75.1617C849.706 72.2544 851.16 67.3804 851.16 60.5398V46.6875C851.16 40.1888 849.963 35.4859 847.569 32.5786C845.345 29.6713 841.754 28.2177 836.795 28.2177H823.968V79.5226H834.229Z" fill="#283025"/>
<path d="M918.214 2.56524H961.31C975.333 2.56524 985.851 6.3276 992.863 13.8523C999.874 21.377 1003.38 32.4076 1003.38 46.944V137.754C1003.38 152.29 999.874 163.321 992.863 170.845C985.851 178.37 975.333 182.132 961.31 182.132H918.214V2.56524ZM960.797 156.48C965.415 156.48 968.92 155.112 971.315 152.376C973.88 149.639 975.162 145.193 975.162 139.036V45.6614C975.162 39.5048 973.88 35.0583 971.315 32.3221C968.92 29.5858 965.415 28.2177 960.797 28.2177H946.432V156.48H960.797Z" fill="#283025"/>
<path d="M0 156.993L52.331 28.2177H2.56524V2.56524H82.6009V27.7046L30.2699 156.48H82.6009V182.132H0V156.993Z" fill="#283025"/>
<path d="M117.585 2.56524H194.543V28.2177H145.803V75.6747H184.538V101.327H145.803V156.48H194.543V182.132H117.585V2.56524Z" fill="#283025"/>
<path d="M229.778 2.56524H271.591C286.128 2.56524 296.731 5.98557 303.4 12.8262C310.07 19.4959 313.405 29.8424 313.405 43.8657V54.8962C313.405 73.537 307.248 85.3372 294.935 90.2966V90.8097C301.776 92.8619 306.564 97.0518 309.3 103.379C312.208 109.707 313.661 118.172 313.661 128.775V160.328C313.661 165.458 313.832 169.648 314.174 172.898C314.516 175.976 315.371 179.054 316.74 182.132H288.009C286.983 179.225 286.299 176.489 285.957 173.924C285.615 171.358 285.444 166.741 285.444 160.071V127.236C285.444 119.027 284.075 113.298 281.339 110.049C278.774 106.8 274.242 105.175 267.743 105.175H257.995V182.132H229.778V2.56524ZM268.256 79.5226C273.9 79.5226 278.09 78.069 280.826 75.1617C283.733 72.2544 285.187 67.3804 285.187 60.5398V46.6875C285.187 40.1888 283.99 35.4859 281.596 32.5786C279.372 29.6713 275.781 28.2177 270.822 28.2177H257.995V79.5226H268.256Z" fill="#283025"/>
</svg>
