<svg width="1115" height="216" viewBox="0 0 1115 216" fill="none" xmlns="http://www.w3.org/2000/svg">
<g clip-path="url(#clip0_218_2)">
<mask id="mask0_218_2" style="mask-type:luminance" maskUnits="userSpaceOnUse" x="0" y="0" width="1115" height="216">
<path d="M1115 0H0V216H1115V0Z" fill="white"/>
</mask>
<g mask="url(#mask0_218_2)">
<path fill-rule="evenodd" clip-rule="evenodd" d="M42.2484 22.9723C40.1406 21.7691 37.7507 21.1326 35.3168 21.1264C32.8828 21.1202 30.4896 21.7444 28.3756 22.9369C26.2615 24.1295 24.5003 25.8487 23.2672 27.9234C22.0343 29.998 21.3724 32.3559 21.3477 34.762V181.249C21.3693 183.655 22.0285 186.013 23.2596 188.088C24.4907 190.163 26.2507 191.883 28.3639 193.076C30.4772 194.269 32.8699 194.894 35.3034 194.887C37.7369 194.88 40.1261 194.243 42.2327 193.039L117.253 150.146C120.278 148.439 122.493 145.613 123.411 142.291C124.33 138.968 123.875 135.421 122.148 132.431C120.421 129.439 117.562 127.249 114.202 126.341C110.842 125.434 107.254 125.883 104.229 127.591L78.4482 141.955C74.583 144.115 70.3221 145.494 65.9135 146.012C61.5048 146.53 57.0357 146.177 52.7661 144.974C48.4965 143.77 44.5114 141.74 41.0421 139.001C37.5728 136.261 34.6885 132.869 32.5568 129.018C30.425 125.168 29.0883 120.938 28.6242 116.572C28.1601 112.207 28.5778 107.794 29.8533 103.59C31.1287 99.3856 33.2363 95.4737 36.0537 92.0813C38.8712 88.6889 42.3422 85.8839 46.2654 83.8289L74.3367 69.03C76.8212 67.8385 79.6764 67.6465 82.3011 68.4929C84.9263 69.3394 87.1172 71.1591 88.4131 73.5695C89.7097 75.98 90.0103 78.7932 89.252 81.4179C88.4937 84.0426 86.736 86.275 84.3478 87.6451L56.2293 102.429C53.3952 103.98 51.3006 106.58 50.406 109.658C49.5114 112.736 49.8902 116.039 51.4592 118.841C53.028 121.643 55.6585 123.714 58.7716 124.599C61.8855 125.482 65.2264 125.108 68.0606 123.557L93.841 109.208C101.734 105.322 110.83 104.568 119.267 107.103C127.703 109.637 134.839 115.266 139.21 122.836C143.582 130.406 144.857 139.343 142.776 147.813C140.694 156.284 135.414 163.646 128.017 168.389L52.8871 211.313C29.4758 224.607 0.0234375 208.055 0.0234375 181.249V34.762C0.0234375 7.94044 29.4758 -8.67375 52.8871 4.68273L181.947 77.9339C187.308 80.9643 191.764 85.3421 194.862 90.623C197.962 95.9033 199.594 101.901 199.594 108.006C199.594 114.111 197.962 120.108 194.862 125.389C191.764 130.669 187.308 135.047 181.947 138.077C179.499 139.385 176.632 139.696 173.956 138.943C171.28 138.191 169.007 136.435 167.621 134.05C166.236 131.664 165.847 128.839 166.539 126.174C167.231 123.51 168.948 121.219 171.324 119.788C173.428 118.603 175.178 116.889 176.394 114.82C177.611 112.75 178.252 110.399 178.252 108.006C178.252 105.612 177.611 103.261 176.394 101.191C175.178 99.1223 173.428 97.4083 171.324 96.2238L42.2484 22.9723Z" fill="#0C62FD"/>
<path d="M289.942 118.021H316.617L303.421 77.5316H302.934L289.942 118.021ZM269.45 158.881C262.922 158.881 258.826 155.096 258.826 149.123C258.932 146.871 259.404 144.65 260.223 142.546L287.588 68.8758C290.491 60.8401 295.434 57.1326 303.28 57.1326C311.471 57.1326 316.334 60.7005 319.332 68.7982L346.822 142.546C347.669 144.639 348.117 146.869 348.141 149.123C348.141 154.832 343.779 158.881 337.659 158.881C331.539 158.881 328.636 156.197 326.754 149.744L321.482 134.091H285.36L280.088 149.604C278.143 156.135 275.004 158.881 269.45 158.881Z" fill="black"/>
<path d="M377.169 158.881C370.563 158.881 366.672 154.895 366.672 148.1V69.2794C366.672 62.4847 370.563 58.498 377.169 58.498H424.039C429.798 58.498 433.548 61.7246 433.548 67.0767C433.548 72.4283 429.735 75.6706 424.039 75.6706H387.651V102.167H420.603C426.016 102.167 429.563 105.269 429.563 110.342C429.563 115.415 426.094 118.579 420.603 118.579H387.651V148.053C387.651 154.895 383.76 158.881 377.169 158.881Z" fill="black"/>
<path d="M460.913 158.881C454.307 158.881 450.432 154.895 450.432 148.1V69.2794C450.432 62.4847 454.307 58.498 460.913 58.498H507.783C513.557 58.498 517.307 61.7246 517.307 67.0767C517.307 72.4283 513.479 75.6706 507.783 75.6706H471.395V102.167H504.346C509.775 102.167 513.306 105.269 513.306 110.342C513.306 115.415 509.838 118.579 504.346 118.579H471.395V148.053C471.395 154.895 467.503 158.881 460.913 158.881Z" fill="black"/>
<path d="M570.846 159.224C550.149 159.224 536.874 151.049 532.857 140.206C532.145 138.438 531.767 136.555 531.743 134.652C531.677 133.435 531.871 132.218 532.313 131.08C532.754 129.942 533.432 128.909 534.304 128.047C535.176 127.185 536.221 126.515 537.372 126.079C538.523 125.642 539.754 125.45 540.985 125.515C545.285 125.515 548.125 127.159 550.635 131.55C553.899 139.105 561.745 142.548 571.332 142.548C582.582 142.548 590.162 137.181 590.162 129.905C590.162 123.39 585.457 119.682 572.901 117.138L562.325 115.075C542.335 111.166 532.512 101.687 532.512 86.9347C532.512 68.8006 548.485 56.7935 570.767 56.7935C589.111 56.7935 602.917 64.41 607.377 77.3168C607.903 78.8119 608.159 80.3875 608.13 81.9708C608.13 86.9195 604.517 90.2856 599.169 90.2856C594.458 90.2856 591.54 88.4239 589.175 84.1734C585.848 76.6963 579.381 73.5935 570.767 73.5935C560.426 73.5935 553.507 78.4027 553.507 85.6784C553.507 91.79 558.214 95.5753 570.171 97.9022L580.731 100.028C601.977 104.216 611.143 112.67 611.143 127.702C611.189 147 595.842 159.224 570.846 159.224Z" fill="black"/>
<path d="M664.179 158.881C657.57 158.881 653.683 154.895 653.683 148.1V75.6706H632.935C627.238 75.6706 623.414 72.4441 623.414 67.0767C623.414 61.7094 627.162 58.498 632.935 58.498H695.358C701.05 58.498 704.768 61.7246 704.768 67.0767C704.768 72.4283 700.956 75.6706 695.358 75.6706H674.657V148.1C674.657 154.895 670.769 158.881 664.179 158.881Z" fill="black"/>
<path d="M741.944 106.295H760.035C770.595 106.295 776.777 100.322 776.777 90.5027C776.777 80.6829 770.251 74.7102 759.83 74.7102H741.944V106.295ZM731.459 159.038C724.933 159.038 720.98 155.051 720.98 148.256V69.2968C720.98 62.5021 724.874 58.5149 731.459 58.5149H762.014C785.078 58.5149 798.277 70.5373 798.277 90.0993C798.277 102.509 792.095 113.027 781.015 117.697L795.464 142.424C796.906 144.531 797.676 147.017 797.676 149.559C797.676 155.051 793.239 159.038 787.133 159.038C782.13 159.038 779.836 157.254 776.433 151.282L759.766 121.419H741.944V148.334C741.944 155.098 738.067 159.023 731.459 159.023V159.038Z" fill="black"/>
<path d="M828.258 157.578C821.667 157.578 817.779 153.591 817.779 146.719V69.2794C817.779 62.4847 821.667 58.498 828.258 58.498H875.911C881.673 58.498 885.421 61.7246 885.421 67.0767C885.421 72.4283 881.609 75.6706 875.911 75.6706H838.754V99.4826H874.107C879.303 99.4826 882.846 102.585 882.846 107.456C882.846 112.328 879.379 115.415 874.107 115.415H838.754V140.406H875.911C881.609 140.406 885.421 143.632 885.421 149C885.421 154.367 881.673 157.578 875.911 157.578H828.258Z" fill="black"/>
<path d="M932.152 118.021H958.824L945.631 77.5316H945.188L932.152 118.021ZM911.673 158.881C905.147 158.881 901.037 155.096 901.037 149.123C901.142 146.871 901.615 144.65 902.432 142.546L929.799 68.8758C932.718 60.8401 937.645 57.1326 945.491 57.1326C953.693 57.1326 958.544 60.7005 961.539 68.7982L989.128 142.546C989.974 144.638 990.43 146.868 990.459 149.123C990.459 154.832 986.081 158.881 979.963 158.881C973.845 158.881 970.938 156.197 969.058 149.744L963.786 134.091H927.569L922.298 149.604C920.348 156.135 917.231 158.881 911.673 158.881Z" fill="black"/>
<path d="M1018.26 158.883C1012.36 158.883 1008.85 155.314 1008.85 149.202V70.5216C1008.85 62.1443 1013.86 57.1339 1022.41 57.1339C1029.69 57.1339 1033.72 60.1437 1036.78 67.838L1061.67 128.725H1062.23L1087.02 67.8222C1090.07 60.2056 1094.16 57.1184 1101.54 57.1184C1110.01 57.1184 1115 62.0515 1115 70.5059V149.202C1115 155.314 1111.53 158.883 1105.58 158.883C1099.64 158.883 1096.28 155.314 1096.28 149.202V90.7036H1095.82L1071.03 150.645C1069.23 155.035 1066.45 156.959 1062.08 156.959C1060.08 157.073 1058.1 156.525 1056.45 155.401C1054.81 154.276 1053.59 152.641 1052.99 150.753L1028.18 90.7503H1027.63V149.202C1027.57 155.314 1024.17 158.883 1018.26 158.883Z" fill="black"/>
</g>
</g>
<defs>
<clipPath id="clip0_218_2">
<rect width="1115" height="216" fill="white"/>
</clipPath>
</defs>
</svg>
