<svg width="908" height="511" viewBox="0 0 908 511" fill="none" xmlns="http://www.w3.org/2000/svg">
<path d="M453.5 43.1001L239.8 413.4H294.9H667.3L453.5 43.1001ZM615.1 351.5H347.1L481.1 119.5L615.1 351.5ZM472.9 105.2L330.6 351.5H292L453.5 71.7001L472.9 105.2ZM264.5 399.1L283.7 365.8H322.3L303.1 399.1H264.5ZM319.7 399.1L338.9 365.8H623.3L642.5 399.1H319.7Z" fill="url(#paint0_linear_37_2)"/>
<path d="M886.8 240.4C883.1 240.4 872.6 265.2 846.2 282.6C842.5 270 837.3 259.4 837.3 246.4C837.3 222.8 865.7 201.3 869 198.1C869 195.3 853.6 182.7 849.9 182.7C845.4 182.7 812.1 214.4 812.1 237.1C812.1 238.5 812.4 239.8 812.5 241.2C803.9 249.1 762.9 314.7 756.1 307.8C738.6 290.3 840.2 98.1999 862.5 75.8999C866.2 72.1999 841.8 56.7999 836.9 61.6999C829.2 69.3999 793 133.6 764.6 197C758.1 189.3 749.2 183.6 738.2 183.6C711.4 183.6 688.7 222.1 675.7 258.6C660.2 280.2 637.6 312.9 632.6 307.9C620.8 296.1 659.4 218.1 670.8 206.8C674.1 203.6 655 188.1 649.3 192.6C647.3 193.8 645.2 196.3 643.2 199.5C636.7 191.4 626.1 183.7 614.8 183.7C588.3 183.7 565.5 221.8 552.2 258.2C535.8 279.7 508.7 313.2 486.4 313.2C483.6 313.2 476.7 310 476.7 298.2C476.7 289.3 478.3 279.9 481.2 270.2C484.9 271.8 488.9 272.6 494.2 272.6C531.2 272.6 553.5 230.8 553.5 211.7C553.5 198.7 541.3 183.7 528.3 183.7C498.8 183.7 470.3 223.9 457.1 264.2C441.7 285.5 422 312.8 418.2 308C400.2 290 501.7 98.6999 524.5 75.8999C528.6 71.7999 503 57.1999 498.5 61.6999C488.1 72.0999 428.5 181.3 402 257.2C386.5 278.8 363 313 357.9 307.9C346.1 296.1 384.7 218.1 396.1 206.8C399.4 203.6 380.3 188.1 374.6 192.6C372.6 193.8 370.5 196.3 368.5 199.5C362 191.4 351.4 183.7 340.1 183.7C313.8 183.7 291.1 221.3 277.8 257.4C270 267.5 259.1 278.6 244.6 280.4C244.6 270.7 243.8 263.3 241.8 260.1C278.8 177.2 323.9 92.2999 340.1 76.0999C343.8 72.3999 319.4 56.9999 314.5 61.8999C302 74.0999 255.6 160.8 216.9 251C210.5 250.6 203.7 251.2 197.2 253.9C197.2 253.9 177.8 273.3 185.8 277.1C185.8 277.1 190.8 274.1 203.6 273C189.6 292.2 174.5 312.1 171.2 307.9C153.2 290 254.8 98.6999 277.5 75.8999C281.6 71.7999 256 57.1999 251.5 61.6999C241.1 72.0999 181.5 181.3 155 257.2C139.5 278.8 116 313 110.9 307.9C99.1 296.1 137.7 218.1 149.1 206.8C152.4 203.6 133.3 188.1 127.6 192.6C125.6 193.8 123.5 196.3 121.5 199.5C115 191.4 104.4 183.7 93.1 183.7C51.3 183.7 18.4 279.2 18.4 312.1C18.4 324.7 30.6 341.8 39.1 341.8C50.5 341.8 69.6 314.6 85.8 285.3C83.4 295.5 82.1 304.4 82.1 312.1C82.1 324.7 93.1 341.8 101.6 341.8C111.5 341.8 129.9 316.8 145 291.7C143.3 299.4 142.2 306.5 142.2 312.1C142.2 326.3 153.6 341.8 161.7 341.8C169 341.8 180.8 328.3 192.5 311.3C173.5 361.9 160 408.4 160 437.7C160 450.3 174.6 467.4 181.5 467.4C211.6 467.4 238.8 358.9 243.6 298.4C253.3 297.1 262 291.6 269.3 284.6C266.6 295.5 265.1 305.3 265.1 312.2C265.1 324.8 277.3 341.9 285.8 341.9C297.2 341.9 316.3 314.7 332.5 285.4C330.1 295.6 328.8 304.5 328.8 312.2C328.8 324.8 339.8 341.9 348.3 341.9C358.2 341.9 376.6 316.9 391.7 291.8C390 299.5 388.9 306.6 388.9 312.2C388.9 326.4 400.3 341.9 408.4 341.9C417.8 341.9 435 319.1 449.7 295.2C449.3 299.1 449 302.9 449 306.6C449 328.9 468.1 341.9 475 341.9C499.4 341.9 524.8 315.2 542.7 289.2C540.7 298.3 539.6 306.3 539.6 312.3C539.6 324.9 551.8 342 560.3 342C571.7 342 590.8 314.8 607 285.5C604.6 295.7 603.3 304.6 603.3 312.3C603.3 324.9 614.3 342 622.8 342C632.6 342 650.8 317.5 665.8 292.6C664.3 300.3 663.4 307.2 663.4 312.4C663.4 325 675.6 342.1 683.7 342.1C695.1 342.1 715.4 314.1 731.6 283.6C728.8 295.4 727.1 305.1 727.1 312.4C727.1 326.6 738.5 342.1 746.6 342.1C763.7 342.1 804.8 270.3 812.5 247.8C814.7 265.5 821.5 279.7 824.5 293.4C814.3 297.9 801.8 298.7 789.2 300.3C787.6 301.5 782.7 307.2 782.7 311.7C782.7 320.2 803.4 343 820.1 343C832.7 343 849.3 328 849.3 305.2C849.3 303.2 848.9 301.1 848.9 299.5C878.3 276.6 894.5 240.4 886.8 240.4ZM534.2 203.5C538.7 208 514.3 256.7 486.7 256.7H486.3C501.3 224.2 527.7 197 534.2 203.5ZM48.8 308.3C48.4 308.3 48 307.9 47.6 307.5C47.2 306.3 46.8 304.7 46.8 301.8C46.8 264.8 84.2 202.3 100.4 202.3C105.7 202.3 109.7 207.2 114.2 212L105.7 229.1C89.5 255.1 60.2 308.3 48.8 308.3ZM187.7 433.4C185.7 431.4 184.9 428.1 184.9 422.8C184.9 400.1 203.2 348.9 227.1 292.8C220.6 347.7 197.9 443.5 187.7 433.4ZM295.8 308.3C295.4 308.3 295 307.9 294.6 307.5C294.2 306.3 293.8 304.7 293.8 301.8C293.8 264.8 331.2 202.3 347.4 202.3C352.7 202.3 356.7 207.2 361.2 212L352.7 229.1C336.4 255.1 307.2 308.3 295.8 308.3ZM570.4 308.3C570 308.3 569.6 307.9 569.2 307.5C568.8 306.3 568.4 304.7 568.4 301.8C568.4 264.8 605.8 202.3 622 202.3C627.3 202.3 631.3 207.2 635.8 212L627.3 229.1C611 255.1 581.8 308.3 570.4 308.3ZM694.3 308.3C693.9 308.3 692.3 307.9 692.3 301.8C692.3 264.8 728.5 202.3 745.9 202.3C750.8 202.3 754.8 206.4 758.5 210.8L750.8 229.9C734.1 256.3 705.2 308.3 694.3 308.3ZM817.8 320.9C814.1 320.9 810.1 319.3 806 315.6C813.7 315.6 820.2 314.4 827.1 311.5C826.7 316 824.7 320.9 817.8 320.9Z" fill="black"/>
<defs>
<linearGradient id="paint0_linear_37_2" x1="239.776" y1="228.264" x2="667.307" y2="228.264" gradientUnits="userSpaceOnUse">
<stop stop-color="#8325FB"/>
<stop offset="1" stop-color="#00FFEA"/>
</linearGradient>
</defs>
</svg>
