<svg xmlns="http://www.w3.org/2000/svg" xmlns:xlink="http://www.w3.org/1999/xlink" fill="none" viewBox="0 0 106.3 48" preserveAspectRatio="xMinYMin meet"><radialGradient id="a" cx="0" cy="0" gradientTransform="matrix(-16.50083565 59.99997187 -59.99987545 -16.50080914 40.5009 8.5)" gradientUnits="userSpaceOnUse" r="1"><stop offset="0" stop-color="#5073ee"></stop><stop offset="1" stop-color="#2c3dd0"></stop></radialGradient><circle cx="25" cy="24" fill="#fff" r="23"></circle><g clip-rule="evenodd" fill-rule="evenodd"><path d="m47.9625 22.6474c-.3461-1.0771-.9474-2.0382-1.8037-2.8834-1.4186-1.4187-3.164-2.128-5.236-2.128-2.0533 0-3.7986.7093-5.236 2.128-1.4373 1.4187-2.156 3.164-2.156 5.236s.7187 3.8173 2.156 5.236c1.4374 1.4187 3.1827 2.128 5.236 2.128 2.072 0 3.8174-.7093 5.236-2.128.6321-.6239 1.1253-1.311 1.4794-2.0613-1.9758 11.2648-11.8073 19.8253-23.6382 19.8253-13.2548 0-24-10.7452-24-24s10.7452-24 24-24c12.8009 0 23.2611 10.0218 23.9625 22.6474zm-32.2745-5.0114c1.9227 0 3.5654.7093 4.928 2.128 1.3627 1.4186 2.044 3.164 2.044 5.236 0 2.0533-.6813 3.7986-2.044 5.236-1.3626 1.4186-3.0053 2.128-4.928 2.128-2.128 0-3.7613-.7934-4.9-2.38v2.016h-3.02396v-19.6h3.02396v7.588c1.1387-1.568 2.772-2.352 4.9-2.352zm-3.64 10.584c.84.84 1.8947 1.26 3.164 1.26 1.2694 0 2.324-.42 3.164-1.26.84-.8587 1.26-1.932 1.26-3.22s-.42-2.352-1.26-3.192c-.84-.8587-1.8946-1.288-3.164-1.288-1.2693 0-2.324.4293-3.164 1.288-.84.84-1.26 1.904-1.26 3.192s.42 2.3613 1.26 3.22zm28.8748 1.204c-1.232 0-2.268-.42-3.108-1.26s-1.26-1.8947-1.26-3.164.42-2.324 1.26-3.164 1.876-1.26 3.108-1.26 2.268.42 3.108 1.26 1.26 1.8947 1.26 3.164-.42 2.324-1.26 3.164-1.876 1.26-3.108 1.26zm-8.186-11.676c-2.1094 0-3.5467.868-4.312 2.604v-2.352h-3.024v14h3.024v-7.056c0-1.4373.4293-2.464 1.288-3.08.8586-.6347 1.8666-.9147 3.024-.84z" fill="url(#a)"></path><path d="m106.302 12.4h-3.024v7.588c-1.139-1.568-2.772-2.352-4.9002-2.352-1.9227 0-3.5654.7094-4.928 2.128-1.3627 1.4187-2.044 3.164-2.044 5.236 0 2.0534.6813 3.7987 2.044 5.236 1.3626 1.4187 3.0053 2.128 4.928 2.128 2.1282 0 3.7612-.7933 4.9002-2.38v2.016h3.024zm-7.4482 17.08c-1.2694 0-2.324-.42-3.164-1.26-.84-.8586-1.26-1.932-1.26-3.22s.42-2.352 1.26-3.192c.84-.8586 1.8946-1.288 3.164-1.288 1.2692 0 2.3242.4294 3.1642 1.288.84.84 1.26 1.904 1.26 3.192s-.42 2.3614-1.26 3.22c-.84.84-1.895 1.26-3.1642 1.26zm-8.242-11.732c-2.1094 0-3.5467.868-4.312 2.604v-2.352h-3.024v14h3.024v-7.056c0-1.4373.4293-2.464 1.288-3.08.8586-.6347 1.8666-.9147 3.024-.84zm-13.8848.252h3.024v14h-3.024v-2.016c-1.1387 1.5867-2.772 2.38-4.9 2.38-1.9227 0-3.5654-.7093-4.928-2.128-1.3627-1.4373-2.044-3.1827-2.044-5.236 0-2.072.6813-3.8173 2.044-5.236 1.3626-1.4187 3.0053-2.128 4.928-2.128 2.128 0 3.7613.784 4.9 2.352zm-7.588 10.22c.84.84 1.8946 1.26 3.164 1.26 1.2693 0 2.324-.42 3.164-1.26.84-.8587 1.26-1.932 1.26-3.22s-.42-2.352-1.26-3.192c-.84-.8587-1.8947-1.288-3.164-1.288-1.2694 0-2.324.4293-3.164 1.288-.84.84-1.26 1.904-1.26 3.192s.42 2.3613 1.26 3.22zm-17.059 2.016c1.4186 1.4187 3.1826 2.128 5.292 2.128 1.3626 0 2.604-.3267 3.724-.98s1.9786-1.54 2.576-2.66l-2.604-1.484c-.336.6533-.84 1.176-1.512 1.568-.6534.392-1.3907.588-2.212.588-1.232 0-2.268-.42-3.108-1.26-.8214-.84-1.232-1.8853-1.232-3.136s.4106-2.296 1.232-3.136c.84-.84 1.876-1.26 3.108-1.26.84 0 1.5773.196 2.212.588.6533.3733 1.1386.896 1.456 1.568l2.604-1.512c-.56-1.1013-1.4-1.9787-2.52-2.632s-2.3614-.98-3.724-.98c-2.1094 0-3.8734.7093-5.292 2.128-1.4 1.4-2.1 3.1453-2.1 5.236 0 2.072.7 3.8173 2.1 5.236z" fill="#252f3e"></path></g></svg>
