<svg fill="none" xmlns="http://www.w3.org/2000/svg" viewBox="7.6 10 114.06 47.2" preserveAspectRatio="xMinYMin meet"><path d="M68.6476 22.2449L66.8023 24.0769L75.6059 32.8171C77.1946 34.3943 79.7704 34.3943 81.3591 32.8171L85.8085 28.3997C87.3972 26.8225 87.3972 24.2653 85.8085 22.688L76.2343 13.183C74.6456 11.6057 72.0699 11.6057 70.4812 13.1829L68.2227 15.4251L52.5488 30.985C51.9792 31.5504 51.0558 31.5504 50.4863 30.985L46.0369 26.5677C45.4674 26.0022 45.4674 25.0855 46.0369 24.5201L55.611 15.015C56.1806 14.4496 57.1039 14.4496 57.6735 15.015L61.3656 18.6805L63.211 16.8485L59.5188 13.1829C57.9302 11.6057 55.3544 11.6057 53.7657 13.1829L44.1915 22.688C42.6028 24.2653 42.6028 26.8225 44.1915 28.3997L48.6409 32.817C50.2296 34.3943 52.8054 34.3943 54.3941 32.8171L70.0681 17.2572L72.3265 15.015C72.8961 14.4496 73.8195 14.4496 74.389 15.015L83.9631 24.5201C84.5326 25.0855 84.5326 26.0023 83.9631 26.5677L79.5137 30.985C78.9442 31.5504 78.0208 31.5504 77.4512 30.985L68.6476 22.2449Z" fill="#FCB813"></path><path fill-rule="evenodd" clip-rule="evenodd" d="M65.0556 25.0513L55.8032 34.2364C53.4346 36.5879 49.6004 36.5878 47.2318 34.2364L42.7824 29.819C40.4059 27.4596 40.4059 23.6281 42.7824 21.2687L52.3566 11.7636C54.7251 9.41212 58.5594 9.41214 60.9279 11.7636L64.6201 15.4291C64.7495 15.5576 64.8595 15.7019 64.9483 15.8576L66.8136 14.0058L69.0721 11.7636C71.4406 9.41215 75.2749 9.41215 77.6434 11.7636L87.2176 21.2687C89.5941 23.6282 89.5942 27.4596 87.2176 29.8191L82.7682 34.2364C80.3996 36.5879 76.5654 36.5879 74.1968 34.2364L65.3932 25.4963C65.2592 25.3632 65.146 25.2132 65.0556 25.0513ZM60.3617 20.4108L51.5175 29.1906L47.8444 25.5439L56.6423 16.8094L59.9566 20.0998C60.0807 20.2231 60.2171 20.3268 60.3617 20.4108ZM57.0201 16.4343C57.0199 16.4345 57.0203 16.4341 57.0201 16.4343V16.4343ZM54.3941 32.8171C52.8054 34.3943 50.2296 34.3943 48.6409 32.817L44.1915 28.3997C42.6028 26.8225 42.6028 24.2653 44.1915 22.688L53.7657 13.1829C55.3544 11.6057 57.9302 11.6057 59.5188 13.1829L63.211 16.8485L61.3656 18.6805L57.6735 15.015C57.104 14.4496 56.1806 14.4496 55.611 15.015L46.0369 24.5201C45.4674 25.0855 45.4674 26.0022 46.0369 26.5677L50.4863 30.985C51.0558 31.5504 51.9792 31.5504 52.5488 30.985L70.4812 13.1829C72.0699 11.6057 74.6456 11.6057 76.2343 13.183L85.8085 22.688C87.3972 24.2653 87.3972 26.8225 85.8085 28.3997L81.3591 32.8171C79.7704 34.3943 77.1946 34.3943 75.6059 32.8171L66.8023 24.0769L68.6476 22.2449L77.4512 30.985C78.0208 31.5504 78.9442 31.5504 79.5137 30.985L83.9631 26.5677C84.5327 26.0023 84.5326 25.0855 83.9631 24.5201L74.389 15.015C73.8195 14.4496 72.8961 14.4496 72.3265 15.015L54.3941 32.8171ZM70.4812 13.1829L70.4781 13.1798L70.4812 13.1829ZM69.6351 20.5051L71.4771 18.6766L73.3578 16.8095L82.1556 25.5439L78.4825 29.1906L70.0567 20.8256C69.9278 20.6976 69.7859 20.5908 69.6351 20.5051Z" fill="#171717"></path><path d="M12.6396 57.1996C11.6929 57.1996 10.8329 56.9796 10.0596 56.5396C9.29961 56.0996 8.69961 55.4996 8.25961 54.7396C7.81961 53.9796 7.59961 53.1329 7.59961 52.1996C7.59961 51.2529 7.81961 50.4063 8.25961 49.6596C8.69961 48.8996 9.29961 48.2996 10.0596 47.8596C10.8329 47.4196 11.6929 47.1996 12.6396 47.1996C13.3863 47.1996 14.0796 47.3463 14.7196 47.6396C15.3729 47.9196 15.9263 48.3263 16.3796 48.8596L14.9396 50.3196C14.6596 49.9863 14.3196 49.7396 13.9196 49.5796C13.5329 49.4063 13.1063 49.3196 12.6396 49.3196C12.0929 49.3196 11.6063 49.4463 11.1796 49.6996C10.7663 49.9396 10.4396 50.2729 10.1996 50.6996C9.97294 51.1263 9.85961 51.6263 9.85961 52.1996C9.85961 52.7596 9.97294 53.2596 10.1996 53.6996C10.4396 54.1263 10.7663 54.4663 11.1796 54.7196C11.6063 54.9596 12.0929 55.0796 12.6396 55.0796C13.1063 55.0796 13.5329 54.9996 13.9196 54.8396C14.3196 54.6663 14.6596 54.4129 14.9396 54.0796L16.3796 55.5396C15.9263 56.0729 15.3729 56.4863 14.7196 56.7796C14.0796 57.0596 13.3863 57.1996 12.6396 57.1996Z" fill="#171717"></path><path d="M22.1704 57.1996C21.2371 57.1996 20.3904 56.9796 19.6304 56.5396C18.8704 56.0863 18.2637 55.4796 17.8104 54.7196C17.3704 53.9596 17.1504 53.1129 17.1504 52.1796C17.1504 51.2463 17.3704 50.4063 17.8104 49.6596C18.2637 48.9129 18.8704 48.3196 19.6304 47.8796C20.3904 47.4263 21.2371 47.1996 22.1704 47.1996C23.1171 47.1996 23.9704 47.4196 24.7304 47.8596C25.4904 48.2996 26.0904 48.8996 26.5304 49.6596C26.9837 50.4063 27.2104 51.2463 27.2104 52.1796C27.2104 53.1129 26.9837 53.9596 26.5304 54.7196C26.0904 55.4796 25.4904 56.0863 24.7304 56.5396C23.9704 56.9796 23.1171 57.1996 22.1704 57.1996ZM22.1704 55.0796C22.7171 55.0796 23.1971 54.9596 23.6104 54.7196C24.0371 54.4663 24.3637 54.1196 24.5904 53.6796C24.8304 53.2396 24.9504 52.7396 24.9504 52.1796C24.9504 51.6196 24.8304 51.1263 24.5904 50.6996C24.3504 50.2729 24.0237 49.9396 23.6104 49.6996C23.1971 49.4463 22.7171 49.3196 22.1704 49.3196C21.6371 49.3196 21.1571 49.4463 20.7304 49.6996C20.3171 49.9396 19.9904 50.2729 19.7504 50.6996C19.5237 51.1263 19.4104 51.6196 19.4104 52.1796C19.4104 52.7396 19.5237 53.2396 19.7504 53.6796C19.9904 54.1196 20.3171 54.4663 20.7304 54.7196C21.1571 54.9596 21.6371 55.0796 22.1704 55.0796Z" fill="#171717"></path><path d="M29.0399 56.9996V47.3996H31.2399V56.9996H29.0399ZM35.4199 56.9996V51.2796C35.4199 50.6396 35.2199 50.1463 34.8199 49.7996C34.4199 49.4396 33.9266 49.2596 33.3399 49.2596C32.9399 49.2596 32.5799 49.3396 32.2599 49.4996C31.9533 49.6596 31.7066 49.8929 31.5199 50.1996C31.3333 50.4929 31.2399 50.8529 31.2399 51.2796L30.3799 50.7996C30.3799 50.0663 30.5399 49.4329 30.8599 48.8996C31.1799 48.3663 31.6133 47.9529 32.1599 47.6596C32.7066 47.3529 33.3199 47.1996 33.9999 47.1996C34.6799 47.1996 35.2933 47.3463 35.8399 47.6396C36.3866 47.9329 36.8199 48.3463 37.1399 48.8796C37.4599 49.4129 37.6199 50.0529 37.6199 50.7996V56.9996H35.4199ZM41.7999 56.9996V51.2796C41.7999 50.6396 41.5999 50.1463 41.1999 49.7996C40.7999 49.4396 40.3066 49.2596 39.7199 49.2596C39.3333 49.2596 38.9799 49.3396 38.6599 49.4996C38.3399 49.6596 38.0866 49.8929 37.8999 50.1996C37.7133 50.4929 37.6199 50.8529 37.6199 51.2796L36.3799 50.7996C36.4466 50.0663 36.6599 49.4329 37.0199 48.8996C37.3799 48.3663 37.8399 47.9529 38.3999 47.6596C38.9733 47.3529 39.5999 47.1996 40.2799 47.1996C40.9733 47.1996 41.5999 47.3463 42.1599 47.6396C42.7199 47.9329 43.1666 48.3463 43.4999 48.8796C43.8333 49.4129 43.9999 50.0529 43.9999 50.7996V56.9996H41.7999Z" fill="#171717"></path><path d="M51.4065 57.1996C50.6732 57.1996 50.0198 57.0463 49.4465 56.7396C48.8731 56.4196 48.4198 55.9863 48.0865 55.4396C47.7665 54.8929 47.6065 54.2729 47.6065 53.5796V50.8196C47.6065 50.1263 47.7732 49.5063 48.1065 48.9596C48.4398 48.4129 48.8932 47.9863 49.4665 47.6796C50.0398 47.3596 50.6865 47.1996 51.4065 47.1996C52.2732 47.1996 53.0532 47.4263 53.7465 47.8796C54.4532 48.3196 55.0065 48.9196 55.4065 49.6796C55.8198 50.4263 56.0265 51.2729 56.0265 52.2196C56.0265 53.1529 55.8198 53.9996 55.4065 54.7596C55.0065 55.5063 54.4532 56.0996 53.7465 56.5396C53.0532 56.9796 52.2732 57.1996 51.4065 57.1996ZM51.0465 55.1196C51.5798 55.1196 52.0465 54.9996 52.4465 54.7596C52.8598 54.5063 53.1798 54.1596 53.4065 53.7196C53.6465 53.2796 53.7665 52.7729 53.7665 52.1996C53.7665 51.6263 53.6465 51.1196 53.4065 50.6796C53.1798 50.2396 52.8598 49.8996 52.4465 49.6596C52.0465 49.4063 51.5798 49.2796 51.0465 49.2796C50.5132 49.2796 50.0398 49.4063 49.6265 49.6596C49.2132 49.8996 48.8932 50.2396 48.6665 50.6796C48.4398 51.1196 48.3265 51.6263 48.3265 52.1996C48.3265 52.7729 48.4398 53.2796 48.6665 53.7196C48.8932 54.1596 49.2132 54.5063 49.6265 54.7596C50.0398 54.9996 50.5132 55.1196 51.0465 55.1196ZM46.2665 56.9996V42.5996H48.4665V49.7596L48.0865 52.0796L48.4665 54.4196V56.9996H46.2665Z" fill="#171717"></path><path d="M62.268 57.1996C61.3347 57.1996 60.488 56.9796 59.728 56.5396C58.968 56.0863 58.3614 55.4796 57.908 54.7196C57.468 53.9596 57.248 53.1129 57.248 52.1796C57.248 51.2463 57.468 50.4063 57.908 49.6596C58.3614 48.9129 58.968 48.3196 59.728 47.8796C60.488 47.4263 61.3347 47.1996 62.268 47.1996C63.2147 47.1996 64.0681 47.4196 64.828 47.8596C65.588 48.2996 66.188 48.8996 66.628 49.6596C67.0814 50.4063 67.308 51.2463 67.308 52.1796C67.308 53.1129 67.0814 53.9596 66.628 54.7196C66.188 55.4796 65.588 56.0863 64.828 56.5396C64.0681 56.9796 63.2147 57.1996 62.268 57.1996ZM62.268 55.0796C62.8147 55.0796 63.2947 54.9596 63.708 54.7196C64.1347 54.4663 64.4614 54.1196 64.688 53.6796C64.928 53.2396 65.048 52.7396 65.048 52.1796C65.048 51.6196 64.928 51.1263 64.688 50.6996C64.448 50.2729 64.1214 49.9396 63.708 49.6996C63.2947 49.4463 62.8147 49.3196 62.268 49.3196C61.7347 49.3196 61.2547 49.4463 60.828 49.6996C60.4147 49.9396 60.088 50.2729 59.848 50.6996C59.6214 51.1263 59.508 51.6196 59.508 52.1796C59.508 52.7396 59.6214 53.2396 59.848 53.6796C60.088 54.1196 60.4147 54.4663 60.828 54.7196C61.2547 54.9596 61.7347 55.0796 62.268 55.0796Z" fill="#171717"></path><path d="M70.4855 57.1996C70.0589 57.1996 69.7055 57.0596 69.4255 56.7796C69.1589 56.4863 69.0255 56.1329 69.0255 55.7196C69.0255 55.2929 69.1589 54.9396 69.4255 54.6596C69.7055 54.3796 70.0589 54.2396 70.4855 54.2396C70.9122 54.2396 71.2589 54.3796 71.5255 54.6596C71.8055 54.9396 71.9455 55.2929 71.9455 55.7196C71.9455 56.1329 71.8055 56.4863 71.5255 56.7796C71.2589 57.0596 70.9122 57.1996 70.4855 57.1996Z" fill="#171717"></path><path d="M78.6943 57.1996C77.7476 57.1996 76.8876 56.9796 76.1143 56.5396C75.3543 56.0996 74.7543 55.4996 74.3143 54.7396C73.8743 53.9796 73.6543 53.1329 73.6543 52.1996C73.6543 51.2529 73.8743 50.4063 74.3143 49.6596C74.7543 48.8996 75.3543 48.2996 76.1143 47.8596C76.8876 47.4196 77.7476 47.1996 78.6943 47.1996C79.441 47.1996 80.1343 47.3463 80.7743 47.6396C81.4276 47.9196 81.981 48.3263 82.4343 48.8596L80.9943 50.3196C80.7143 49.9863 80.3743 49.7396 79.9743 49.5796C79.5876 49.4063 79.161 49.3196 78.6943 49.3196C78.1476 49.3196 77.661 49.4463 77.2343 49.6996C76.821 49.9396 76.4943 50.2729 76.2543 50.6996C76.0276 51.1263 75.9143 51.6263 75.9143 52.1996C75.9143 52.7596 76.0276 53.2596 76.2543 53.6996C76.4943 54.1263 76.821 54.4663 77.2343 54.7196C77.661 54.9596 78.1476 55.0796 78.6943 55.0796C79.161 55.0796 79.5876 54.9996 79.9743 54.8396C80.3743 54.6663 80.7143 54.4129 80.9943 54.0796L82.4343 55.5396C81.981 56.0729 81.4276 56.4863 80.7743 56.7796C80.1343 57.0596 79.441 57.1996 78.6943 57.1996Z" fill="#171717"></path><path d="M87.8451 57.1996C86.9784 57.1996 86.1917 56.9796 85.4851 56.5396C84.7917 56.0996 84.2384 55.5063 83.8251 54.7596C83.4251 53.9996 83.2251 53.1529 83.2251 52.2196C83.2251 51.2729 83.4251 50.4263 83.8251 49.6796C84.2384 48.9196 84.7917 48.3196 85.4851 47.8796C86.1917 47.4263 86.9784 47.1996 87.8451 47.1996C88.5784 47.1996 89.2251 47.3596 89.7851 47.6796C90.3584 47.9863 90.8117 48.4129 91.1451 48.9596C91.4784 49.5063 91.6451 50.1263 91.6451 50.8196V53.5796C91.6451 54.2729 91.4784 54.8929 91.1451 55.4396C90.8251 55.9863 90.3784 56.4196 89.8051 56.7396C89.2317 57.0463 88.5784 57.1996 87.8451 57.1996ZM88.2051 55.1196C89.0184 55.1196 89.6717 54.8463 90.1651 54.2996C90.6717 53.7529 90.9251 53.0529 90.9251 52.1996C90.9251 51.6263 90.8117 51.1196 90.5851 50.6796C90.3584 50.2396 90.0384 49.8996 89.6251 49.6596C89.2251 49.4063 88.7517 49.2796 88.2051 49.2796C87.6717 49.2796 87.1984 49.4063 86.7851 49.6596C86.3851 49.8996 86.0651 50.2396 85.8251 50.6796C85.5984 51.1196 85.4851 51.6263 85.4851 52.1996C85.4851 52.7729 85.5984 53.2796 85.8251 53.7196C86.0651 54.1596 86.3851 54.5063 86.7851 54.7596C87.1984 54.9996 87.6717 55.1196 88.2051 55.1196ZM90.7851 56.9996V54.4196L91.1651 52.0796L90.7851 49.7596V47.3996H92.9851V56.9996H90.7851Z" fill="#171717"></path><path d="M95.4266 56.9996V47.3996H97.6266V56.9996H95.4266ZM97.6266 51.6596L96.8666 51.2796C96.8666 50.0663 97.1333 49.0863 97.6666 48.3396C98.2133 47.5796 99.0333 47.1996 100.127 47.1996C100.607 47.1996 101.04 47.2863 101.427 47.4596C101.813 47.6329 102.173 47.9129 102.507 48.2996L101.067 49.7796C100.893 49.5929 100.7 49.4596 100.487 49.3796C100.273 49.2996 100.027 49.2596 99.7466 49.2596C99.1333 49.2596 98.6266 49.4529 98.2266 49.8396C97.8266 50.2263 97.6266 50.8329 97.6266 51.6596Z" fill="#171717"></path><path d="M107.298 57.1996C106.432 57.1996 105.645 56.9796 104.938 56.5396C104.245 56.0996 103.692 55.5063 103.278 54.7596C102.878 53.9996 102.678 53.1529 102.678 52.2196C102.678 51.2729 102.878 50.4263 103.278 49.6796C103.692 48.9196 104.245 48.3196 104.938 47.8796C105.645 47.4263 106.432 47.1996 107.298 47.1996C108.032 47.1996 108.678 47.3596 109.238 47.6796C109.812 47.9863 110.265 48.4129 110.598 48.9596C110.932 49.5063 111.098 50.1263 111.098 50.8196V53.5796C111.098 54.2729 110.932 54.8929 110.598 55.4396C110.278 55.9863 109.832 56.4196 109.258 56.7396C108.685 57.0463 108.032 57.1996 107.298 57.1996ZM107.658 55.1196C108.205 55.1196 108.678 54.9996 109.078 54.7596C109.492 54.5063 109.812 54.1596 110.038 53.7196C110.265 53.2796 110.378 52.7729 110.378 52.1996C110.378 51.6263 110.265 51.1196 110.038 50.6796C109.812 50.2396 109.492 49.8996 109.078 49.6596C108.678 49.4063 108.205 49.2796 107.658 49.2796C107.125 49.2796 106.652 49.4063 106.238 49.6596C105.838 49.8996 105.518 50.2396 105.278 50.6796C105.052 51.1196 104.938 51.6263 104.938 52.1996C104.938 52.7729 105.052 53.2796 105.278 53.7196C105.518 54.1596 105.838 54.5063 106.238 54.7596C106.652 54.9996 107.125 55.1196 107.658 55.1196ZM112.438 56.9996H110.238V54.4196L110.618 52.0796L110.238 49.7596V42.5996H112.438V56.9996Z" fill="#171717"></path><path d="M118.02 57.1996C117.486 57.1996 116.973 57.1329 116.48 56.9996C115.986 56.8529 115.533 56.6529 115.12 56.3996C114.706 56.1329 114.346 55.8129 114.04 55.4396L115.44 54.0396C115.773 54.4263 116.153 54.7196 116.58 54.9196C117.02 55.1063 117.513 55.1996 118.06 55.1996C118.553 55.1996 118.926 55.1263 119.18 54.9796C119.433 54.8329 119.56 54.6196 119.56 54.3396C119.56 54.0463 119.44 53.8196 119.2 53.6596C118.96 53.4996 118.646 53.3663 118.26 53.2596C117.886 53.1396 117.486 53.0196 117.06 52.8996C116.646 52.7796 116.246 52.6196 115.86 52.4196C115.486 52.2063 115.18 51.9196 114.94 51.5596C114.7 51.1996 114.58 50.7329 114.58 50.1596C114.58 49.5463 114.72 49.0196 115 48.5796C115.293 48.1396 115.7 47.7996 116.22 47.5596C116.753 47.3196 117.386 47.1996 118.12 47.1996C118.893 47.1996 119.573 47.3396 120.16 47.6196C120.76 47.8863 121.26 48.2929 121.66 48.8396L120.26 50.2396C119.98 49.8929 119.66 49.6329 119.3 49.4596C118.94 49.2863 118.526 49.1996 118.06 49.1996C117.62 49.1996 117.28 49.2663 117.04 49.3996C116.8 49.5329 116.68 49.7263 116.68 49.9796C116.68 50.2463 116.8 50.4529 117.04 50.5996C117.28 50.7463 117.586 50.8729 117.96 50.9796C118.346 51.0863 118.746 51.2063 119.16 51.3396C119.586 51.4596 119.986 51.6329 120.36 51.8596C120.746 52.0729 121.06 52.3663 121.3 52.7396C121.54 53.0996 121.66 53.5729 121.66 54.1596C121.66 55.0929 121.333 55.8329 120.68 56.3796C120.026 56.9263 119.14 57.1996 118.02 57.1996Z" fill="#171717"></path></svg>
