<svg width="1024" height="251" viewBox="0 0 1024 251" fill="none" xmlns="http://www.w3.org/2000/svg">
<path d="M101.053 0L235.79 59.4475V191.552L101.053 132.105V0Z" fill="#00008B"/>
<path opacity="0.8" d="M67.3683 19.8159L202.105 79.2635V211.368L67.3683 151.921V19.8159Z" fill="#0000B9"/>
<path opacity="0.8" d="M33.6843 39.6313L168.421 99.0785V231.184L33.6843 171.737V39.6313Z" fill="#0000E7"/>
<path opacity="0.8" d="M0 59.4473L134.737 118.894V251L0 191.553V59.4473Z" fill="#1616FF"/>
<path d="M350.833 138.952L370.435 153.368C359.718 167.336 345.341 174.32 327.306 174.32C312.668 174.32 300.514 169.642 290.842 160.288C281.171 150.933 276.335 139.465 276.335 125.882C276.335 112.299 281.236 100.83 291.038 91.4756C300.84 81.9931 312.995 77.2519 327.502 77.2519C335.605 77.2519 343.119 78.9818 350.048 82.4416C357.103 85.7732 362.919 90.2584 367.493 95.8965L349.457 111.466C343.709 104.034 336.389 100.317 327.502 100.317C320.183 100.317 314.04 102.816 309.074 107.814C304.238 112.683 301.821 118.706 301.821 125.882C301.821 133.186 304.238 139.273 309.074 144.142C314.04 148.883 320.379 151.254 328.09 151.254C332.926 151.254 337.304 150.101 341.225 147.794C345.276 145.359 348.477 142.412 350.833 138.952ZM389.977 160.288C380.303 150.933 375.467 139.465 375.467 125.882C375.467 112.299 380.303 100.83 389.977 91.4756C399.647 81.9931 411.672 77.2519 426.049 77.2519C440.422 77.2519 452.448 81.9931 462.118 91.4756C471.791 100.83 476.628 112.299 476.628 125.882C476.628 139.465 471.791 150.933 462.118 160.288C452.448 169.642 440.422 174.32 426.049 174.32C411.672 174.32 399.647 169.642 389.977 160.288ZM408.013 107.814C403.306 112.683 400.954 118.706 400.954 125.882C400.954 133.058 403.306 139.081 408.013 143.95C412.716 148.819 418.727 151.254 426.049 151.254C433.367 151.254 439.378 148.819 444.082 143.95C448.789 139.081 451.14 133.058 451.14 125.882C451.14 118.706 448.789 112.683 444.082 107.814C439.378 102.816 433.367 100.317 426.049 100.317C418.727 100.317 412.716 102.816 408.013 107.814ZM516.929 172.397H491.442V79.1739H515.946V86.6704C523.134 80.3914 531.695 77.2519 541.628 77.2519C554.697 77.2519 565.35 82.1213 573.583 91.8601C582.994 82.1213 594.234 77.2519 607.304 77.2519C613.837 77.2519 620.046 78.5973 625.927 81.2883C631.938 83.9794 636.839 87.6312 640.628 92.2446C647.035 99.9329 650.237 110.184 650.237 122.998V172.397H624.749V122.038C624.749 114.862 623.183 109.544 620.046 106.084C616.516 102.239 611.748 100.317 605.734 100.317C600.767 100.317 596.193 101.599 592.012 104.162C587.96 106.725 584.888 109.544 582.796 112.619C583.322 116.72 583.581 120.18 583.581 122.998V172.397H558.097V122.038C558.097 114.862 556.527 109.544 553.39 106.084C549.861 102.239 545.092 100.317 539.081 100.317C530.453 100.317 523.069 104.162 516.929 111.85V172.397ZM661.572 161.826L673.925 143.95C680.851 150.101 689.541 153.176 700 153.176C703.393 153.176 706.27 152.471 708.622 151.062C710.98 149.524 712.151 147.602 712.151 145.295C712.151 142.732 710.581 140.554 707.448 138.76C704.311 136.966 700.457 135.364 695.883 133.955C691.436 132.545 686.93 130.943 682.356 129.149C677.779 127.227 673.925 124.344 670.788 120.5C667.651 116.527 666.081 111.786 666.081 106.276C666.081 97.6907 669.676 90.7068 676.864 85.3247C684.186 79.9429 692.743 77.2519 702.546 77.2519C708.427 77.2519 714.441 78.2131 720.579 80.135C726.723 81.9292 731.433 84.1075 734.7 86.6704L722.743 104.738C716.725 100.51 710.649 98.3955 704.505 98.3955C700.846 98.3955 697.774 99.1003 695.296 100.51C692.811 101.791 691.572 103.585 691.572 105.892C691.572 108.07 693.132 109.928 696.272 111.466C699.413 113.004 703.266 114.477 707.84 115.887C712.414 117.296 716.92 119.026 721.367 121.077C725.941 122.998 729.795 126.074 732.935 130.303C736.068 134.403 737.638 139.465 737.638 145.487C737.638 154.073 733.911 161.057 726.46 166.439C719.145 171.692 710.26 174.32 699.802 174.32C685.817 174.32 673.075 170.155 661.572 161.826ZM779.902 79.1739V172.397H754.418V79.1739H779.902ZM755.395 57.454C752.128 54.3784 750.496 50.5984 750.496 46.1135C750.496 41.6283 752.128 37.8482 755.395 34.7726C758.661 31.6974 762.583 30.1597 767.157 30.1597C771.731 30.1597 775.653 31.6974 778.919 34.7726C782.189 37.8482 783.824 41.6283 783.824 46.1135C783.824 50.5984 782.189 54.3784 778.919 57.454C775.653 60.5293 771.731 62.0671 767.157 62.0671C762.583 62.0671 758.661 60.5293 755.395 57.454ZM893.785 79.1739V167.208C893.785 182.329 890.914 193.861 885.159 201.806C880.848 207.701 874.967 212.25 867.516 215.453C860.201 218.785 852.03 220.451 843.015 220.451C833.993 220.451 825.303 218.657 816.937 215.069C808.704 211.481 802.168 206.868 797.331 201.23L813.408 184.891C821.9 193.861 831.771 198.346 843.015 198.346C851.637 198.346 858.105 195.847 862.416 190.85C866.338 186.621 868.298 179.317 868.298 168.938V165.862C860.853 171.5 852.357 174.32 842.814 174.32C835.888 174.32 829.225 172.91 822.818 170.091C816.418 167.272 811.056 163.428 806.745 158.558C798.775 149.46 794.785 138.568 794.785 125.882C794.785 112.171 799.294 100.638 808.312 91.2835C817.463 81.9292 828.505 77.2519 841.445 77.2519C852.163 77.2519 861.44 80.3914 869.281 86.6704V79.1739H893.785ZM868.298 139.721V111.85C862.416 104.162 854.576 100.317 844.773 100.317C837.584 100.317 831.703 102.88 827.129 108.006C822.555 113.004 820.272 118.962 820.272 125.882C820.272 133.186 822.624 139.273 827.331 144.142C832.161 148.883 838.178 151.254 845.367 151.254C855.166 151.254 862.816 147.41 868.298 139.721ZM941.985 172.397H916.501V79.1739H941.008V86.6704C948.852 80.3914 957.805 77.2519 967.861 77.2519C981.33 77.2519 992.304 82.2495 1000.8 92.2446C1007.33 99.8048 1010.6 110.697 1010.6 124.921V172.397H985.115V122.998C985.115 115.054 983.221 109.223 979.429 105.507C975.906 102.047 971.128 100.317 965.12 100.317C960.283 100.317 955.71 101.535 951.399 103.97C947.214 106.276 944.08 108.903 941.985 111.85V172.397Z" fill="black"/>
</svg>
