<svg width="483" height="94" viewBox="0 0 483 94" fill="none" xmlns="http://www.w3.org/2000/svg">
<g clip-path="url(#clip0_2184_749)">
<path d="M153.125 53.1433C149.257 64.0123 145.489 67.247 133.51 67.247H115.446C104.226 67.247 101.876 63.7777 105.71 52.85L109.77 41.277C113.954 29.3521 118.931 26 130.851 26H146.981C156.568 26 161.619 28.7654 157.601 40.2211H147.898C149.399 35.9305 147.882 34.112 142.272 34.112H129.826C123.341 34.112 121.598 35.2265 119.356 41.629L115.813 51.7354C113.629 57.9618 115.496 59.1351 121.048 59.1351H133.494C139.279 59.1351 141.638 58.0792 143.372 53.1433H153.125V53.1433Z" fill="#1F2227"/>
<path d="M164.77 67.2387H155.067L169.372 26.4609H197.014C207.242 26.4609 209.876 30.4583 206.267 40.7407C202.582 51.0818 197.047 55.1964 187.052 55.1964H168.988L164.77 67.2387ZM188.028 47.0845C192.938 47.0845 195.022 45.1486 196.564 40.7407C197.964 36.7434 197.497 34.5729 192.412 34.5729H176.224L171.831 47.0845H188.028Z" fill="#1F2227"/>
<path d="M196.855 67.2387L232.666 26.4609H247.046L254.073 67.2387H242.678L241.085 56.9563H217.061L208.192 67.2387H196.855ZM239.868 49.2633L237.468 34.1036H237.001L223.672 49.2633H239.868Z" fill="#1F2227"/>
<path d="M310.099 53.1433C306.231 64.0123 302.463 67.247 290.485 67.247H272.421C261.2 67.247 258.85 63.7777 262.684 52.85L266.744 41.277C270.928 29.3521 275.905 26 287.825 26H303.955C313.542 26 318.593 28.7654 314.575 40.2211H304.872C306.373 35.9305 304.856 34.112 299.246 34.112H286.792C280.306 34.112 278.564 35.2265 276.322 41.629L272.779 51.7354C270.595 57.9618 272.462 59.1351 278.014 59.1351H290.46C296.245 59.1351 298.604 58.0792 300.338 53.1433H310.099V53.1433Z" fill="#1F2227"/>
<path d="M309.24 67.2387L345.051 26.4609H359.431L366.458 67.2387H355.063L353.471 56.9563H329.447L320.577 67.2387H309.24ZM352.245 49.2633L349.845 34.1036H349.378L336.057 49.2633H352.245V49.2633Z" fill="#1F2227"/>
<path d="M426.394 37.9831H416.691C417.574 35.4523 417.149 34.1617 413.065 34.1617H396.76C394.017 34.1617 391.691 35.2763 390.599 38.3937C389.299 42.0977 391.125 42.567 393.809 42.567H411.523C420.467 42.567 424.46 43.5056 420.484 54.8439C417.458 63.4838 412.398 67.2381 402.811 67.2381H383.222C372.877 67.2381 371.077 63.5341 373.844 55.6652H383.547C382.847 57.6596 384.231 59.5452 386.982 59.5452H403.228C407.496 59.5452 409.622 58.1373 410.781 54.8439C411.814 51.9025 411.748 50.26 406.196 50.26H391.816C380.771 50.26 377.42 48.3242 381.046 37.9831C383.931 29.7538 389.291 26.4688 400.111 26.4688H416.591C426.402 26.4688 429.153 30.1057 426.394 37.9831Z" fill="#1F2227"/>
<path d="M442.015 42.0899H467.09L472.575 26.4609H482.278L467.973 67.2387H458.27L464.247 50.2019H439.173L433.196 67.2387H423.493L437.797 26.4609H447.5L442.015 42.0899Z" fill="#1F2227"/>
<path d="M68.1309 7.41356L62.801 22.8951H48.723C40.7842 22.8951 35.4371 26.7009 32.8454 34.2178L21.0319 68.5217H5.86891C4.13821 68.5217 1.83062 68.1859 0.70265 66.6102C-0.425315 65.0173 0.0138149 62.7355 0.573492 61.0909L18.3196 9.57479C20.5411 3.13419 24.9324 0 31.7518 0H62.8355C64.5748 0 66.8738 0.327171 68.0017 1.91149C69.1297 3.49581 68.6992 5.77758 68.1309 7.41356Z" fill="#1F2227"/>
<path d="M85.0935 32.8901L67.3474 84.4149C65.1259 90.8641 60.7346 93.9983 53.9151 93.9983H22.8401C21.1094 93.9983 18.8018 93.6625 17.6738 92.0868C16.5459 90.4939 16.985 88.2121 17.5447 86.5675L22.8745 71.1032H36.9526C44.9 71.1032 50.2385 67.2888 52.8302 59.7719L64.6437 25.4766H79.7981C81.5374 25.4766 83.8363 25.8038 84.9643 27.3881C86.0923 28.9724 85.6618 31.2541 85.0935 32.8901Z" fill="#1F2227"/>
<path d="M61.9142 25.4766L50.3848 58.9367C48.1634 65.3859 43.772 68.5201 36.9526 68.5201H23.77L35.2908 35.0514C37.5123 28.6108 41.9122 25.4766 48.723 25.4766H61.9142Z" fill="#1F2227"/>
</g>
<defs>
<clipPath id="clip0_2184_749">
<rect width="483" height="94" fill="white"/>
</clipPath>
</defs>
</svg>
