<svg width="1767" height="326" viewBox="0 0 1767 326" fill="none" xmlns="http://www.w3.org/2000/svg">
<path d="M381.242 126.531H414.539V241.363H381.242V126.531ZM397.891 110.523C391.772 110.523 386.792 108.744 382.95 105.187C379.108 101.63 377.187 97.2186 377.187 91.9537C377.187 86.6888 379.108 82.2777 382.95 78.7203C386.792 75.163 391.772 73.3843 397.891 73.3843C404.009 73.3843 408.99 75.0918 412.831 78.5069C416.673 81.9219 418.594 86.1908 418.594 91.3134C418.594 96.8629 416.673 101.487 412.831 105.187C408.99 108.744 404.009 110.523 397.891 110.523Z" fill="#67CDAA"/>
<path d="M512.462 91.9537C525.695 91.9537 537.15 94.1593 546.826 98.5704C556.644 102.982 564.186 109.242 569.451 117.353C574.716 125.464 577.348 135.069 577.348 146.168C577.348 157.124 574.716 166.729 569.451 174.982C564.186 183.093 556.644 189.354 546.826 193.765C537.15 198.034 525.695 200.169 512.462 200.169H482.367V241.363H447.789V91.9537H512.462ZM510.541 171.994C520.928 171.994 528.826 169.789 534.233 165.378C539.64 160.824 542.344 154.421 542.344 146.168C542.344 137.772 539.64 131.369 534.233 126.958C528.826 122.405 520.928 120.128 510.541 120.128H482.367V171.994H510.541Z" fill="#67CDAA"/>
<path d="M631.489 141.686C635.473 136.136 640.809 131.938 647.497 129.093C654.327 126.247 662.153 124.824 670.976 124.824V155.559C667.276 155.275 664.786 155.132 663.505 155.132C653.971 155.132 646.501 157.836 641.094 163.243C635.687 168.508 632.983 176.477 632.983 187.149V241.363H599.686V126.531H631.489V141.686Z" fill="#67CDAA"/>
<path d="M744.373 243.07C732.278 243.07 721.392 240.58 711.716 235.6C702.183 230.477 694.712 223.434 689.305 214.469C683.898 205.505 681.194 195.331 681.194 183.947C681.194 172.563 683.898 162.389 689.305 153.425C694.712 144.46 702.183 137.488 711.716 132.508C721.392 127.385 732.278 124.824 744.373 124.824C756.468 124.824 767.282 127.385 776.816 132.508C786.35 137.488 793.82 144.46 799.227 153.425C804.634 162.389 807.338 172.563 807.338 183.947C807.338 195.331 804.634 205.505 799.227 214.469C793.82 223.434 786.35 230.477 776.816 235.6C767.282 240.58 756.468 243.07 744.373 243.07ZM744.373 215.75C752.91 215.75 759.883 212.904 765.29 207.212C770.84 201.378 773.614 193.623 773.614 183.947C773.614 174.271 770.84 166.587 765.29 160.895C759.883 155.061 752.91 152.144 744.373 152.144C735.835 152.144 728.792 155.061 723.242 160.895C717.693 166.587 714.918 174.271 714.918 183.947C714.918 193.623 717.693 201.378 723.242 207.212C728.792 212.904 735.835 215.75 744.373 215.75Z" fill="#67CDAA"/>
<path d="M899.048 241.363L873.862 206.145L847.822 241.363H811.537L855.719 183.52L813.031 126.531H850.383L874.715 160.042L899.688 126.531H935.119L892.431 182.666L936.827 241.363H899.048Z" fill="#67CDAA"/>
<path d="M1060.51 126.531L1008.64 248.406C1003.38 261.64 996.83 270.96 989.003 276.367C981.319 281.774 971.999 284.478 961.043 284.478C955.066 284.478 949.161 283.553 943.327 281.703C937.493 279.853 932.726 277.292 929.026 274.019L941.193 250.327C943.754 252.604 946.671 254.383 949.944 255.663C953.359 256.944 956.703 257.584 959.975 257.584C964.529 257.584 968.228 256.446 971.074 254.169C973.92 252.035 976.481 248.406 978.758 243.284L979.185 242.217L929.453 126.531H963.817L996.047 204.437L1028.49 126.531H1060.51Z" fill="#67CDAA"/>
<path d="M1176.34 242.43C1165.52 242.43 1155.78 240.011 1147.1 235.173C1138.42 230.192 1131.59 223.362 1126.61 214.682C1121.63 206.002 1119.14 196.184 1119.14 185.227C1119.14 174.271 1121.63 164.452 1126.61 155.772C1131.59 147.092 1138.42 140.333 1147.1 135.495C1155.78 130.657 1165.52 128.238 1176.34 128.238C1187.15 128.238 1196.9 130.657 1205.58 135.495C1214.26 140.333 1221.02 147.092 1225.86 155.772C1230.84 164.452 1233.33 174.271 1233.33 185.227C1233.33 196.184 1230.84 206.002 1225.86 214.682C1221.02 223.362 1214.26 230.192 1205.58 235.173C1196.9 240.011 1187.15 242.43 1176.34 242.43ZM1176.34 228.983C1184.31 228.983 1191.42 227.204 1197.68 223.647C1204.09 219.947 1209.07 214.753 1212.62 208.065C1216.18 201.378 1217.96 193.765 1217.96 185.227C1217.96 176.69 1216.18 169.077 1212.62 162.389C1209.07 155.701 1204.09 150.579 1197.68 147.021C1191.42 143.322 1184.31 141.472 1176.34 141.472C1168.37 141.472 1161.18 143.322 1154.78 147.021C1148.52 150.579 1143.54 155.701 1139.84 162.389C1136.28 169.077 1134.5 176.69 1134.5 185.227C1134.5 193.765 1136.28 201.378 1139.84 208.065C1143.54 214.753 1148.52 219.947 1154.78 223.647C1161.18 227.204 1168.37 228.983 1176.34 228.983Z" fill="#244EB2"/>
<path d="M1321.47 128.238C1335.56 128.238 1346.73 132.365 1354.98 140.618C1363.37 148.729 1367.57 160.61 1367.57 176.263V241.362H1352.42V177.757C1352.42 166.089 1349.5 157.195 1343.67 151.077C1337.83 144.958 1329.51 141.899 1318.69 141.899C1306.6 141.899 1296.99 145.527 1289.88 152.784C1282.91 159.899 1279.42 169.788 1279.42 182.452V241.362H1264.27V129.092H1278.78V149.796C1282.91 142.966 1288.6 137.701 1295.86 134.001C1303.25 130.159 1311.79 128.238 1321.47 128.238Z" fill="#244EB2"/>
<path d="M1408.71 82.9888H1423.87V241.362H1408.71V82.9888Z" fill="#244EB2"/>
<path d="M1466.03 129.092H1481.19V241.362H1466.03V129.092ZM1473.72 104.546C1470.59 104.546 1467.96 103.479 1465.82 101.345C1463.69 99.2103 1462.62 96.649 1462.62 93.6608C1462.62 90.815 1463.69 88.3248 1465.82 86.1904C1467.96 84.056 1470.59 82.9888 1473.72 82.9888C1476.85 82.9888 1479.48 84.056 1481.62 86.1904C1483.75 88.1825 1484.82 90.6015 1484.82 93.4474C1484.82 96.5779 1483.75 99.2103 1481.62 101.345C1479.48 103.479 1476.85 104.546 1473.72 104.546Z" fill="#244EB2"/>
<path d="M1580.56 128.238C1594.64 128.238 1605.81 132.365 1614.07 140.618C1622.46 148.729 1626.66 160.61 1626.66 176.263V241.362H1611.51V177.757C1611.51 166.089 1608.59 157.195 1602.76 151.077C1596.92 144.958 1588.6 141.899 1577.78 141.899C1565.69 141.899 1556.08 145.527 1548.97 152.784C1542 159.899 1538.51 169.788 1538.51 182.452V241.362H1523.36V129.092H1537.87V149.796C1542 142.966 1547.69 137.701 1554.94 134.001C1562.34 130.159 1570.88 128.238 1580.56 128.238Z" fill="#244EB2"/>
<path d="M1765.98 189.923H1672.06C1672.92 201.591 1677.4 211.054 1685.51 218.311C1693.62 225.425 1703.87 228.983 1716.24 228.983C1723.22 228.983 1729.62 227.773 1735.45 225.354C1741.29 222.793 1746.34 219.093 1750.61 214.255L1759.15 224.074C1754.17 230.05 1747.91 234.603 1740.36 237.734C1732.96 240.864 1724.78 242.43 1715.82 242.43C1704.29 242.43 1694.05 240.011 1685.08 235.173C1676.26 230.192 1669.36 223.362 1664.38 214.682C1659.4 206.002 1656.91 196.184 1656.91 185.227C1656.91 174.271 1659.26 164.452 1663.95 155.772C1668.79 147.092 1675.34 140.333 1683.59 135.495C1691.98 130.657 1701.37 128.238 1711.76 128.238C1722.15 128.238 1731.47 130.657 1739.72 135.495C1747.98 140.333 1754.45 147.092 1759.15 155.772C1763.84 164.31 1766.19 174.128 1766.19 185.227L1765.98 189.923ZM1711.76 141.258C1700.95 141.258 1691.84 144.744 1684.44 151.717C1677.18 158.547 1673.06 167.512 1672.06 178.611H1751.68C1750.68 167.512 1746.48 158.547 1739.08 151.717C1731.83 144.744 1722.72 141.258 1711.76 141.258Z" fill="#244EB2"/>
<path d="M1085.42 238.316C1082.69 238.316 1080.39 237.382 1078.52 235.515C1076.66 233.648 1075.72 231.315 1075.72 228.514C1075.72 225.647 1076.66 223.346 1078.52 221.613C1080.39 219.812 1082.69 218.912 1085.42 218.912C1088.16 218.912 1090.46 219.812 1092.33 221.613C1094.19 223.346 1095.13 225.647 1095.13 228.514C1095.13 231.315 1094.19 233.648 1092.33 235.515C1090.46 237.382 1088.16 238.316 1085.42 238.316Z" fill="#244EB2"/>
<g clip-path="url(#clip0)">
<path d="M133.111 324.083L218.755 274.635C223.995 271.603 223.331 266.306 217.288 262.821L134.578 215.184C131.464 213.457 127.987 212.481 124.427 212.336C120.866 212.191 117.321 212.88 114.076 214.348L28.4316 263.658C23.1924 266.689 23.856 271.986 29.8986 275.471L112.609 323.108C115.712 324.857 119.183 325.857 122.744 326.027C126.304 326.196 129.855 325.531 133.111 324.083V324.083Z" fill="url(#paint0_radial)"/>
<path d="M0.000494862 226.092V189.188H82.955L111.771 172.6C115.843 170.768 120.289 169.911 124.753 170.098C129.216 170.286 133.574 171.513 137.478 173.681L164.163 189.083H247.152V226.998C247.186 228.462 246.787 229.904 246.004 231.144C245.221 232.383 244.09 233.365 242.751 233.967L135.522 295.648C131.451 297.489 127.005 298.35 122.539 298.162C118.074 297.975 113.716 296.743 109.815 294.567L6.28757 234.943C1.88662 232.399 -0.209074 229.123 0.000494862 226.092Z" fill="url(#paint1_linear)"/>
<path d="M123.576 170.057C128.387 170.107 133.117 171.302 137.372 173.541L164.162 189.083H247.152V226.998C247.185 228.462 246.786 229.904 246.003 231.144C245.22 232.383 244.089 233.365 242.751 233.967L135.521 295.648C131.834 297.533 127.713 298.41 123.576 298.192V170.057Z" fill="url(#paint2_linear)"/>
<path d="M237.757 189.049H247.153V226.998C247.186 228.462 246.787 229.904 246.004 231.144C245.221 232.383 244.09 233.365 242.752 233.967L237.757 236.86V189.049Z" fill="url(#paint3_linear)"/>
<path d="M133.845 296.449C127.209 298.859 119.919 298.772 113.342 296.205V253.099H133.845V296.449Z" fill="url(#paint4_linear)"/>
<path d="M135.521 257.873L242.751 196.053C249.317 192.255 248.514 185.599 240.899 181.243L137.372 121.618C133.485 119.459 129.145 118.237 124.699 118.05C120.254 117.862 115.826 118.714 111.77 120.538L4.43545 182.323C-2.13105 186.121 -1.3277 192.777 6.28665 197.098L109.814 256.758C113.715 258.931 118.071 260.164 122.535 260.358C126.999 260.551 131.446 259.7 135.521 257.873V257.873Z" fill="url(#paint5_radial)"/>
<path d="M133.565 246.687L223.54 194.938C229.058 191.767 228.36 186.191 222.003 182.532L135.136 132.421C131.872 130.598 128.224 129.566 124.487 129.408C120.749 129.251 117.027 129.973 113.621 131.515L23.7503 183.438C18.2317 186.609 18.9302 192.15 25.2872 195.809L112.049 245.816C115.318 247.626 118.967 248.647 122.703 248.798C126.439 248.95 130.159 248.226 133.565 246.687V246.687Z" fill="url(#paint6_linear)"/>
<path d="M39.4685 235.849C39.5511 237.344 39.9864 238.799 40.739 240.095C41.4916 241.391 42.5403 242.491 43.7996 243.306C46.2096 244.7 48.1307 243.585 48.1307 240.832C48.0294 239.356 47.5854 237.923 46.8337 236.647C46.0821 235.37 45.0433 234.286 43.7996 233.479C41.4245 231.946 39.4685 233.061 39.4685 235.849Z" fill="url(#paint7_radial)"/>
<path d="M25.5314 227.799C25.6195 229.298 26.0569 230.756 26.8088 232.056C27.5606 233.357 28.6062 234.465 29.8625 235.291C32.2725 236.685 34.1936 235.535 34.1936 232.782C34.1165 231.286 33.6836 229.829 32.9305 228.532C32.1773 227.235 31.1257 226.136 29.8625 225.325C27.4874 223.931 25.5314 225.046 25.5314 227.799Z" fill="url(#paint8_linear)"/>
<path d="M11.5969 219.784C11.6851 221.283 12.1225 222.741 12.8743 224.041C13.6262 225.342 14.6718 226.45 15.928 227.277C18.3381 228.636 20.2591 227.52 20.2591 224.767C20.1791 223.267 19.7452 221.806 18.9926 220.504C18.24 219.202 17.19 218.096 15.928 217.275C13.5529 216.056 11.5969 217.031 11.5969 219.784Z" fill="url(#paint9_radial)"/>
<path d="M0.000494862 167.269V130.191H82.955L111.771 113.603C115.843 111.771 120.289 110.914 124.753 111.101C129.216 111.289 133.574 112.516 137.478 114.684L164.163 130.086H247.152V168.001C247.186 169.465 246.787 170.907 246.004 172.147C245.221 173.386 244.09 174.368 242.751 174.97L135.522 236.651C131.451 238.491 127.005 239.353 122.539 239.165C118.074 238.978 113.716 237.746 109.815 235.57L6.28757 175.946C1.88662 173.402 -0.209074 170.161 0.000494862 167.269Z" fill="url(#paint10_linear)"/>
<path d="M123.576 111.094C128.389 111.127 133.123 112.323 137.372 114.579L164.162 130.086H247.152V168.001C247.185 169.465 246.786 170.907 246.003 172.147C245.22 173.386 244.089 174.368 242.751 174.97L135.521 236.651C131.834 238.535 127.713 239.413 123.576 239.194V111.094Z" fill="url(#paint11_linear)"/>
<path d="M237.757 130.052H247.153V168.001C247.186 169.465 246.787 170.907 246.004 172.147C245.221 173.386 244.09 174.368 242.752 174.97L237.757 177.723V130.052Z" fill="url(#paint12_linear)"/>
<path d="M133.845 237.452C127.209 239.862 119.919 239.775 113.342 237.208V194.102H133.845V237.452Z" fill="url(#paint13_linear)"/>
<path d="M135.521 198.806L242.751 137.056C249.317 133.258 248.514 126.602 240.899 122.246L137.372 62.7258C133.49 60.5581 129.155 59.3224 124.711 59.1168C120.267 58.9111 115.836 59.7411 111.77 61.541L4.43545 123.326C-2.13105 127.124 -1.3277 133.78 6.28665 138.101L109.814 197.761C113.72 199.923 118.079 201.144 122.543 201.325C127.007 201.507 131.451 200.644 135.521 198.806V198.806Z" fill="url(#paint14_radial)"/>
<path d="M133.565 187.69L223.54 135.906C229.058 132.735 228.36 127.159 222.003 123.5L135.136 73.5634C131.87 71.7478 128.222 70.7203 124.486 70.5629C120.75 70.4056 117.029 71.1229 113.621 72.6574L23.7503 124.441C18.2317 127.612 18.9302 133.153 25.2872 136.812L112.049 186.818C115.318 188.628 118.967 189.65 122.703 189.801C126.439 189.953 130.159 189.229 133.565 187.69V187.69Z" fill="url(#paint15_linear)"/>
<path d="M39.4685 176.852C39.5511 178.347 39.9864 179.802 40.739 181.098C41.4916 182.394 42.5403 183.494 43.7996 184.309C46.2096 185.703 48.1307 184.588 48.1307 181.835C48.067 180.316 47.6408 178.835 46.8875 177.513C46.1342 176.192 45.0755 175.069 43.7996 174.238C41.4245 172.984 39.4685 174.238 39.4685 176.852Z" fill="url(#paint16_linear)"/>
<path d="M25.5314 168.802C25.6141 170.302 26.0492 171.762 26.8015 173.063C27.5539 174.365 28.6024 175.472 29.8625 176.294C32.2725 177.688 34.1936 176.573 34.1936 173.82C34.122 172.317 33.6916 170.854 32.9382 169.55C32.1849 168.247 31.1304 167.142 29.8625 166.328C27.4874 164.934 25.5314 166.049 25.5314 168.802Z" fill="url(#paint17_linear)"/>
<path d="M11.5969 160.787C11.6851 162.286 12.1225 163.744 12.8743 165.044C13.6262 166.345 14.6718 167.453 15.928 168.279C18.3381 169.638 20.2591 168.523 20.2591 165.77C20.1791 164.27 19.7452 162.809 18.9926 161.507C18.24 160.205 17.19 159.099 15.928 158.278C13.5529 156.815 11.5969 158.034 11.5969 160.787Z" fill="url(#paint18_radial)"/>
<path d="M0.000494862 108.028V71.1938H82.9899L111.771 54.6411C115.838 52.795 120.284 51.9277 124.749 52.1093C129.214 52.2909 133.574 53.5162 137.478 55.6866L164.163 71.0892H247.152V109.004C247.186 110.468 246.787 111.91 246.004 113.15C245.221 114.389 244.09 115.371 242.751 115.973L135.522 177.723C131.452 179.561 127.008 180.424 122.544 180.242C118.08 180.061 113.721 178.84 109.815 176.678L6.28757 116.949C1.88662 114.405 -0.209074 111.164 0.000494862 108.028Z" fill="url(#paint19_linear)"/>
<path d="M123.576 52.2715C128.389 52.3041 133.123 53.4998 137.372 55.7563L164.162 71.0893H247.152V109.004C247.185 110.468 246.786 111.91 246.003 113.15C245.22 114.389 244.089 115.371 242.751 115.973L135.521 177.723C131.834 179.608 127.713 180.486 123.576 180.267V52.2715Z" fill="url(#paint20_linear)"/>
<path d="M237.757 71.0544H247.153V109.004C247.186 110.468 246.787 111.91 246.004 113.15C245.221 114.389 244.09 115.371 242.752 115.973L237.757 118.865V71.0544Z" fill="url(#paint21_linear)"/>
<path d="M133.845 178.455C127.209 180.865 119.919 180.778 113.342 178.211V135.104H133.845V178.455Z" fill="url(#paint22_linear)"/>
<path d="M135.521 139.809L242.751 78.0589C249.317 74.2605 248.514 67.6046 240.899 63.2486L137.372 3.48488C133.471 1.35587 129.126 0.162453 124.682 -0.000857631C120.238 -0.164168 115.818 0.707119 111.77 2.54399L4.43545 64.3289C-2.13105 68.1273 -1.3277 74.7832 6.28665 79.1043L109.814 138.764C113.717 140.934 118.077 142.159 122.543 142.341C127.008 142.522 131.453 141.655 135.521 139.809Z" fill="url(#paint23_radial)"/>
<path d="M6.2864 71.8559L109.814 131.515C113.72 133.678 118.079 134.898 122.543 135.08C127.007 135.261 131.451 134.399 135.521 132.561L242.75 70.7756C244.053 70.0756 245.176 69.086 246.034 67.8833C248.304 71.3681 247.256 75.4452 242.75 78.0588L135.521 139.809C131.453 141.655 127.007 142.522 122.542 142.341C118.077 142.159 113.717 140.934 109.814 138.763L6.2864 79.1042C0.383535 75.6195 -1.3978 70.9499 1.15196 67.2212C2.45769 69.1619 4.2207 70.7533 6.2864 71.8559V71.8559Z" fill="white"/>
<path d="M39.4685 117.855C39.5406 119.372 39.9704 120.85 40.7229 122.17C41.4755 123.49 42.5296 124.615 43.7996 125.452C46.2096 126.811 48.1307 125.696 48.1307 122.943C48.0507 121.442 47.6168 119.981 46.8642 118.679C46.1116 117.377 45.0616 116.271 43.7996 115.45C41.4245 113.987 39.4685 114.997 39.4685 117.855Z" fill="url(#paint24_radial)"/>
<path d="M25.5314 109.805C25.6113 111.306 26.0453 112.767 26.7979 114.068C27.5505 115.37 28.6005 116.477 29.8625 117.297C32.2725 118.691 34.1936 117.576 34.1936 114.823C34.1192 113.321 33.6876 111.858 32.9345 110.555C32.1814 109.253 31.1284 108.147 29.8625 107.331C27.4874 105.937 25.5314 107.052 25.5314 109.805Z" fill="url(#paint25_radial)"/>
<path d="M11.5969 101.79C11.6851 103.289 12.1225 104.747 12.8743 106.047C13.6262 107.348 14.6718 108.456 15.928 109.282C18.3381 110.641 20.2591 109.526 20.2591 106.773C20.1821 105.277 19.7491 103.82 18.996 102.523C18.2429 101.226 17.1913 100.127 15.928 99.3159C13.5529 97.922 11.5969 99.0371 11.5969 101.79Z" fill="url(#paint26_linear)"/>
<path d="M129.234 101.511L179.426 72.6226C182.5 70.8453 182.116 67.7439 178.553 65.653L130.108 37.7749C128.281 36.7662 126.244 36.1969 124.158 36.1122C122.072 36.0275 119.995 36.4298 118.092 37.287L67.8307 66.2106C64.757 67.9878 65.1412 71.0893 68.7039 73.1801L117.149 101.058C118.985 102.081 121.037 102.655 123.137 102.734C125.238 102.812 127.327 102.393 129.234 101.511V101.511Z" fill="url(#paint27_linear)"/>
<path d="M124.38 77.327L131.365 73.3195C131.82 73.0756 131.75 72.6574 131.365 72.3786L124.659 68.5105C124.399 68.3815 124.112 68.3144 123.821 68.3144C123.53 68.3144 123.243 68.3815 122.983 68.5105L115.997 72.518C115.543 72.7619 115.613 73.1801 115.997 73.4589L122.703 77.327C122.964 77.4559 123.251 77.523 123.542 77.523C123.832 77.523 124.119 77.4559 124.38 77.327V77.327Z" fill="url(#paint28_radial)"/>
<path d="M179.358 72.6226L178.624 72.1347L130.179 44.2566C128.355 43.24 126.317 42.6661 124.23 42.5814C122.142 42.4966 120.064 42.9034 118.164 43.7687L67.9717 72.6226C65.1425 70.6014 65.0028 67.8484 67.9717 66.2106L118.164 37.287C120.066 36.4298 122.143 36.0275 124.229 36.1122C126.315 36.1969 128.352 36.7662 130.179 37.7749L178.624 65.653C182.047 67.7439 182.431 70.8453 179.358 72.6226Z" fill="url(#paint29_linear)"/>
<path d="M143.659 149.462C143.659 151.448 145.056 152.249 146.768 151.274C147.67 150.676 148.421 149.876 148.961 148.939C149.5 148.001 149.814 146.952 149.876 145.872C149.876 143.921 148.479 143.119 146.768 144.095C145.87 144.69 145.122 145.484 144.583 146.415C144.043 147.346 143.727 148.389 143.659 149.462Z" fill="url(#paint30_radial)"/>
<path d="M153.299 143.956C153.299 145.942 154.696 146.744 156.407 145.733C157.305 145.138 158.053 144.344 158.593 143.413C159.132 142.482 159.448 141.44 159.516 140.366C159.516 138.415 158.119 137.613 156.407 138.589C155.509 139.184 154.762 139.978 154.222 140.909C153.683 141.84 153.367 142.883 153.299 143.956Z" fill="url(#paint31_radial)"/>
<path d="M143.659 161.066C143.659 163.052 145.056 163.854 146.768 162.843C147.666 162.249 148.414 161.455 148.953 160.524C149.492 159.593 149.808 158.55 149.876 157.477C149.876 155.525 148.479 154.724 146.768 155.699C145.87 156.294 145.122 157.088 144.583 158.019C144.043 158.95 143.727 159.993 143.659 161.066Z" fill="url(#paint32_radial)"/>
<path d="M153.299 155.56C153.299 157.546 154.696 158.348 156.407 157.337C157.305 156.743 158.053 155.949 158.593 155.018C159.132 154.087 159.448 153.044 159.516 151.971C159.516 149.984 158.119 149.183 156.407 150.193C155.509 150.788 154.762 151.582 154.222 152.513C153.683 153.444 153.367 154.487 153.299 155.56Z" fill="url(#paint33_linear)"/>
<path d="M143.659 208.459C143.659 210.445 145.056 211.247 146.768 210.236C147.666 209.641 148.414 208.847 148.953 207.916C149.492 206.985 149.808 205.943 149.876 204.869C149.876 202.918 148.479 202.116 146.768 203.092C145.87 203.687 145.122 204.481 144.583 205.412C144.043 206.343 143.727 207.386 143.659 208.459V208.459Z" fill="url(#paint34_linear)"/>
<path d="M153.299 202.953C153.299 204.939 154.696 205.741 156.407 204.73C157.305 204.135 158.053 203.342 158.593 202.411C159.132 201.48 159.448 200.437 159.516 199.364C159.516 197.377 158.119 196.576 156.407 197.586C155.509 198.181 154.762 198.975 154.222 199.906C153.683 200.837 153.367 201.88 153.299 202.953V202.953Z" fill="url(#paint35_radial)"/>
<path d="M143.659 220.063C143.659 222.049 145.056 222.851 146.768 221.84C147.666 221.246 148.414 220.452 148.953 219.521C149.492 218.59 149.808 217.547 149.876 216.474C149.876 214.522 148.479 213.721 146.768 214.696C145.87 215.291 145.122 216.085 144.583 217.016C144.043 217.947 143.727 218.99 143.659 220.063V220.063Z" fill="url(#paint36_linear)"/>
<path d="M153.299 214.557C153.299 216.509 154.696 217.31 156.407 216.334C157.305 215.74 158.053 214.946 158.593 214.015C159.132 213.084 159.448 212.041 159.516 210.968C159.516 208.981 158.119 208.18 156.407 209.191C155.509 209.785 154.762 210.579 154.222 211.51C153.683 212.441 153.367 213.484 153.299 214.557V214.557Z" fill="url(#paint37_radial)"/>
<path d="M143.659 267.456C143.659 269.442 145.056 270.244 146.768 269.233C147.666 268.639 148.414 267.845 148.953 266.914C149.492 265.983 149.808 264.94 149.876 263.867C149.876 261.915 148.479 261.114 146.768 262.089C145.87 262.684 145.122 263.478 144.583 264.409C144.043 265.34 143.727 266.383 143.659 267.456V267.456Z" fill="url(#paint38_radial)"/>
<path d="M153.299 261.95C153.299 263.901 154.696 264.703 156.407 263.727C157.305 263.133 158.053 262.339 158.593 261.408C159.132 260.477 159.448 259.434 159.516 258.361C159.516 256.374 158.119 255.573 156.407 256.583C155.509 257.178 154.762 257.972 154.222 258.903C153.683 259.834 153.367 260.877 153.299 261.95Z" fill="url(#paint39_linear)"/>
<path d="M143.659 279.06C143.659 281.047 145.056 281.848 146.768 280.837C147.666 280.243 148.414 279.449 148.953 278.518C149.492 277.587 149.808 276.544 149.876 275.471C149.876 273.485 148.479 272.683 146.768 273.694C145.87 274.288 145.122 275.082 144.583 276.013C144.043 276.944 143.727 277.987 143.659 279.06Z" fill="url(#paint40_radial)"/>
<path d="M153.299 273.554C153.299 275.506 154.696 276.307 156.407 275.331C157.305 274.737 158.053 273.943 158.593 273.012C159.132 272.081 159.448 271.038 159.516 269.965C159.516 267.979 158.119 267.177 156.407 268.188C155.509 268.782 154.762 269.576 154.222 270.507C153.683 271.438 153.367 272.481 153.299 273.554V273.554Z" fill="url(#paint41_radial)"/>
</g>
<defs>
<radialGradient id="paint0_radial" cx="0" cy="0" r="1" gradientUnits="userSpaceOnUse" gradientTransform="translate(17127.1 85020.4) scale(125388 72247.1)">
<stop stop-color="#678DDB"/>
<stop offset="1" stop-color="#8AB2DC"/>
</radialGradient>
<linearGradient id="paint1_linear" x1="-0.0137939" y1="234.585" x2="247.154" y2="234.585" gradientUnits="userSpaceOnUse">
<stop stop-color="#193F99"/>
<stop offset="1" stop-color="#688BDD"/>
</linearGradient>
<linearGradient id="paint2_linear" x1="123.576" y1="234.595" x2="247.154" y2="234.595" gradientUnits="userSpaceOnUse">
<stop stop-color="#193F99"/>
<stop offset="1" stop-color="#688BDD"/>
</linearGradient>
<linearGradient id="paint3_linear" x1="246.897" y1="189.049" x2="234.81" y2="189.873" gradientUnits="userSpaceOnUse">
<stop stop-color="#88B8E0"/>
<stop offset="1" stop-color="#6388DA"/>
</linearGradient>
<linearGradient id="paint4_linear" x1="133.283" y1="253.099" x2="107.433" y2="257.177" gradientUnits="userSpaceOnUse">
<stop stop-color="#88B8E0"/>
<stop offset="1" stop-color="#6388DA"/>
</linearGradient>
<radialGradient id="paint5_radial" cx="0" cy="0" r="1" gradientUnits="userSpaceOnUse" gradientTransform="translate(123.593 329.093) rotate(-90) scale(304.888 529.404)">
<stop offset="0.34993" stop-color="#EBF5FF"/>
<stop offset="1" stop-color="#88B8E0"/>
</radialGradient>
<linearGradient id="paint6_linear" x1="221.579" y1="129.387" x2="25.0432" y2="247.722" gradientUnits="userSpaceOnUse">
<stop stop-color="#88B8E0"/>
<stop offset="1" stop-color="#6388DA"/>
</linearGradient>
<radialGradient id="paint7_radial" cx="0" cy="0" r="1" gradientUnits="userSpaceOnUse" gradientTransform="translate(43.7996 249.274) rotate(-90) scale(23.8144 18.5515)">
<stop offset="0.34993" stop-color="#EBF5FF"/>
<stop offset="1" stop-color="#88B8E0"/>
</radialGradient>
<linearGradient id="paint8_linear" x1="33.9559" y1="224.724" x2="23.5198" y2="227.535" gradientUnits="userSpaceOnUse">
<stop stop-color="#88B8E0"/>
<stop offset="1" stop-color="#6388DA"/>
</linearGradient>
<radialGradient id="paint9_radial" cx="0" cy="0" r="1" gradientUnits="userSpaceOnUse" gradientTransform="translate(15.928 233.211) rotate(-90) scale(23.7669 18.5515)">
<stop offset="0.34993" stop-color="#EBF5FF"/>
<stop offset="1" stop-color="#88B8E0"/>
</radialGradient>
<linearGradient id="paint10_linear" x1="-0.0137939" y1="175.588" x2="247.154" y2="175.588" gradientUnits="userSpaceOnUse">
<stop stop-color="#193F99"/>
<stop offset="1" stop-color="#688BDD"/>
</linearGradient>
<linearGradient id="paint11_linear" x1="123.576" y1="175.615" x2="247.154" y2="175.615" gradientUnits="userSpaceOnUse">
<stop stop-color="#193F99"/>
<stop offset="1" stop-color="#688BDD"/>
</linearGradient>
<linearGradient id="paint12_linear" x1="246.897" y1="130.052" x2="234.81" y2="130.878" gradientUnits="userSpaceOnUse">
<stop stop-color="#88B8E0"/>
<stop offset="1" stop-color="#6388DA"/>
</linearGradient>
<linearGradient id="paint13_linear" x1="133.283" y1="194.102" x2="107.433" y2="198.179" gradientUnits="userSpaceOnUse">
<stop stop-color="#88B8E0"/>
<stop offset="1" stop-color="#6388DA"/>
</linearGradient>
<radialGradient id="paint14_radial" cx="0" cy="0" r="1" gradientUnits="userSpaceOnUse" gradientTransform="translate(123.593 270.011) rotate(-90) scale(304.68 529.404)">
<stop offset="0.34993" stop-color="#EBF5FF"/>
<stop offset="1" stop-color="#88B8E0"/>
</radialGradient>
<linearGradient id="paint15_linear" x1="221.579" y1="70.5417" x2="25.1763" y2="188.947" gradientUnits="userSpaceOnUse">
<stop stop-color="#88B8E0"/>
<stop offset="1" stop-color="#6388DA"/>
</linearGradient>
<linearGradient id="paint16_linear" x1="47.8931" y1="173.748" x2="37.4568" y2="176.558" gradientUnits="userSpaceOnUse">
<stop stop-color="#88B8E0"/>
<stop offset="1" stop-color="#6388DA"/>
</linearGradient>
<linearGradient id="paint17_linear" x1="33.9559" y1="165.727" x2="23.5189" y2="168.536" gradientUnits="userSpaceOnUse">
<stop stop-color="#88B8E0"/>
<stop offset="1" stop-color="#6388DA"/>
</linearGradient>
<radialGradient id="paint18_radial" cx="0" cy="0" r="1" gradientUnits="userSpaceOnUse" gradientTransform="translate(15.928 174.266) rotate(-90) scale(23.9958 18.5515)">
<stop offset="0.34993" stop-color="#EBF5FF"/>
<stop offset="1" stop-color="#88B8E0"/>
</radialGradient>
<linearGradient id="paint19_linear" x1="-0.0137939" y1="116.63" x2="247.154" y2="116.63" gradientUnits="userSpaceOnUse">
<stop stop-color="#193F99"/>
<stop offset="1" stop-color="#688BDD"/>
</linearGradient>
<linearGradient id="paint20_linear" x1="123.576" y1="116.74" x2="247.154" y2="116.74" gradientUnits="userSpaceOnUse">
<stop stop-color="#193F99"/>
<stop offset="1" stop-color="#688BDD"/>
</linearGradient>
<linearGradient id="paint21_linear" x1="246.897" y1="71.0544" x2="234.81" y2="71.8788" gradientUnits="userSpaceOnUse">
<stop stop-color="#88B8E0"/>
<stop offset="1" stop-color="#6388DA"/>
</linearGradient>
<linearGradient id="paint22_linear" x1="133.283" y1="135.104" x2="107.433" y2="139.182" gradientUnits="userSpaceOnUse">
<stop stop-color="#88B8E0"/>
<stop offset="1" stop-color="#6388DA"/>
</linearGradient>
<radialGradient id="paint23_radial" cx="0" cy="0" r="1" gradientUnits="userSpaceOnUse" gradientTransform="translate(123.593 211.085) rotate(-90) scale(304.94 529.404)">
<stop offset="0.34993" stop-color="#EBF5FF"/>
<stop offset="1" stop-color="#88B8E0"/>
</radialGradient>
<radialGradient id="paint24_radial" cx="0" cy="0" r="1" gradientUnits="userSpaceOnUse" gradientTransform="translate(43.7996 131.458) rotate(-90) scale(24.086 18.5515)">
<stop offset="0.34993" stop-color="#EBF5FF"/>
<stop offset="1" stop-color="#88B8E0"/>
</radialGradient>
<radialGradient id="paint25_radial" cx="0" cy="0" r="1" gradientUnits="userSpaceOnUse" gradientTransform="translate(29.8625 123.289) rotate(-90) scale(23.9189 18.5515)">
<stop offset="0.34993" stop-color="#EBF5FF"/>
<stop offset="1" stop-color="#88B8E0"/>
</radialGradient>
<linearGradient id="paint26_linear" x1="20.0215" y1="98.7149" x2="9.58729" y2="101.529" gradientUnits="userSpaceOnUse">
<stop stop-color="#88B8E0"/>
<stop offset="1" stop-color="#6388DA"/>
</linearGradient>
<linearGradient id="paint27_linear" x1="178.325" y1="36.1011" x2="68.6124" y2="102.221" gradientUnits="userSpaceOnUse">
<stop stop-color="#88B8E0"/>
<stop offset="1" stop-color="#6388DA"/>
</linearGradient>
<radialGradient id="paint28_radial" cx="0" cy="0" r="1" gradientUnits="userSpaceOnUse" gradientTransform="translate(123.681 81.9675) rotate(-90) scale(19.7218 34.2628)">
<stop offset="0.34993" stop-color="#EBF5FF"/>
<stop offset="1" stop-color="#88B8E0"/>
</radialGradient>
<linearGradient id="paint29_linear" x1="65.7971" y1="54.4914" x2="181.445" y2="54.4914" gradientUnits="userSpaceOnUse">
<stop stop-color="#193F99"/>
<stop offset="1" stop-color="#688BDD"/>
</linearGradient>
<radialGradient id="paint30_radial" cx="0" cy="0" r="1" gradientUnits="userSpaceOnUse" gradientTransform="translate(146.768 155.554) rotate(-90) scale(17.1534 13.3152)">
<stop offset="0.34993" stop-color="#EBF5FF"/>
<stop offset="1" stop-color="#88B8E0"/>
</radialGradient>
<radialGradient id="paint31_radial" cx="0" cy="0" r="1" gradientUnits="userSpaceOnUse" gradientTransform="translate(156.407 150.03) rotate(-90) scale(17.1268 13.3152)">
<stop offset="0.34993" stop-color="#EBF5FF"/>
<stop offset="1" stop-color="#88B8E0"/>
</radialGradient>
<radialGradient id="paint32_radial" cx="0" cy="0" r="1" gradientUnits="userSpaceOnUse" gradientTransform="translate(146.768 167.14) rotate(-90) scale(17.1268 13.3152)">
<stop offset="0.34993" stop-color="#EBF5FF"/>
<stop offset="1" stop-color="#88B8E0"/>
</radialGradient>
<linearGradient id="paint33_linear" x1="159.345" y1="149.756" x2="151.854" y2="151.772" gradientUnits="userSpaceOnUse">
<stop stop-color="#88B8E0"/>
<stop offset="1" stop-color="#6388DA"/>
</linearGradient>
<linearGradient id="paint34_linear" x1="149.706" y1="202.676" x2="142.217" y2="204.697" gradientUnits="userSpaceOnUse">
<stop stop-color="#88B8E0"/>
<stop offset="1" stop-color="#6388DA"/>
</linearGradient>
<radialGradient id="paint35_radial" cx="0" cy="0" r="1" gradientUnits="userSpaceOnUse" gradientTransform="translate(156.407 209.038) rotate(-90) scale(17.173 13.3152)">
<stop offset="0.34993" stop-color="#EBF5FF"/>
<stop offset="1" stop-color="#88B8E0"/>
</radialGradient>
<linearGradient id="paint36_linear" x1="149.706" y1="214.281" x2="142.217" y2="216.301" gradientUnits="userSpaceOnUse">
<stop stop-color="#88B8E0"/>
<stop offset="1" stop-color="#6388DA"/>
</linearGradient>
<radialGradient id="paint37_radial" cx="0" cy="0" r="1" gradientUnits="userSpaceOnUse" gradientTransform="translate(156.407 220.61) rotate(-90) scale(17.1268 13.3152)">
<stop offset="0.34993" stop-color="#EBF5FF"/>
<stop offset="1" stop-color="#88B8E0"/>
</radialGradient>
<radialGradient id="paint38_radial" cx="0" cy="0" r="1" gradientUnits="userSpaceOnUse" gradientTransform="translate(146.768 273.53) rotate(-90) scale(17.1269 13.3152)">
<stop offset="0.34993" stop-color="#EBF5FF"/>
<stop offset="1" stop-color="#88B8E0"/>
</radialGradient>
<linearGradient id="paint39_linear" x1="159.345" y1="256.146" x2="151.857" y2="258.166" gradientUnits="userSpaceOnUse">
<stop stop-color="#88B8E0"/>
<stop offset="1" stop-color="#6388DA"/>
</linearGradient>
<radialGradient id="paint40_radial" cx="0" cy="0" r="1" gradientUnits="userSpaceOnUse" gradientTransform="translate(146.768 285.145) rotate(-90) scale(17.1731 13.3152)">
<stop offset="0.34993" stop-color="#EBF5FF"/>
<stop offset="1" stop-color="#88B8E0"/>
</radialGradient>
<radialGradient id="paint41_radial" cx="0" cy="0" r="1" gradientUnits="userSpaceOnUse" gradientTransform="translate(156.407 279.607) rotate(-90) scale(17.1269 13.3152)">
<stop offset="0.34993" stop-color="#EBF5FF"/>
<stop offset="1" stop-color="#88B8E0"/>
</radialGradient>
<clipPath id="clip0">
<rect width="247.187" height="326" fill="white"/>
</clipPath>
</defs>
</svg>
