<svg width="2688" height="711" viewBox="0 0 2688 711" fill="none" xmlns="http://www.w3.org/2000/svg">
<g clip-path="url(#clip0_102_17)">
<path d="M1131.66 0.275391L1112.47 99.0217H1112.65L1075.38 286.298C1068 307.886 1068.45 314.06 1054.37 326.009C1039.44 337.648 1012.92 335.116 995.022 335.116L977.165 433.24C1105.09 441.147 1146.98 406.321 1158.84 353.328L1211.13 99.1994L1308.63 99.0661L1244.4 432.307H1347.27L1431.23 0.275391H1131.61H1131.66Z" fill="black"/>
<path d="M522.745 434.306H423.555L461.623 237.746L321.21 434.306H259.244L195.012 237.791L156.944 434.306H57.7537L141.841 0.275391H241.165L322.676 266.93L507.554 0.275391H606.877L522.79 434.306H522.745Z" fill="black"/>
<path d="M1507.63 334.76H1674.87C1684.2 334.76 1692.73 331.473 1700.5 324.854C1708.28 318.236 1713.08 310.196 1714.94 300.69C1716.76 291.184 1715.12 283.144 1709.92 276.525C1704.72 269.907 1697.44 266.619 1688.11 266.619L1577.82 267.241L1594.87 167.518H1707.39C1743.46 167.518 1771.76 180.533 1792.23 206.519C1812.71 232.549 1819.37 263.91 1812.22 300.645C1805.07 337.381 1786.19 368.786 1755.63 394.772C1725.02 420.802 1691.71 433.773 1655.64 433.773H1391.12L1475.34 0.275391H1840.21L1820.93 99.3771H1553.38L1507.63 334.76Z" fill="#FDBA01"/>
<path d="M2176.11 433.862H1811.24L1895.55 0.275391H2260.42L2241.14 99.3771H1973.6L1960.36 167.518H2167.1L2147.82 266.619H1941.09L1927.85 334.76H2195.39L2176.11 433.862V433.862Z" fill="#FDBA01"/>
<path d="M2670.11 99.3771H2521.13L2456.09 433.862H2358.81L2423.84 99.3771H2274.86L2294.14 0.275391H2689.39L2670.11 99.3771V99.3771Z" fill="#FDBA01"/>
<path d="M942.872 434.306H570.853L654.985 0.275391H1027L1007.77 99.4659H734.941L721.704 167.651H932.522L913.289 266.842H702.47L689.233 335.027H962.062L942.828 434.217L942.872 434.306Z" fill="black"/>
<path d="M114.583 533.56H42.8463L7.3584 711H48.6765L58.309 662.077H97.8527C150.831 662.077 184.038 633.94 184.038 588.82C184.038 554.093 158.943 533.56 114.583 533.56ZM99.6271 628.617H64.8996L77.3204 567.02H109.513C130.299 567.02 142.466 575.132 142.466 592.369C142.466 615.943 126.75 628.617 99.6271 628.617Z" fill="black"/>
<path d="M316.23 711H357.295L313.695 533.56H273.138L158.309 711H202.162L225.229 672.977H307.865L316.23 711ZM244.24 641.798L286.066 573.357L301.021 641.798H244.24Z" fill="black"/>
<path d="M552.891 588.567C552.891 553.839 527.542 533.56 483.436 533.56H411.192L375.704 711H417.022L426.908 661.317H461.889L489.773 711H533.119L502.193 656.247C533.879 646.361 552.891 622.027 552.891 588.567ZM468.226 628.617H433.245L445.666 567.02H478.112C499.152 567.02 511.319 575.132 511.319 592.369C511.319 615.943 495.349 628.617 468.226 628.617Z" fill="black"/>
<path d="M596.385 711H637.45L666.347 567.02H722.874L729.718 533.56H575.092L568.248 567.02H625.029L596.385 711Z" fill="black"/>
<path d="M873.993 533.56L851.94 644.84L785.78 533.56H751.813L716.325 711H756.883L779.19 599.973L845.349 711H879.063L914.551 533.56H873.993Z" fill="black"/>
<path d="M1083.78 566.513L1090.63 533.56H956.532L921.044 711H1058.43L1065.28 678.047H968.446L976.558 636.982H1059.19L1065.53 605.043H983.148L990.753 566.513H1083.78Z" fill="black"/>
<path d="M1268.29 588.567C1268.29 553.839 1242.95 533.56 1198.84 533.56H1126.6L1091.11 711H1132.43L1142.31 661.317H1177.29L1205.18 711H1248.52L1217.6 656.247C1249.28 646.361 1268.29 622.027 1268.29 588.567ZM1183.63 628.617H1148.65L1161.07 567.02H1193.52C1214.55 567.02 1226.72 575.132 1226.72 592.369C1226.72 615.943 1210.75 628.617 1183.63 628.617Z" fill="black"/>
<path d="M1339.36 714.042C1388.79 714.042 1421.23 690.468 1421.23 653.712C1421.23 599.213 1333.02 614.422 1333.27 585.271C1333.27 572.597 1347.22 563.472 1371.04 563.472C1388.53 563.472 1405.77 568.034 1419.21 577.16L1434.67 545.728C1419.21 535.842 1397.15 530.518 1373.33 530.518C1324.15 530.518 1292.21 554.093 1292.21 590.594C1292.21 647.122 1380.17 631.913 1380.17 660.303C1380.17 673.231 1365.97 681.089 1343.41 681.089C1322.37 681.089 1301.08 674.498 1284.86 662.584L1268.13 694.27C1283.08 705.423 1310.46 714.042 1339.36 714.042Z" fill="black"/>
</g>
<defs>
<clipPath id="clip0_102_17">
<rect width="2687.43" height="710.725" fill="white" transform="translate(0.00732422 0.275391)"/>
</clipPath>
</defs>
</svg>
