<svg xmlns="http://www.w3.org/2000/svg" xmlns:xlink="http://www.w3.org/1999/xlink" zoomAndPan="magnify" preserveAspectRatio="xMinYMin meet" version="1.0" viewBox="72.93 72.7 1255.79 521.23"><defs><g></g><clipPath id="5b39da1736"><path d="M 72.933594 72.699219 L 274 72.699219 L 274 376.242188 L 72.933594 376.242188 Z M 72.933594 72.699219 " clip-rule="nonzero"></path></clipPath><clipPath id="325648e381"><path d="M 593 72.699219 L 795 72.699219 L 795 376.242188 L 593 376.242188 Z M 593 72.699219 " clip-rule="nonzero"></path></clipPath></defs><g clip-path="url(#5b39da1736)"><path fill="#0d15ab" d="M 173.457031 338.289062 C 212.609375 338.289062 216.644531 299.945312 216.644531 233.75 L 216.644531 215.585938 C 216.644531 149.390625 212.609375 111.042969 173.457031 111.042969 C 134.304688 111.042969 130.265625 149.390625 130.265625 215.585938 L 130.265625 233.75 C 130.265625 299.945312 134.304688 338.289062 173.457031 338.289062 Z M 173.457031 376.230469 C 99.1875 376.230469 72.953125 334.65625 72.953125 244.644531 L 72.953125 204.6875 C 72.953125 114.273438 99.1875 72.699219 173.457031 72.699219 C 247.722656 72.699219 273.960938 114.273438 273.960938 204.6875 L 273.960938 244.644531 C 273.960938 334.65625 247.722656 376.230469 173.457031 376.230469 Z M 173.457031 376.230469 " fill-opacity="1" fill-rule="nonzero"></path></g><path fill="#0d15ab" d="M 434.730469 370.984375 L 391.945312 242.222656 C 386.699219 242.628906 381.453125 243.03125 376.203125 243.03125 L 355.214844 243.03125 L 355.214844 370.984375 L 301.128906 370.984375 L 301.128906 78.351562 L 377.820312 78.351562 C 452.085938 78.351562 485.992188 95.304688 485.992188 158.269531 C 485.992188 199.84375 469.847656 219.621094 440.785156 230.519531 L 490.835938 370.984375 Z M 355.214844 209.125 L 377.820312 209.125 C 417.777344 209.125 429.484375 201.054688 429.484375 162.304688 C 429.484375 123.960938 417.777344 115.082031 377.820312 115.082031 L 355.214844 115.082031 Z M 355.214844 209.125 " fill-opacity="1" fill-rule="nonzero"></path><path fill="#0d15ab" d="M 512.511719 78.351562 L 566.597656 78.351562 L 566.597656 370.984375 L 512.511719 370.984375 Z M 512.511719 78.351562 " fill-opacity="1" fill-rule="nonzero"></path><g clip-path="url(#325648e381)"><path fill="#0d15ab" d="M 694.089844 338.289062 C 733.242188 338.289062 737.277344 299.945312 737.277344 233.75 L 737.277344 215.585938 C 737.277344 149.390625 733.242188 111.042969 694.089844 111.042969 C 654.9375 111.042969 650.902344 149.390625 650.902344 215.585938 L 650.902344 233.75 C 650.902344 299.945312 654.9375 338.289062 694.089844 338.289062 Z M 694.089844 376.230469 C 619.820312 376.230469 593.585938 334.65625 593.585938 244.644531 L 593.585938 204.6875 C 593.585938 114.273438 619.820312 72.699219 694.089844 72.699219 C 768.359375 72.699219 794.59375 114.273438 794.59375 204.6875 L 794.59375 244.644531 C 794.59375 334.65625 768.359375 376.230469 694.089844 376.230469 Z M 694.089844 376.230469 " fill-opacity="1" fill-rule="nonzero"></path></g><path fill="#0d15ab" d="M 821.765625 370.984375 L 821.765625 78.351562 L 885.136719 78.351562 L 961.421875 301.15625 L 961.421875 78.351562 L 1010.261719 78.351562 L 1010.261719 370.984375 L 946.488281 370.984375 L 870.605469 148.179688 L 870.605469 370.984375 Z M 821.765625 370.984375 " fill-opacity="1" fill-rule="nonzero"></path><path fill="#0d15ab" d="M 1039.324219 215.988281 L 1321.863281 215.988281 L 1321.863281 233.75 L 1039.324219 233.75 Z M 1039.324219 215.988281 " fill-opacity="1" fill-rule="evenodd"></path><path fill="#0d15ab" d="M 1310.964844 78.753906 L 1328.726562 78.753906 L 1328.726562 371.386719 L 1310.964844 371.386719 Z M 1310.964844 78.753906 " fill-opacity="1" fill-rule="evenodd"></path><path fill="#0d15ab" d="M 1327.570312 218.957031 L 1327.570312 230.375 L 1186.960938 370.984375 L 1164.128906 370.984375 L 1310.445312 224.667969 L 1164.128906 78.351562 L 1186.960938 78.351562 Z M 1327.570312 218.957031 " fill-opacity="1" fill-rule="evenodd"></path><g fill="#ff1096" fill-opacity="1"><g transform="translate(75.184741, 590.67925)"><g><path d="M 14.621094 0 L 57.679688 0 L 57.679688 -77.71875 L 70.40625 -77.71875 C 112.652344 -77.71875 141.085938 -87.738281 141.085938 -137.835938 C 141.085938 -187.933594 112.652344 -196.328125 70.40625 -196.328125 L 14.621094 -196.328125 Z M 57.679688 -106.695312 L 57.679688 -167.621094 L 64.992188 -167.621094 C 89.09375 -167.621094 95.320312 -163.289062 95.320312 -137.023438 C 95.320312 -110.753906 89.09375 -106.695312 64.992188 -106.695312 Z M 57.679688 -106.695312 "></path></g></g></g><g fill="#ff1096" fill-opacity="1"><g transform="translate(232.517214, 590.67925)"><g><path d="M 1.355469 0 L 43.054688 0 L 50.910156 -41.160156 L 95.320312 -41.160156 L 103.445312 0 L 147.3125 0 L 100.195312 -196.328125 L 48.203125 -196.328125 Z M 73.113281 -154.625 L 89.90625 -68.511719 L 56.324219 -68.511719 Z M 73.113281 -154.625 "></path></g></g></g><g fill="#ff1096" fill-opacity="1"><g transform="translate(394.723991, 590.67925)"><g><path d="M 102.359375 0 L 146.773438 0 L 114.546875 -94.238281 C 133.230469 -101.820312 144.0625 -115.359375 144.0625 -142.4375 C 144.0625 -184.953125 121.585938 -196.328125 70.40625 -196.328125 L 14.621094 -196.328125 L 14.621094 0 L 57.679688 0 L 57.679688 -84.488281 L 69.324219 -84.488281 C 71.492188 -84.488281 73.65625 -84.488281 75.824219 -84.757812 Z M 57.679688 -110.753906 L 57.679688 -167.621094 L 70.136719 -167.621094 C 94.238281 -167.621094 99.113281 -161.9375 99.113281 -138.917969 C 99.113281 -115.902344 94.238281 -110.753906 70.136719 -110.753906 Z M 57.679688 -110.753906 "></path></g></g></g><g fill="#ff1096" fill-opacity="1"><g transform="translate(560.992676, 590.67925)"><g><path d="M 43.054688 0 L 86.113281 0 L 86.113281 -164.914062 L 126.191406 -164.914062 L 126.191406 -196.328125 L 2.980469 -196.328125 L 2.980469 -164.914062 L 43.054688 -164.914062 Z M 43.054688 0 "></path></g></g></g><g fill="#ff1096" fill-opacity="1"><g transform="translate(703.70216, 590.67925)"><g><path d="M 14.621094 0 L 52.804688 0 L 52.804688 -141.085938 L 95.320312 0 L 145.148438 0 L 145.148438 -196.328125 L 106.964844 -196.328125 L 106.964844 -55.242188 L 64.449219 -196.328125 L 14.621094 -196.328125 Z M 14.621094 0 "></path></g></g></g><g fill="#ff1096" fill-opacity="1"><g transform="translate(877.011566, 590.67925)"><g><path d="M 14.621094 0 L 122.671875 0 L 122.671875 -31.414062 L 57.679688 -31.414062 L 57.679688 -84.757812 L 116.984375 -84.757812 L 116.984375 -116.171875 L 57.679688 -116.171875 L 57.679688 -164.914062 L 122.671875 -164.914062 L 122.671875 -196.328125 L 14.621094 -196.328125 Z M 14.621094 0 "></path></g></g></g><g fill="#ff1096" fill-opacity="1"><g transform="translate(1019.179472, 590.67925)"><g><path d="M 102.359375 0 L 146.773438 0 L 114.546875 -94.238281 C 133.230469 -101.820312 144.0625 -115.359375 144.0625 -142.4375 C 144.0625 -184.953125 121.585938 -196.328125 70.40625 -196.328125 L 14.621094 -196.328125 L 14.621094 0 L 57.679688 0 L 57.679688 -84.488281 L 69.324219 -84.488281 C 71.492188 -84.488281 73.65625 -84.488281 75.824219 -84.757812 Z M 57.679688 -110.753906 L 57.679688 -167.621094 L 70.136719 -167.621094 C 94.238281 -167.621094 99.113281 -161.9375 99.113281 -138.917969 C 99.113281 -115.902344 94.238281 -110.753906 70.136719 -110.753906 Z M 57.679688 -110.753906 "></path></g></g></g><g fill="#ff1096" fill-opacity="1"><g transform="translate(1185.448179, 590.67925)"><g><path d="M 72.574219 3.25 C 112.378906 3.25 136.210938 -16.519531 136.210938 -56.324219 C 136.210938 -92.339844 113.191406 -104.257812 83.675781 -117.253906 L 64.71875 -125.921875 C 53.886719 -130.523438 49.828125 -137.566406 49.828125 -149.75 C 49.828125 -163.832031 55.511719 -171.683594 67.699219 -171.683594 C 82.59375 -171.683594 90.175781 -164.101562 90.175781 -141.085938 L 90.175781 -140 L 132.148438 -140 L 132.148438 -141.085938 C 132.148438 -184.953125 106.964844 -200.117188 67.96875 -200.117188 C 32.226562 -200.117188 8.394531 -183.871094 8.394531 -148.394531 C 8.394531 -115.089844 23.832031 -101.820312 54.429688 -88.007812 L 71.21875 -80.425781 C 85.300781 -73.925781 93.964844 -66.074219 93.964844 -50.910156 C 93.964844 -32.765625 86.925781 -25.726562 72.574219 -25.726562 C 54.699219 -25.726562 49.015625 -36.828125 49.015625 -62.554688 L 49.015625 -64.449219 L 6.5 -64.449219 L 6.5 -62.554688 C 6.5 -20.851562 25.996094 3.25 72.574219 3.25 Z M 72.574219 3.25 "></path></g></g></g></svg>
