<svg width="1134" height="279" viewBox="0 0 1134 279" fill="none" xmlns="http://www.w3.org/2000/svg">
<g clip-path="url(#clip0_39_24)">
<path d="M287.927 127.84L326.008 10.6347C328.069 4.29208 333.98 -0.0026279 340.649 -0.0026279H810.252C820.711 -0.0026279 828.125 10.2027 824.893 20.1494L786.812 137.355C784.751 143.699 778.84 147.994 772.171 147.994H302.568C292.109 147.994 284.695 137.788 287.927 127.84Z" fill="#100F0D"/>
<path d="M783.18 19.1372C777.001 19.1372 771.524 23.1158 769.615 28.9945L737.873 126.681H767.871L796.747 37.8092C799.743 28.5932 792.872 19.1372 783.18 19.1372Z" fill="white"/>
<path d="M575.644 21.3132L481.651 21.3345L473.093 47.6705H538.819L454.191 104.753C447.711 109.124 446.443 118.145 451.467 124.133C455.799 129.295 463.329 130.353 468.917 126.585L554.328 68.9745L535.579 126.681H565.576L592.345 44.2945C596.031 32.9492 587.572 21.3105 575.644 21.3132Z" fill="#4DC2A6"/>
<path d="M344.947 21.3132L310.711 126.681H340.708L366.379 47.6758H427.659L385.928 75.8238C379.891 79.8958 377.869 88.1438 381.88 94.2225C385.987 100.444 394.249 101.977 400.261 97.9225L452.251 62.8558C470.819 50.3305 461.948 21.3318 439.549 21.3398L344.947 21.3132Z" fill="white"/>
<path d="M722.427 21.3399L627.825 21.3132L593.589 126.681H623.587L649.257 47.6759H710.537L656.301 84.2586L689.843 124.256C694.175 129.42 701.705 130.477 707.293 126.708C713.773 122.337 715.041 113.316 710.016 107.328L695.268 89.7412L735.128 62.8559C753.697 50.3306 744.825 21.3319 722.427 21.3399Z" fill="white"/>
<path d="M731.328 169.584L636.487 169.606L627.852 196.178H694.171L608.779 253.777C602.24 258.188 600.96 267.29 606.029 273.332C610.401 278.541 618 279.609 623.637 275.807L709.82 217.676L690.901 275.903H721.169L748.18 192.773C751.9 181.325 743.364 169.582 731.328 169.584Z" fill="#4DC2A6"/>
<path d="M963.747 249.371L904.167 249.364L909.231 233.779H951.752C957.511 233.779 962.613 230.071 964.393 224.595C967.183 216.008 960.784 207.197 951.755 207.196L917.871 207.189L921.429 196.236H989.648C995.407 196.236 1000.51 192.53 1002.29 187.052C1005.08 178.466 998.68 169.656 989.651 169.654L899.804 169.636L865.259 275.955H895.527H963.744C969.503 275.955 974.607 272.247 976.385 266.77C979.176 258.183 972.776 249.373 963.747 249.371Z" fill="#100F0D"/>
<path d="M1125.22 196.225L1133.86 169.636H1040.13C1029.9 169.636 1020.83 176.225 1017.66 185.959L1007.92 215.942C1004.69 225.887 1012.1 236.089 1022.56 236.089H1082L1077.69 249.366H997.063L988.423 275.955H1078.62C1090.96 275.955 1101.89 268.009 1105.71 256.273L1112.99 233.87C1116.9 221.842 1107.93 209.5 1095.28 209.5H1040.28L1044.6 196.225H1125.22Z" fill="#100F0D"/>
<path d="M433.317 167.44C427.083 167.44 421.555 171.455 419.628 177.385L387.6 275.955H417.869L447.007 186.282C450.029 176.982 443.096 167.44 433.317 167.44Z" fill="#100F0D"/>
<path d="M598.425 167.44C592.189 167.44 586.663 171.455 584.736 177.385L552.708 275.955H582.976L612.113 186.282C615.136 176.982 608.204 167.44 598.425 167.44Z" fill="#100F0D"/>
<path d="M386.657 196.236C392.416 196.236 397.52 192.53 399.299 187.052C402.089 178.466 395.689 169.656 386.66 169.654L296.813 169.636L262.268 275.955H292.536L303.113 243.403H355.561C361.32 243.403 366.424 239.695 368.203 234.219C370.993 225.632 364.593 216.821 355.564 216.82L311.753 216.811L318.439 196.236H386.657Z" fill="#100F0D"/>
<path d="M261.941 196.237C267.699 196.237 272.803 192.53 274.581 187.052C277.372 178.466 270.972 169.656 261.944 169.654L172.096 169.636L137.551 275.955H167.819L178.396 243.403H230.845C236.603 243.403 241.707 239.696 243.485 234.219C246.276 225.632 239.876 216.821 230.848 216.82L187.036 216.811L193.721 196.237H261.941Z" fill="#100F0D"/>
<path d="M882.495 169.637H771.988L763.276 196.226H803.52L783.02 259.4C779.999 268.7 786.931 278.242 796.709 278.242C802.945 278.242 808.472 274.227 810.399 268.296L833.789 196.226H873.784L882.495 169.637Z" fill="#100F0D"/>
<path d="M58.1027 234.292L86.149 199.859H86.4896L91.7552 234.292H58.1027ZM108.635 180.913C107.937 177.105 106.364 174.273 103.91 172.419C101.456 170.564 98.1282 169.636 93.9318 169.636C89.7334 169.636 86.1984 170.339 83.3303 171.741C80.4604 173.145 77.6511 175.5 74.9031 178.808L3.54431 262.559C1.07973 265.468 -0.0973555 268.123 0.00629038 270.528C0.11254 272.933 1.28285 274.839 3.51827 276.243C5.75368 277.644 8.74431 278.347 12.4881 278.347C16.0036 278.347 19.1052 277.695 21.7912 276.392C24.4735 275.091 26.7927 273.185 28.7459 270.678L41.0792 255.492H94.8355L96.4079 266.47C97.1588 270.678 98.5626 273.711 100.62 275.565C102.676 277.419 105.975 278.347 110.514 278.347C113.688 278.347 116.499 277.745 118.944 276.543C121.386 275.34 123.183 273.512 124.334 271.054C125.482 268.6 125.689 265.618 124.95 262.108L108.635 180.913Z" fill="#100F0D"/>
<path d="M526.065 249.371L478.589 249.366L499.087 186.282C502.109 176.982 495.176 167.44 485.397 167.44C479.163 167.44 473.635 171.455 471.708 177.385L439.681 275.955H469.949H526.063C531.821 275.955 536.924 272.247 538.704 266.77C541.493 258.183 535.095 249.373 526.065 249.371Z" fill="#100F0D"/>
</g>
<defs>
<clipPath id="clip0_39_24">
<rect width="1133.85" height="278.347" fill="white"/>
</clipPath>
</defs>
</svg>
