<svg width="648" height="252" viewBox="0 0 648 252" fill="none" xmlns="http://www.w3.org/2000/svg"><path d="M176.157 23.2705C176.157 34.7857 166.438 44.4823 154.897 44.4823C143.356 44.4823 133.637 34.7857 133.637 23.2705C133.637 11.7553 143.356 2.05824 154.897 2.05824C167.045 2.05824 176.157 11.7553 176.157 23.2705Z" fill="#FF2400"/><path d="M133.637 61.4524C133.637 56.6038 137.889 52.3615 142.748 52.3615H167.045C171.905 52.3615 176.157 56.6038 176.157 61.4524V159.634H134.244L133.637 61.4524Z" fill="#FF2400"/><path d="M316.471 70.5432C316.471 65.6946 320.724 61.4524 325.584 61.4524H379.036C383.896 61.4524 388.147 65.6946 388.147 70.5432V89.3312C388.147 94.1795 383.896 98.422 379.036 98.422H325.584C320.724 98.422 316.471 94.1795 316.471 89.3312V70.5432Z" fill="#FF2400"/><path d="M304.93 59.6339C304.93 27.5128 278.204 2.05824 246.011 2.05824C213.817 2.05824 187.698 27.5128 187.091 59.0281V159.634H230.825V60.2402C230.825 51.1494 238.114 43.8765 246.618 43.8765C255.731 43.8765 262.412 51.1494 262.412 60.2402V159.634H304.323V155.998L304.93 59.6339Z" fill="#FF2400"/><path d="M46.7755 159.634H4.86328V65.6946C4.86328 48.1188 9.11531 34.1794 18.2266 23.2702C23.6933 16.6036 30.375 11.755 38.2716 8.1186C46.7755 4.48219 54.6722 2.66415 63.176 2.66415C80.184 2.66415 94.1545 8.11861 105.696 19.6338C117.237 31.149 122.703 45.0884 122.703 61.4519C122.703 77.8156 117.237 91.755 105.696 103.27C94.1545 114.785 80.7914 120.846 64.9983 120.846C62.5686 120.846 58.924 120.846 54.6722 120.24V74.1791C57.7091 75.9976 60.7463 77.2097 63.7834 77.2097C68.0355 77.2097 71.6799 75.3913 74.717 72.3612C77.7542 69.3308 79.5765 65.0883 79.5765 60.846C79.5765 55.9975 77.7542 52.361 74.717 49.3309C71.6799 46.3005 68.0355 44.4823 63.176 44.4823C52.2424 44.4823 46.7755 51.7552 46.7755 66.9065V159.634Z" fill="#FF2400"/><path d="M529.071 159.634H571.589V66.9065C571.589 51.7552 577.056 44.4823 587.991 44.4823C592.851 44.4823 596.494 46.3005 599.532 49.3309C602.568 52.361 604.39 55.9975 604.39 60.846C604.39 65.0883 602.568 69.3308 599.532 72.3612C596.494 75.3913 592.851 77.2097 588.598 77.2097C585.56 77.2097 582.524 75.9976 579.485 74.1791V120.24C583.738 120.846 587.384 120.846 589.812 120.846C605.607 120.846 618.97 114.785 630.509 103.27C642.05 91.755 647.518 77.8156 647.518 61.4519C647.518 45.0884 642.05 31.149 630.509 19.6338C618.97 8.11861 604.997 2.66415 587.991 2.66415C579.485 2.66415 571.589 4.48219 563.086 8.1186C555.19 11.755 548.509 16.6036 543.042 23.2702C533.929 34.1794 529.678 48.1188 529.678 65.6946L529.071 159.634Z" fill="#FF2400"/><path d="M399.688 102.664V7.51271L400.296 5.69464H444.031V101.452C444.031 110.543 450.712 117.816 459.825 117.816C468.328 117.816 475.617 110.543 475.617 101.452V5.69464H517.53V102.058C517.53 134.18 490.801 159.634 458.608 159.634C426.415 159.634 400.296 134.18 399.688 102.664Z" fill="#FF2400"/><path d="M171.186 203.605L164.454 220.436H177.845L171.186 203.605Z" fill="#00CFA6"/><path d="M106.458 214.088H111.859C117.63 214.088 120.811 211.282 120.811 206.263C120.811 201.317 117.778 198.586 111.859 198.586H106.458V214.088Z" fill="#00CFA6"/><path d="M228.668 198.29H233.551C238.656 198.29 241.764 200.874 241.764 205.377C241.764 209.88 238.582 212.39 233.477 212.39H228.668V198.29Z" fill="#00CFA6"/><path d="M474.823 198.29H479.706C484.811 198.29 487.919 200.874 487.919 205.377C487.919 209.88 484.737 212.39 479.632 212.39H474.823V198.29Z" fill="#00CFA6"/><path fill-rule="evenodd" clip-rule="evenodd" d="M648 177.454H2.31201V215.635C2.31201 235.317 18.3029 251.272 38.0287 251.272H612.283C632.009 251.272 648 235.317 648 215.635V177.454ZM556.035 224.791C556.035 233.575 549.524 239.186 539.315 239.186C530.067 239.186 524.592 235.273 522.446 227.227L530.362 224.274C531.99 229.368 534.728 231.287 539.758 231.287C544.346 231.287 547.231 228.925 547.231 225.086C547.231 221.469 545.233 219.476 537.539 217.557C528.143 215.195 523.778 210.839 523.778 203.015C523.778 195.042 529.623 189.654 539.315 189.654C547.083 189.654 552.114 192.902 554.333 199.471L546.491 202.719C545.529 199.25 543.088 197.552 538.945 197.552C534.95 197.552 532.434 199.471 532.508 202.498C532.582 205.967 534.654 207.518 542.866 209.732C552.04 212.242 556.035 216.745 556.035 224.791ZM194.343 238.3H185.021L180.878 227.965H161.42L157.277 238.3H148.103L169.114 189.801H173.11L194.343 238.3ZM112.081 190.613C123.475 190.613 129.616 196.297 129.616 205.967C129.69 215.711 123.253 221.912 112.007 221.986H106.458V238.3H97.3584V190.613H112.081ZM242.282 238.3H252.343L241.32 218.295C247.165 216.081 250.79 211.209 250.79 204.639C250.79 195.854 244.575 190.613 234.513 190.613H219.568V238.3H228.668V219.476H232.368L242.282 238.3ZM274.015 190.613H312.413V199.102H297.69V238.3H288.664V199.102H274.015V190.613ZM369.378 190.613V220.657L342.596 190.17H338.526V238.3H347.257V208.108L374.039 238.669H378.034V190.613H369.378ZM418.378 217.852V230.401H437.318V238.3H409.278V190.613H436.579V198.512H418.378V209.88H434.803V217.852H418.378ZM488.436 238.3H498.498L487.475 218.295C493.319 216.081 496.945 211.209 496.945 204.639C496.945 195.854 490.73 190.613 480.668 190.613H465.723V238.3H474.823V219.476H478.522L488.436 238.3Z" fill="#00CFA6"/></svg>