<?xml version="1.0" encoding="UTF-8"?>
<!DOCTYPE svg PUBLIC "-//W3C//DTD SVG 1.1//EN" "http://www.w3.org/Graphics/SVG/1.1/DTD/svg11.dtd">
<!-- Creator: CorelDRAW 2020 (64-Bit) -->
<svg xmlns="http://www.w3.org/2000/svg" xml:space="preserve" width="2000px" height="417px" version="1.1" style="shape-rendering:geometricPrecision; text-rendering:geometricPrecision; image-rendering:optimizeQuality; fill-rule:evenodd; clip-rule:evenodd"
viewBox="0 0 807.407 164.181"
 xmlns:xlink="http://www.w3.org/1999/xlink"
 xmlns:xodm="http://www.corel.com/coreldraw/odm/2003">
 <defs>
  <style type="text/css">
   <![CDATA[
    .fil3 {fill:#FF4600}
    .fil2 {fill:#FF7D00}
    .fil1 {fill:#FFC800}
    .fil0 {fill:#232323;fill-rule:nonzero}
   ]]>
  </style>
 </defs>
 <g id="Layer_x0020_1">
  <metadata id="CorelCorpID_0Corel-Layer"/>
  <g id="_1940541959136">
   <path class="fil0" d="M632.08 18.098l2.912 0 0 140.268 -2.912 0 0 -140.268zm23.849 26.812l0 11.416 -3.846 0 0 -29.196 10.765 0c3.195,0 5.694,0.812 7.508,2.451 1.813,1.626 2.718,3.789 2.718,6.482 0,2.829 -0.886,5.014 -2.658,6.548 -1.772,1.534 -4.309,2.299 -7.609,2.299l-6.878 0zm0 -3.163l6.919 0c2.058,0 3.633,-0.486 4.729,-1.458 1.096,-0.965 1.642,-2.365 1.642,-4.201 0,-1.737 -0.546,-3.128 -1.642,-4.173 -1.096,-1.041 -2.601,-1.584 -4.509,-1.623l-7.139 0 0 11.455zm35.684 14.579c-0.212,-0.425 -0.384,-1.184 -0.52,-2.28 -1.725,1.794 -3.786,2.69 -6.174,2.69 -2.143,0 -3.893,-0.603 -5.265,-1.813 -1.366,-1.213 -2.051,-2.744 -2.051,-4.599 0,-2.261 0.854,-4.017 2.572,-5.265 1.718,-1.251 4.134,-1.873 7.247,-1.873l3.607 0 0 -1.706c0,-1.292 -0.384,-2.324 -1.156,-3.099 -0.781,-0.766 -1.921,-1.15 -3.429,-1.15 -1.328,0 -2.436,0.337 -3.332,1.001 -0.898,0.67 -1.343,1.476 -1.343,2.419l-3.728 0c0,-1.079 0.381,-2.127 1.149,-3.14 0.772,-1.007 1.814,-1.807 3.135,-2.395 1.314,-0.587 2.756,-0.883 4.338,-0.883 2.499,0 4.455,0.623 5.875,1.877 1.413,1.245 2.153,2.969 2.2,5.157l0 9.988c0,1.991 0.261,3.572 0.769,4.751l0 0.32 -3.894 0zm-6.154 -2.753c1.162,0 2.264,-0.298 3.306,-0.908 1.048,-0.604 1.8,-1.397 2.264,-2.363l0 -4.49 -2.899 0c-4.548,0 -6.818,1.343 -6.818,4.027 0,1.168 0.384,2.086 1.156,2.743 0.781,0.664 1.775,0.991 2.991,0.991zm22.935 -2.68l5.049 -16.25 3.969 0 -8.72 25.021c-1.356,3.607 -3.496,5.408 -6.44,5.408l-0.696 -0.06 -1.384 -0.261 0 -3.004 1 0.08c1.258,0 2.239,-0.251 2.934,-0.759 0.709,-0.505 1.283,-1.436 1.741,-2.785l0.819 -2.198 -7.739 -21.442 4.052 0 5.415 16.25zm-47.724 38.72c-3.296,-0.949 -5.7,-2.121 -7.206,-3.502 -1.505,-1.382 -2.257,-3.093 -2.257,-5.126 0,-2.299 0.924,-4.201 2.756,-5.706 1.842,-1.506 4.23,-2.261 7.167,-2.261 2.004,0 3.799,0.39 5.364,1.162 1.575,0.775 2.788,1.842 3.649,3.21 0.861,1.363 1.292,2.855 1.292,4.472l-3.864 0c0,-1.766 -0.562,-3.157 -1.687,-4.17 -1.121,-1.003 -2.708,-1.512 -4.754,-1.512 -1.895,0 -3.375,0.416 -4.436,1.252 -1.067,0.841 -1.594,2 -1.594,3.483 0,1.191 0.498,2.204 1.512,3.027 1.006,0.822 2.724,1.575 5.154,2.258 2.423,0.686 4.325,1.438 5.694,2.257 1.368,0.823 2.381,1.779 3.045,2.884 0.664,1.096 0.994,2.388 0.994,3.871 0,2.369 -0.924,4.265 -2.766,5.688 -1.848,1.426 -4.313,2.137 -7.399,2.137 -2.004,0 -3.878,-0.384 -5.618,-1.15 -1.731,-0.775 -3.074,-1.829 -4.017,-3.163 -0.947,-1.333 -1.41,-2.855 -1.41,-4.55l3.868 0c0,1.759 0.648,3.147 1.956,4.166 1.299,1.019 3.039,1.534 5.221,1.534 2.032,0 3.588,-0.416 4.668,-1.245 1.089,-0.829 1.629,-1.956 1.629,-3.382 0,-1.429 -0.505,-2.537 -1.505,-3.319 -0.997,-0.781 -2.82,-1.552 -5.456,-2.315zm21.27 -13.925l0 5.256 4.046 0 0 2.874 -4.046 0 0 13.449c0,0.87 0.181,1.518 0.543,1.956 0.356,0.432 0.969,0.651 1.839,0.651 0.432,0 1.023,-0.083 1.766,-0.238l0 3.004c-0.978,0.26 -1.921,0.397 -2.846,0.397 -1.657,0 -2.908,-0.499 -3.75,-1.509 -0.842,-0.997 -1.261,-2.419 -1.261,-4.261l0 -13.449 -3.957 0 0 -2.874 3.957 0 0 -5.256 3.709 0zm7.844 15.898c0,-2.128 0.416,-4.037 1.251,-5.736 0.836,-1.702 1.998,-3.01 3.491,-3.934 1.486,-0.924 3.191,-1.382 5.1,-1.382 2.956,0 5.344,1.02 7.173,3.065 1.82,2.048 2.731,4.77 2.731,8.164l0 0.261c0,2.115 -0.406,4.011 -1.213,5.687 -0.806,1.677 -1.965,2.985 -3.471,3.922 -1.499,0.937 -3.229,1.404 -5.179,1.404 -2.944,0 -5.326,-1.02 -7.145,-3.068 -1.829,-2.045 -2.738,-4.757 -2.738,-8.123l0 -0.26zm3.732 0.431c0,2.404 0.552,4.338 1.667,5.796 1.115,1.461 2.613,2.185 4.484,2.185 1.883,0 3.379,-0.74 4.49,-2.217 1.109,-1.48 1.661,-3.547 1.661,-6.208 0,-2.382 -0.559,-4.306 -1.689,-5.783 -1.131,-1.48 -2.63,-2.217 -4.503,-2.217 -1.83,0 -3.306,0.724 -4.427,2.182 -1.124,1.458 -1.683,3.544 -1.683,6.262zm32.191 -7.767c-0.562,-0.095 -1.172,-0.143 -1.82,-0.143 -2.438,0 -4.087,1.032 -4.957,3.106l0 15.411 -3.709 0 0 -21.68 3.608 0 0.06 2.499c1.219,-1.937 2.944,-2.909 5.173,-2.909 0.727,0 1.277,0.096 1.645,0.28l0 3.436zm13.084 18.787c-2.935,0 -5.332,-0.966 -7.18,-2.896 -1.842,-1.937 -2.763,-4.516 -2.763,-7.755l0 -0.683c0,-2.15 0.41,-4.074 1.229,-5.764 0.822,-1.689 1.972,-3.017 3.452,-3.969 1.476,-0.959 3.08,-1.436 4.804,-1.436 2.82,0 5.008,0.931 6.577,2.785 1.559,1.861 2.347,4.522 2.347,7.987l0 1.547 -14.7 0c0.054,2.134 0.676,3.858 1.874,5.173 1.197,1.314 2.718,1.972 4.566,1.972 1.305,0 2.414,-0.267 3.325,-0.8 0.912,-0.534 1.702,-1.239 2.388,-2.115l2.268 1.765c-1.823,2.792 -4.554,4.189 -8.187,4.189zm-0.458 -19.464c-1.498,0 -2.753,0.547 -3.772,1.642 -1.013,1.096 -1.642,2.626 -1.883,4.598l10.87 0 0 -0.279c-0.111,-1.896 -0.616,-3.36 -1.528,-4.401 -0.911,-1.042 -2.14,-1.56 -3.687,-1.56zm-66.088 39.318l-9.384 0 0 26.034 -3.826 0 0 -26.034 -9.362 0 0 -3.163 22.572 0 0 3.163zm13.944 7.656c-0.558,-0.095 -1.168,-0.139 -1.819,-0.139 -2.436,0 -4.087,1.032 -4.954,3.105l0 15.412 -3.709 0 0 -21.68 3.604 0 0.064 2.496c1.216,-1.937 2.943,-2.909 5.173,-2.909 0.727,0 1.273,0.095 1.641,0.283l0 3.432zm17.228 18.378c-0.212,-0.422 -0.384,-1.185 -0.52,-2.277 -1.725,1.791 -3.786,2.687 -6.174,2.687 -2.144,0 -3.893,-0.601 -5.262,-1.814 -1.372,-1.21 -2.055,-2.744 -2.055,-4.598 0,-2.258 0.855,-4.017 2.573,-5.262 1.718,-1.254 4.134,-1.877 7.25,-1.877l3.604 0 0 -1.705c0,-1.293 -0.381,-2.325 -1.156,-3.1 -0.778,-0.765 -1.921,-1.149 -3.43,-1.149 -1.327,0 -2.435,0.336 -3.331,1 -0.895,0.67 -1.34,1.48 -1.34,2.423l-3.731 0c0,-1.083 0.384,-2.131 1.149,-3.141 0.775,-1.006 1.813,-1.807 3.135,-2.394 1.314,-0.591 2.759,-0.886 4.337,-0.886 2.5,0 4.456,0.622 5.872,1.877 1.42,1.245 2.157,2.969 2.207,5.16l0 9.984c0,1.995 0.258,3.573 0.766,4.751l0 0.321 -3.894 0zm-6.154 -2.75c1.162,0 2.267,-0.302 3.306,-0.912 1.048,-0.6 1.8,-1.397 2.264,-2.359l0 -4.49 -2.903 0c-4.541,0 -6.814,1.34 -6.814,4.023 0,1.172 0.384,2.09 1.155,2.744 0.782,0.667 1.772,0.994 2.992,0.994zm19.654 -18.93l0.117 2.715c1.658,-2.086 3.827,-3.128 6.495,-3.128 4.585,0 6.9,2.588 6.942,7.761l0 14.332 -3.71 0 0 -14.344c-0.015,-1.56 -0.371,-2.719 -1.076,-3.465 -0.699,-0.746 -1.791,-1.121 -3.277,-1.121 -1.198,0 -2.258,0.321 -3.17,0.959 -0.902,0.641 -1.616,1.486 -2.121,2.525l0 15.446 -3.709 0 0 -21.68 3.509 0zm32.823 15.926c0,-1.001 -0.378,-1.782 -1.136,-2.328 -0.753,-0.556 -2.065,-1.032 -3.948,-1.439 -1.877,-0.393 -3.366,-0.883 -4.471,-1.441 -1.099,-0.563 -1.915,-1.226 -2.442,-2.007 -0.534,-0.772 -0.794,-1.696 -0.794,-2.766 0,-1.779 0.753,-3.284 2.251,-4.51 1.506,-1.232 3.43,-1.848 5.771,-1.848 2.458,0 4.455,0.638 5.982,1.902 1.534,1.274 2.3,2.896 2.3,4.875l-3.732 0c0,-1.02 -0.432,-1.896 -1.292,-2.636 -0.864,-0.734 -1.95,-1.102 -3.258,-1.102 -1.356,0 -2.411,0.295 -3.17,0.883 -0.765,0.591 -1.143,1.356 -1.143,2.309 0,0.895 0.356,1.565 1.061,2.022 0.714,0.455 1.991,0.893 3.839,1.302 1.855,0.416 3.354,0.912 4.506,1.487 1.147,0.574 1.998,1.27 2.55,2.08 0.556,0.806 0.836,1.791 0.836,2.963 0,1.937 -0.772,3.49 -2.328,4.661 -1.544,1.169 -3.557,1.757 -6.034,1.757 -1.74,0 -3.271,-0.308 -4.614,-0.925 -1.334,-0.616 -2.382,-1.47 -3.134,-2.572 -0.753,-1.102 -1.137,-2.299 -1.137,-3.579l3.709 0c0.07,1.239 0.568,2.223 1.499,2.95 0.924,0.724 2.156,1.086 3.677,1.086 1.401,0 2.531,-0.279 3.379,-0.847 0.848,-0.569 1.273,-1.328 1.273,-2.277zm11.395 5.754l0 -18.806 -3.43 0 0 -2.874 3.43 0 0 -2.226c0,-2.325 0.622,-4.126 1.87,-5.399 1.239,-1.267 2.995,-1.902 5.268,-1.902 0.855,0 1.706,0.114 2.547,0.34l-0.2 2.997c-0.629,-0.114 -1.299,-0.177 -2.004,-0.177 -1.203,0 -2.134,0.349 -2.785,1.054 -0.657,0.705 -0.987,1.712 -0.987,3.026l0 2.287 4.636 0 0 2.874 -4.636 0 0 18.806 -3.709 0zm22.004 0.41c-2.938,0 -5.332,-0.963 -7.181,-2.893 -1.841,-1.938 -2.765,-4.516 -2.765,-7.755l0 -0.686c0,-2.147 0.412,-4.071 1.232,-5.761 0.822,-1.693 1.972,-3.017 3.448,-3.969 1.48,-0.96 3.081,-1.439 4.805,-1.439 2.82,0 5.011,0.93 6.577,2.785 1.562,1.864 2.35,4.525 2.35,7.987l0 1.549 -14.7 0c0.054,2.134 0.676,3.859 1.873,5.174 1.198,1.314 2.716,1.968 4.567,1.968 1.305,0 2.414,-0.263 3.325,-0.8 0.911,-0.533 1.702,-1.238 2.388,-2.115l2.264 1.769c-1.819,2.791 -4.55,4.186 -8.183,4.186zm-0.461 -19.464c-1.499,0 -2.75,0.549 -3.769,1.645 -1.013,1.092 -1.642,2.626 -1.883,4.598l10.87 0 0 -0.282c-0.111,-1.893 -0.616,-3.36 -1.528,-4.402 -0.911,-1.038 -2.143,-1.559 -3.69,-1.559zm24.729 0.676c-0.562,-0.095 -1.172,-0.139 -1.823,-0.139 -2.436,0 -4.084,1.032 -4.954,3.105l0 15.412 -3.709 0 0 -21.68 3.607 0 0.061 2.496c1.216,-1.937 2.944,-2.909 5.173,-2.909 0.727,0 1.273,0.095 1.645,0.283l0 3.432zm-481.837 -103.252c10.772,0 20.134,1.8 28.088,5.398 3.983,1.801 7.511,3.986 10.585,6.548 3.077,2.566 5.697,5.516 7.856,8.841 2.16,3.325 3.779,6.958 4.856,10.896 1.08,3.935 1.62,8.171 1.62,12.699 0,4.472 -0.54,8.67 -1.62,12.592 -1.08,3.925 -2.699,7.567 -4.852,10.918 -2.157,3.35 -4.78,6.313 -7.86,8.882 -3.071,2.563 -6.602,4.735 -10.588,6.507 -7.955,3.541 -17.316,5.313 -28.085,5.313l-23.738 0 0 28.958c0,2.382 -1.94,4.326 -4.322,4.326l-20.454 0c-2.379,0 -4.322,-1.944 -4.322,-4.326 0.006,-37.739 0.073,-75.485 0.006,-113.224 0,-1.191 0.422,-2.217 1.264,-3.061 0.841,-0.842 1.867,-1.267 3.058,-1.267l48.508 0zm-1.553 64.668c8.254,0 14.513,-1.765 18.771,-5.3 2.112,-1.746 3.697,-3.868 4.754,-6.351 1.058,-2.499 1.588,-5.376 1.588,-8.635 0,-3.315 -0.53,-6.237 -1.591,-8.764 -1.057,-2.512 -2.639,-4.65 -4.751,-6.396 -2.121,-1.759 -4.738,-3.084 -7.847,-3.963 -3.137,-0.889 -6.78,-1.337 -10.924,-1.337l-22.185 0 0 40.746 22.185 0zm111.957 59.28c-4.792,0 -9.511,-0.33 -14.154,-0.978 -4.642,-0.651 -9.209,-1.629 -13.687,-2.928 -4.477,-1.302 -8.526,-2.801 -12.134,-4.493 -2.496,-1.175 -4.789,-2.446 -6.865,-3.808 -1.791,-1.172 -2.449,-3.442 -1.569,-5.392 2.134,-4.722 4.268,-9.457 6.392,-14.183 0.531,-1.172 1.445,-1.981 2.681,-2.359 1.232,-0.375 2.442,-0.219 3.537,0.457 1.55,0.956 3.179,1.861 4.881,2.706 3.049,1.508 6.345,2.836 9.883,3.976 7.066,2.28 14.135,3.42 21.207,3.42 7.821,0 13.585,-1.15 17.285,-3.446 1.819,-1.13 3.182,-2.442 4.081,-3.925 0.889,-1.47 1.333,-3.134 1.333,-4.982 0,-1.353 -0.26,-2.589 -0.781,-3.7 -0.524,-1.115 -1.318,-2.118 -2.375,-3.014 -1.086,-0.921 -2.334,-1.756 -3.732,-2.496 -1.403,-0.743 -2.972,-1.4 -4.696,-1.966 -1.753,-0.574 -3.811,-1.178 -6.161,-1.803 -2.372,-0.635 -5.046,-1.293 -8.016,-1.979 -4.601,-1.089 -8.793,-2.188 -12.575,-3.283 -3.773,-1.096 -7.139,-2.192 -10.089,-3.29 -2.972,-1.109 -5.742,-2.557 -8.298,-4.338 -2.553,-1.775 -4.897,-3.894 -7.028,-6.348 -2.15,-2.471 -3.76,-5.358 -4.833,-8.648 -1.07,-3.277 -1.604,-6.961 -1.604,-11.044 0,-7.127 1.931,-13.589 5.789,-19.375 3.859,-5.786 9.664,-10.372 17.409,-13.751 3.868,-1.683 8.162,-2.95 12.874,-3.788 4.703,-0.842 9.832,-1.261 15.383,-1.261 3.871,0 7.707,0.232 11.496,0.696 3.782,0.46 7.529,1.156 11.235,2.083 3.703,0.924 7.181,2.054 10.426,3.388 2.147,0.88 4.189,1.852 6.126,2.906 1.94,1.054 2.769,3.376 1.94,5.421 -1.94,4.785 -3.884,9.574 -5.83,14.357 -0.473,1.159 -1.318,1.981 -2.49,2.416 -1.172,0.439 -2.35,0.372 -3.468,-0.19 -4.344,-2.201 -8.695,-3.919 -13.036,-5.151 -5.519,-1.562 -11.045,-2.347 -16.573,-2.347 -3.868,0 -7.228,0.315 -10.074,0.937 -2.813,0.613 -5.125,1.534 -6.932,2.757 -1.788,1.209 -3.131,2.61 -4.02,4.201 -0.886,1.578 -1.328,3.353 -1.328,5.322 0,3.894 2.045,6.796 6.132,8.702 2.118,0.99 4.821,1.978 8.092,2.966 3.296,0.994 7.145,1.975 11.531,2.943 4.607,1.09 8.799,2.188 12.582,3.284 3.775,1.096 7.138,2.191 10.089,3.29 2.975,1.108 5.744,2.54 8.294,4.29 2.554,1.753 4.9,3.827 7.028,6.215 2.15,2.417 3.763,5.262 4.836,8.53 1.071,3.245 1.604,6.913 1.604,10.997 0,7.015 -1.959,13.42 -5.878,19.209 -1.956,2.893 -4.408,5.491 -7.345,7.784 -2.925,2.283 -6.339,4.274 -10.238,5.961 -3.897,1.686 -8.209,2.953 -12.932,3.791 -4.719,0.839 -9.857,1.261 -15.405,1.261zm93.062 -100.026l-34.309 0c-2.376,0 -4.322,-1.941 -4.322,-4.322l0 -15.278c0,-2.382 1.943,-4.322 4.322,-4.322l97.714 0c2.379,0 4.322,1.943 4.322,4.322l0 15.278c0,2.378 -1.946,4.322 -4.322,4.322l-34.306 0 0 93.63c0,2.379 -1.947,4.326 -4.325,4.326l-20.451 0c-2.379,0 -4.323,-1.944 -4.323,-4.326l0 -93.63z"/>
   <g>
    <path class="fil1" d="M244.905 72.589l-87.171 87.171c-5.891,5.891 -15.507,5.891 -21.397,0l-10.588 -10.587 -36.186 -36.187c-5.891,-5.891 -5.891,-15.503 0,-21.394l76.583 -76.584 10.588 -10.588c5.894,-5.89 15.503,-5.89 21.394,0l46.777 46.775c5.891,5.89 5.891,15.503 0,21.394z"/>
    <path class="fil2" d="M202.333 72.589l-87.172 87.171c-5.89,5.891 -15.506,5.891 -21.397,0l-10.588 -10.591 -36.183 -36.183c-5.891,-5.891 -5.894,-15.503 0,-21.394l76.581 -76.584 10.591 -10.591c5.89,-5.89 15.5,-5.887 21.394,0l46.774 46.778c5.891,5.89 5.891,15.5 0,21.394z"/>
    <path class="fil3" d="M159.76 72.589l-87.171 87.171c-5.891,5.891 -15.504,5.891 -21.398,0l-46.771 -46.774c-5.893,-5.891 -5.893,-15.503 0,-21.394l87.172 -87.175c5.891,-5.89 15.5,-5.89 21.394,0l46.774 46.778c5.891,5.89 5.891,15.5 0,21.394z"/>
   </g>
  </g>
 </g>
</svg>
