<svg xmlns="http://www.w3.org/2000/svg" xmlns:xlink="http://www.w3.org/1999/xlink" zoomAndPan="magnify" preserveAspectRatio="xMidYMid meet" version="1.0" viewBox="82.45 140.77 203.78 89.01"><defs><g></g><clipPath id="bc99a628b2"><path d="M 160 140.765625 L 197 140.765625 L 197 198 L 160 198 Z M 160 140.765625 " clip-rule="nonzero"></path></clipPath><clipPath id="fb1fba7f24"><path d="M 159 151 L 212.402344 151 L 212.402344 206 L 159 206 Z M 159 151 " clip-rule="nonzero"></path></clipPath></defs><g fill="#2c3d4f" fill-opacity="1"><g transform="translate(80.648735, 198.283541)"><g><path d="M 37.65625 -28.6875 C 37.65625 -32.640625 34.421875 -35.859375 30.484375 -35.859375 L 1.796875 -35.859375 L 1.796875 0 L 8.96875 0 L 8.96875 -14.34375 L 13.171875 -14.34375 L 26.453125 -1.078125 C 27.171875 -0.359375 28.0625 0 29.046875 0 L 37.65625 0 L 37.65625 -7.171875 L 30.484375 -7.171875 L 23.3125 -14.34375 L 30.484375 -14.34375 C 34.421875 -14.34375 37.65625 -17.578125 37.65625 -21.515625 Z M 30.484375 -28.6875 L 30.484375 -21.515625 L 8.96875 -21.515625 L 8.96875 -28.6875 Z M 30.484375 -28.6875 "></path></g></g></g><g fill="#2c3d4f" fill-opacity="1"><g transform="translate(120.100668, 198.283541)"><g><path d="M 37.65625 -35.859375 L 8.96875 -35.859375 C 5.015625 -35.859375 1.796875 -32.640625 1.796875 -28.6875 L 1.796875 -7.171875 C 1.796875 -3.234375 5.015625 0 8.96875 0 L 37.65625 0 L 37.65625 -7.171875 L 8.96875 -7.171875 L 8.96875 -14.34375 L 37.65625 -14.34375 L 37.65625 -21.515625 L 8.96875 -21.515625 L 8.96875 -28.6875 L 37.65625 -28.6875 Z M 37.65625 -35.859375 "></path></g></g></g><g fill="#2c3d4f" fill-opacity="1"><g transform="translate(159.55732, 198.283541)"><g></g></g></g><g fill="#2c3d4f" fill-opacity="1"><g transform="translate(179.283286, 198.283541)"><g></g></g></g><g fill="#2c3d4f" fill-opacity="1"><g transform="translate(199.011612, 198.283541)"><g><path d="M 37.65625 0 L 37.65625 -7.171875 L 8.96875 -7.171875 L 8.96875 -28.6875 L 37.65625 -28.6875 L 37.65625 -35.859375 L 8.96875 -35.859375 C 5.015625 -35.859375 1.796875 -32.640625 1.796875 -28.6875 L 1.796875 -7.171875 C 1.796875 -3.234375 5.015625 0 8.96875 0 Z M 37.65625 0 "></path></g></g></g><g fill="#2c3d4f" fill-opacity="1"><g transform="translate(238.463546, 198.283541)"><g><path d="M 30.484375 -21.515625 L 8.96875 -21.515625 L 8.96875 -35.859375 L 1.796875 -35.859375 L 1.796875 0 L 8.96875 0 L 8.96875 -14.34375 L 30.484375 -14.34375 L 30.484375 0 L 37.65625 0 L 37.65625 -35.859375 L 30.484375 -35.859375 Z M 30.484375 -21.515625 "></path></g></g></g><g fill="#2c3d4f" fill-opacity="1"><g transform="translate(166.072458, 229.779735)"><g><path d="M 19.265625 -18.34375 L 4.59375 -18.34375 C 2.5625 -18.34375 0.921875 -16.703125 0.921875 -14.6875 L 0.921875 -3.671875 C 0.921875 -1.65625 2.5625 0 4.59375 0 L 19.265625 0 L 19.265625 -3.671875 L 4.59375 -3.671875 L 4.59375 -7.34375 L 19.265625 -7.34375 L 19.265625 -11.015625 L 4.59375 -11.015625 L 4.59375 -14.6875 L 19.265625 -14.6875 Z M 19.265625 -18.34375 "></path></g></g></g><g fill="#2c3d4f" fill-opacity="1"><g transform="translate(186.24999, 229.779735)"><g><path d="M 19.265625 -18.34375 L 4.59375 -18.34375 C 2.5625 -18.34375 0.921875 -16.703125 0.921875 -14.6875 L 0.921875 0 L 4.59375 0 L 4.59375 -7.34375 L 19.265625 -7.34375 L 19.265625 -11.015625 L 4.59375 -11.015625 L 4.59375 -14.6875 L 19.265625 -14.6875 Z M 19.265625 -18.34375 "></path></g></g></g><g fill="#2c3d4f" fill-opacity="1"><g transform="translate(206.427522, 229.779735)"><g><path d="M 19.265625 -18.34375 L 4.59375 -18.34375 C 2.5625 -18.34375 0.921875 -16.703125 0.921875 -14.6875 L 0.921875 0 L 4.59375 0 L 4.59375 -7.34375 L 19.265625 -7.34375 L 19.265625 -11.015625 L 4.59375 -11.015625 L 4.59375 -14.6875 L 19.265625 -14.6875 Z M 19.265625 -18.34375 "></path></g></g></g><g fill="#2c3d4f" fill-opacity="1"><g transform="translate(226.605054, 229.779735)"><g><path d="M 19.265625 -18.34375 L 4.59375 -18.34375 C 2.5625 -18.34375 0.921875 -16.703125 0.921875 -14.6875 L 0.921875 -3.671875 C 0.921875 -1.65625 2.5625 0 4.59375 0 L 19.265625 0 L 19.265625 -3.671875 L 4.59375 -3.671875 L 4.59375 -7.34375 L 19.265625 -7.34375 L 19.265625 -11.015625 L 4.59375 -11.015625 L 4.59375 -14.6875 L 19.265625 -14.6875 Z M 19.265625 -18.34375 "></path></g></g></g><g fill="#2c3d4f" fill-opacity="1"><g transform="translate(246.782586, 229.779735)"><g><path d="M 19.265625 0 L 19.265625 -3.671875 L 4.59375 -3.671875 L 4.59375 -14.6875 L 19.265625 -14.6875 L 19.265625 -18.34375 L 4.59375 -18.34375 C 2.5625 -18.34375 0.921875 -16.703125 0.921875 -14.6875 L 0.921875 -3.671875 C 0.921875 -1.65625 2.5625 0 4.59375 0 Z M 19.265625 0 "></path></g></g></g><g fill="#2c3d4f" fill-opacity="1"><g transform="translate(266.960118, 229.779735)"><g><path d="M 19.265625 -18.34375 L 0.921875 -18.34375 L 0.921875 -14.6875 L 8.25 -14.6875 L 8.25 0 L 11.921875 0 L 11.921875 -14.6875 L 19.265625 -14.6875 Z M 19.265625 -18.34375 "></path></g></g></g><g clip-path="url(#bc99a628b2)"><path fill="#ffde59" d="M 196.894531 163.035156 L 190.484375 166.332031 L 185.886719 153.6875 L 181.191406 140.777344 L 176.496094 153.6875 L 160.707031 197.125 C 163.945312 192.84375 169.550781 187.160156 175.863281 181.257812 L 181.191406 166.601562 L 183.976562 174.261719 C 188.375 170.328125 192.847656 166.464844 196.894531 163.035156 " fill-opacity="1" fill-rule="nonzero"></path></g><g clip-path="url(#fb1fba7f24)"><path fill="#2c3d4f" d="M 172.941406 195.953125 C 171.960938 193.953125 177.535156 188.855469 184.707031 181.328125 C 191.152344 174.558594 200.625 164.96875 212.703125 151.476562 C 212.710938 151.464844 212.699219 151.449219 212.6875 151.457031 C 211.269531 152.597656 195.421875 165.351562 181.460938 178.082031 C 169.203125 189.261719 158.398438 200.421875 160.117188 203.667969 C 161.589844 206.453125 175.394531 206.96875 198.328125 188.078125 C 198.34375 188.070312 198.332031 188.046875 198.316406 188.054688 C 196.609375 188.90625 174.78125 199.703125 172.941406 195.953125 " fill-opacity="1" fill-rule="nonzero"></path></g></svg>
