<svg width="402" height="99" viewBox="0 0 402 99" fill="none" xmlns="http://www.w3.org/2000/svg">
<path d="M90.7556 96.9717H68.4823L52.8498 71.4457H17.9217V96.9717H0V49.734H61.2672C64.4346 49.734 67.1454 48.371 69.3986 45.642C71.6497 42.9141 72.7757 39.631 72.7757 35.7927C72.7757 31.9075 71.6497 28.6014 69.3986 25.8724C67.1454 23.1455 64.4346 21.7805 61.2672 21.7805H0V-0.000102695L61.2672 0.068789C65.3128 0.068789 69.1115 1.01738 72.6623 2.91256C79.9145 6.79778 85.1635 13.1334 88.4082 21.9193C89.9728 26.5434 90.7556 31.1685 90.7556 35.7927C90.7556 40.3699 89.9728 44.972 88.4082 49.5951C85.2779 58.1514 80.2005 64.3941 73.1772 68.3243L90.7556 96.9717Z" fill="#F84925"/>
<path d="M190 51.25H189.25V52V61.8286V62.5786H190H205.353V95V95.75H206.103H216.066H216.816V95V62.5786H227.796H228.291L228.486 62.1235L232.69 52.2949L233.137 51.25H232H190Z" fill="#F84925" stroke="#F84925" stroke-width="1.5"/>
<path d="M172.955 51.25H172.205V52V78.711L152.653 51.5617L152.429 51.25H152.045H142H141.25V52V95V95.75H142H152.045H152.795V95V68.289L172.347 95.4383L172.571 95.75H172.955H183H183.75V95V52V51.25H183H172.955Z" fill="#F84925" stroke="#F84925" stroke-width="1.5"/>
<path d="M134.75 85.2329V84.4829H134H107.671V78.6114H127.239H127.989V77.8614V68.0329V67.2829H127.239H107.671V62.5786H133.376H134.126V61.8286V52V51.25H133.376H97H96.25V52V95V95.75H97H134H134.75V95V85.2329Z" fill="#F84925" stroke="#F84925" stroke-width="1.5"/>
<mask id="path-5-outside-1_1299_169" maskUnits="userSpaceOnUse" x="311" y="47.5625" width="42" height="51" fill="black">
<rect fill="white" x="311" y="47.5625" width="42" height="51"/>
<path fill-rule="evenodd" clip-rule="evenodd" d="M338.632 86.6638C338.665 86.6639 338.697 86.664 338.73 86.664C338.773 86.664 338.816 86.6639 338.859 86.6635L349.424 86.6535C348.813 87.9771 349.137 89.2016 349.429 90.3051C349.808 91.7395 350.134 92.9694 348.281 93.9462C344.828 95.7668 340.873 96.7084 336.667 96.7084C330.075 96.7084 324.049 94.3229 319.717 89.9912C315.386 85.6596 313 79.6957 313 73.1041C313 66.5752 315.386 60.6113 319.717 56.2797C324.049 51.948 330.075 49.5625 336.667 49.5625C340.873 49.5625 344.828 50.5042 348.281 52.3247C350.194 53.3333 350.092 54.6116 349.972 56.1062C349.887 57.1732 349.793 58.3505 350.417 59.6185H339.35C339.148 59.6108 338.941 59.6069 338.73 59.6069C338.516 59.6069 338.305 59.6108 338.095 59.6185H336.353V59.7755C329.602 60.7578 325.044 65.9494 325.044 73.1669C325.044 80.3279 329.602 85.5138 336.353 86.4955V86.6659L338.632 86.6638Z"/>
</mask>
<path fill-rule="evenodd" clip-rule="evenodd" d="M338.632 86.6638C338.665 86.6639 338.697 86.664 338.73 86.664C338.773 86.664 338.816 86.6639 338.859 86.6635L349.424 86.6535C348.813 87.9771 349.137 89.2016 349.429 90.3051C349.808 91.7395 350.134 92.9694 348.281 93.9462C344.828 95.7668 340.873 96.7084 336.667 96.7084C330.075 96.7084 324.049 94.3229 319.717 89.9912C315.386 85.6596 313 79.6957 313 73.1041C313 66.5752 315.386 60.6113 319.717 56.2797C324.049 51.948 330.075 49.5625 336.667 49.5625C340.873 49.5625 344.828 50.5042 348.281 52.3247C350.194 53.3333 350.092 54.6116 349.972 56.1062C349.887 57.1732 349.793 58.3505 350.417 59.6185H339.35C339.148 59.6108 338.941 59.6069 338.73 59.6069C338.516 59.6069 338.305 59.6108 338.095 59.6185H336.353V59.7755C329.602 60.7578 325.044 65.9494 325.044 73.1669C325.044 80.3279 329.602 85.5138 336.353 86.4955V86.6659L338.632 86.6638Z" fill="#F84925"/>
<path d="M338.632 86.6638L338.64 85.1638L338.631 85.1638L338.632 86.6638ZM338.859 86.6635L338.857 85.1635L338.848 85.1636L338.859 86.6635ZM349.424 86.6535L350.786 87.2823L351.77 85.1513L349.423 85.1535L349.424 86.6535ZM349.429 90.3051L347.979 90.6887L347.979 90.6887L349.429 90.3051ZM348.281 93.9462L348.981 95.2731L348.981 95.2731L348.281 93.9462ZM319.717 89.9912L318.657 91.0519L318.657 91.0519L319.717 89.9912ZM319.717 56.2797L318.657 55.219L318.657 55.219L319.717 56.2797ZM348.281 52.3247L348.981 50.9979L348.981 50.9979L348.281 52.3247ZM349.972 56.1062L348.477 55.9869L348.477 55.9869L349.972 56.1062ZM350.417 59.6185V61.1185H352.827L351.763 58.9563L350.417 59.6185ZM339.35 59.6185L339.293 61.1174L339.321 61.1185H339.35V59.6185ZM338.095 59.6185V61.1185H338.122L338.15 61.1175L338.095 59.6185ZM336.353 59.6185V58.1185H334.853V59.6185H336.353ZM336.353 59.7755L336.569 61.2599L337.853 61.073V59.7755H336.353ZM336.353 86.4955H337.853V85.1979L336.569 85.0111L336.353 86.4955ZM336.353 86.6659H334.853V88.1673L336.355 88.1659L336.353 86.6659ZM338.624 88.1637C338.659 88.1639 338.694 88.164 338.73 88.164V85.164C338.7 85.164 338.67 85.164 338.64 85.1638L338.624 88.1637ZM338.73 88.164C338.777 88.164 338.824 88.1639 338.87 88.1635L338.848 85.1636C338.808 85.1639 338.769 85.164 338.73 85.164V88.164ZM349.423 85.1535L338.857 85.1635L338.86 88.1635L349.426 88.1535L349.423 85.1535ZM348.062 86.0248C347.197 87.8981 347.699 89.6313 347.979 90.6887L350.879 89.9216C350.575 88.7719 350.429 88.0561 350.786 87.2823L348.062 86.0248ZM347.979 90.6887C348.078 91.0626 348.149 91.3373 348.19 91.5864C348.23 91.8282 348.227 91.9666 348.213 92.0475C348.203 92.1073 348.185 92.1545 348.132 92.2195C348.068 92.2984 347.918 92.4418 347.581 92.6194L348.981 95.2731C350.201 94.6296 350.97 93.7352 351.171 92.5471C351.339 91.5547 351.045 90.5486 350.879 89.9216L347.979 90.6887ZM347.581 92.6194C344.36 94.3177 340.648 95.2084 336.667 95.2084V98.2084C341.098 98.2084 345.296 97.2159 348.981 95.2731L347.581 92.6194ZM336.667 95.2084C330.439 95.2084 324.805 92.9577 320.778 88.9306L318.657 91.0519C323.293 95.6881 329.712 98.2084 336.667 98.2084V95.2084ZM320.778 88.9306C316.748 84.9007 314.5 79.3279 314.5 73.1041H311.5C311.5 80.0636 314.023 86.4185 318.657 91.0519L320.778 88.9306ZM314.5 73.1041C314.5 66.9452 316.747 61.3716 320.778 57.3404L318.657 55.219C314.024 59.8511 311.5 66.2052 311.5 73.1041H314.5ZM320.778 57.3404C324.805 53.3133 330.439 51.0625 336.667 51.0625V48.0625C329.712 48.0625 323.293 50.5828 318.657 55.219L320.778 57.3404ZM336.667 51.0625C340.648 51.0625 344.36 51.9533 347.581 53.6516L348.981 50.9979C345.296 49.0551 341.098 48.0625 336.667 48.0625V51.0625ZM347.581 53.6516C348.268 54.0134 348.402 54.3059 348.458 54.4827C348.553 54.7854 348.542 55.1701 348.477 55.9869L351.468 56.2256C351.522 55.5477 351.622 54.5459 351.32 53.5836C350.978 52.4955 350.207 51.6445 348.981 50.9979L347.581 53.6516ZM348.477 55.9869C348.393 57.0387 348.246 58.6024 349.071 60.2808L351.763 58.9563C351.341 58.0985 351.381 57.3077 351.468 56.2256L348.477 55.9869ZM339.35 61.1185H350.417V58.1185H339.35V61.1185ZM339.408 58.1196C339.186 58.1111 338.96 58.1069 338.73 58.1069V61.1069C338.923 61.1069 339.111 61.1105 339.293 61.1174L339.408 58.1196ZM338.73 58.1069C338.498 58.1069 338.268 58.1111 338.039 58.1196L338.15 61.1175C338.341 61.1105 338.534 61.1069 338.73 61.1069V58.1069ZM336.353 61.1185H338.095V58.1185H336.353V61.1185ZM337.853 59.7755V59.6185H334.853V59.7755H337.853ZM336.137 58.2911C328.632 59.3831 323.544 65.2215 323.544 73.1669H326.544C326.544 66.6773 330.572 62.1324 336.569 61.2599L336.137 58.2911ZM323.544 73.1669C323.544 81.0607 328.637 86.8892 336.137 87.9799L336.569 85.0111C330.568 84.1384 326.544 79.5952 326.544 73.1669H323.544ZM337.853 86.6659V86.4955H334.853V86.6659H337.853ZM338.631 85.1638L336.352 85.1659L336.355 88.1659L338.633 88.1638L338.631 85.1638Z" fill="#F84925" mask="url(#path-5-outside-1_1299_169)"/>
<path d="M354.865 85H336.865V98.1512H354.865V85Z" fill="#F84925"/>
<path d="M354.818 48.0586H336.865V61.1512H354.865L354.818 48.0586Z" fill="#F84925"/>
<mask id="path-9-outside-2_1299_169" maskUnits="userSpaceOnUse" x="358" y="47.5625" width="42" height="51" fill="black">
<rect fill="white" x="358" y="47.5625" width="42" height="51"/>
<path fill-rule="evenodd" clip-rule="evenodd" d="M385.632 86.6638C385.665 86.6639 385.697 86.664 385.73 86.664C385.773 86.664 385.816 86.6639 385.859 86.6635L396.424 86.6535C395.813 87.9771 396.137 89.2016 396.429 90.3051C396.808 91.7395 397.134 92.9694 395.281 93.9462C391.828 95.7668 387.873 96.7084 383.667 96.7084C377.075 96.7084 371.049 94.3229 366.717 89.9912C362.386 85.6596 360 79.6957 360 73.1041C360 66.5752 362.386 60.6113 366.717 56.2797C371.049 51.948 377.075 49.5625 383.667 49.5625C387.873 49.5625 391.828 50.5042 395.281 52.3247C397.194 53.3333 397.092 54.6116 396.972 56.1062C396.887 57.1732 396.793 58.3505 397.417 59.6185H386.35C386.148 59.6108 385.941 59.6069 385.73 59.6069C385.516 59.6069 385.305 59.6108 385.095 59.6185H383.353V59.7755C376.602 60.7578 372.044 65.9494 372.044 73.1669C372.044 80.3279 376.602 85.5138 383.353 86.4955V86.6659L385.632 86.6638Z"/>
</mask>
<path fill-rule="evenodd" clip-rule="evenodd" d="M385.632 86.6638C385.665 86.6639 385.697 86.664 385.73 86.664C385.773 86.664 385.816 86.6639 385.859 86.6635L396.424 86.6535C395.813 87.9771 396.137 89.2016 396.429 90.3051C396.808 91.7395 397.134 92.9694 395.281 93.9462C391.828 95.7668 387.873 96.7084 383.667 96.7084C377.075 96.7084 371.049 94.3229 366.717 89.9912C362.386 85.6596 360 79.6957 360 73.1041C360 66.5752 362.386 60.6113 366.717 56.2797C371.049 51.948 377.075 49.5625 383.667 49.5625C387.873 49.5625 391.828 50.5042 395.281 52.3247C397.194 53.3333 397.092 54.6116 396.972 56.1062C396.887 57.1732 396.793 58.3505 397.417 59.6185H386.35C386.148 59.6108 385.941 59.6069 385.73 59.6069C385.516 59.6069 385.305 59.6108 385.095 59.6185H383.353V59.7755C376.602 60.7578 372.044 65.9494 372.044 73.1669C372.044 80.3279 376.602 85.5138 383.353 86.4955V86.6659L385.632 86.6638Z" fill="#F84925"/>
<path d="M385.632 86.6638L385.64 85.1638L385.631 85.1638L385.632 86.6638ZM385.859 86.6635L385.857 85.1635L385.848 85.1636L385.859 86.6635ZM396.424 86.6535L397.786 87.2823L398.77 85.1513L396.423 85.1535L396.424 86.6535ZM396.429 90.3051L394.979 90.6887L394.979 90.6887L396.429 90.3051ZM395.281 93.9462L395.981 95.2731L395.981 95.2731L395.281 93.9462ZM366.717 89.9912L365.657 91.0519L365.657 91.0519L366.717 89.9912ZM366.717 56.2797L365.657 55.219L365.657 55.219L366.717 56.2797ZM395.281 52.3247L395.981 50.9979L395.981 50.9979L395.281 52.3247ZM396.972 56.1062L395.477 55.9869L395.477 55.9869L396.972 56.1062ZM397.417 59.6185V61.1185H399.827L398.763 58.9563L397.417 59.6185ZM386.35 59.6185L386.293 61.1174L386.321 61.1185H386.35V59.6185ZM385.095 59.6185V61.1185H385.122L385.15 61.1175L385.095 59.6185ZM383.353 59.6185V58.1185H381.853V59.6185H383.353ZM383.353 59.7755L383.569 61.2599L384.853 61.073V59.7755H383.353ZM383.353 86.4955H384.853V85.1979L383.569 85.0111L383.353 86.4955ZM383.353 86.6659H381.853V88.1673L383.355 88.1659L383.353 86.6659ZM385.624 88.1637C385.659 88.1639 385.694 88.164 385.73 88.164V85.164C385.7 85.164 385.67 85.164 385.64 85.1638L385.624 88.1637ZM385.73 88.164C385.777 88.164 385.824 88.1639 385.87 88.1635L385.848 85.1636C385.808 85.1639 385.769 85.164 385.73 85.164V88.164ZM396.423 85.1535L385.857 85.1635L385.86 88.1635L396.426 88.1535L396.423 85.1535ZM395.062 86.0248C394.197 87.8981 394.699 89.6313 394.979 90.6887L397.879 89.9216C397.575 88.7719 397.429 88.0561 397.786 87.2823L395.062 86.0248ZM394.979 90.6887C395.078 91.0626 395.149 91.3373 395.19 91.5864C395.23 91.8282 395.227 91.9666 395.213 92.0475C395.203 92.1073 395.185 92.1545 395.132 92.2195C395.068 92.2984 394.918 92.4418 394.581 92.6194L395.981 95.2731C397.201 94.6296 397.97 93.7352 398.171 92.5471C398.339 91.5547 398.045 90.5486 397.879 89.9216L394.979 90.6887ZM394.581 92.6194C391.36 94.3177 387.648 95.2084 383.667 95.2084V98.2084C388.098 98.2084 392.296 97.2159 395.981 95.2731L394.581 92.6194ZM383.667 95.2084C377.439 95.2084 371.805 92.9577 367.778 88.9306L365.657 91.0519C370.293 95.6881 376.712 98.2084 383.667 98.2084V95.2084ZM367.778 88.9306C363.748 84.9007 361.5 79.3279 361.5 73.1041H358.5C358.5 80.0636 361.023 86.4185 365.657 91.0519L367.778 88.9306ZM361.5 73.1041C361.5 66.9452 363.747 61.3716 367.778 57.3404L365.657 55.219C361.024 59.8511 358.5 66.2052 358.5 73.1041H361.5ZM367.778 57.3404C371.805 53.3133 377.439 51.0625 383.667 51.0625V48.0625C376.712 48.0625 370.293 50.5828 365.657 55.219L367.778 57.3404ZM383.667 51.0625C387.648 51.0625 391.36 51.9533 394.581 53.6516L395.981 50.9979C392.296 49.0551 388.098 48.0625 383.667 48.0625V51.0625ZM394.581 53.6516C395.268 54.0134 395.402 54.3059 395.458 54.4827C395.553 54.7854 395.542 55.1701 395.477 55.9869L398.468 56.2256C398.522 55.5477 398.622 54.5459 398.32 53.5836C397.978 52.4955 397.207 51.6445 395.981 50.9979L394.581 53.6516ZM395.477 55.9869C395.393 57.0387 395.246 58.6024 396.071 60.2808L398.763 58.9563C398.341 58.0985 398.381 57.3077 398.468 56.2256L395.477 55.9869ZM386.35 61.1185H397.417V58.1185H386.35V61.1185ZM386.408 58.1196C386.186 58.1111 385.96 58.1069 385.73 58.1069V61.1069C385.923 61.1069 386.111 61.1105 386.293 61.1174L386.408 58.1196ZM385.73 58.1069C385.498 58.1069 385.268 58.1111 385.039 58.1196L385.15 61.1175C385.341 61.1105 385.534 61.1069 385.73 61.1069V58.1069ZM383.353 61.1185H385.095V58.1185H383.353V61.1185ZM384.853 59.7755V59.6185H381.853V59.7755H384.853ZM383.137 58.2911C375.632 59.3831 370.544 65.2215 370.544 73.1669H373.544C373.544 66.6773 377.572 62.1324 383.569 61.2599L383.137 58.2911ZM370.544 73.1669C370.544 81.0607 375.637 86.8892 383.137 87.9799L383.569 85.0111C377.568 84.1384 373.544 79.5952 373.544 73.1669H370.544ZM384.853 86.6659V86.4955H381.853V86.6659H384.853ZM385.631 85.1638L383.352 85.1659L383.355 88.1659L385.633 88.1638L385.631 85.1638Z" fill="#F84925" mask="url(#path-9-outside-2_1299_169)"/>
<path d="M401.865 85H383.865V98.1512H401.865V85Z" fill="#F84925"/>
<path d="M401.818 48.0586H383.865V61.1512H401.865L401.818 48.0586Z" fill="#F84925"/>
<path d="M234 98L266.135 22H282.189L314 98H297.027L289.351 79.0229H258.108L250.324 98H234ZM262.973 65.4286H284.595L273.784 37.4171L262.973 65.4286Z" fill="#F84925"/>
</svg>
