<svg width="1896" height="776" viewBox="0 0 1896 776" fill="none" xmlns="http://www.w3.org/2000/svg">
<path d="M57.9043 479.394L114.148 373.429C129.418 347.192 134.253 330.38 163.266 321.21L200.041 313.569C209.584 310.512 214.674 320.064 217.855 329.489L230.835 381.835C232.489 389.477 232.362 394.953 225.109 397.882L167.974 420.808C165.429 421.827 164.157 424.629 165.047 427.176C165.938 429.978 169.119 431.379 171.792 430.232L228.035 407.053C236.434 403.614 244.069 398.519 250.558 392.024L287.969 354.579C295.731 347.192 304.893 341.334 314.819 337.258C333.397 329.744 362.282 324.012 367.881 343.881C378.316 380.943 353.248 401.321 298.658 438.129C277.153 461.054 266.592 496.206 266.592 496.206C266.592 496.206 231.725 583.831 185.534 597.459C139.089 611.087 57.9043 479.394 57.9043 479.394Z" fill="#322F2F"/>
<path d="M278.16 485.888C282.868 472.515 303.737 434.179 345.347 414.692C347.256 413.801 348.91 415.202 348.783 417.239L347.383 440.929C347.129 444.75 345.983 448.571 344.202 452.009C342.42 455.448 340.257 458.632 338.603 460.67C329.568 471.75 307.427 492.638 282.614 492.128C279.305 492.128 277.015 488.944 278.16 485.888Z" fill="#322F2F"/>
<path d="M271.807 503.465L265.571 517.857C265.062 519.004 265.953 520.405 267.226 520.277L284.913 519.64C288.349 519.513 295.475 519.131 298.656 517.603L318.125 506.904C321.433 505.248 324.106 502.446 325.633 499.008L331.613 482.451C332.25 480.795 330.468 479.139 328.814 480.031L302.346 495.569C298.91 497.352 295.093 498.498 291.276 498.753L277.024 499.772C274.861 499.899 272.825 501.3 271.807 503.465Z" fill="#322F2F"/>
<path d="M259.087 530.34L251.834 543.585C251.197 544.732 252.088 546.005 253.361 546.005L290.39 544.732C292.935 544.732 295.48 544.095 297.77 542.949C304.006 539.637 316.094 531.486 319.657 517.221C320.166 514.165 305.66 521.042 297.007 525.373C292.68 527.538 287.972 528.684 283.137 528.811L260.487 529.321C259.85 529.576 259.341 529.83 259.087 530.34Z" fill="#322F2F"/>
<path d="M617.021 193.846L632.927 189.261L624.02 157.675L607.986 162.26L617.021 193.846Z" fill="#322F2F"/>
<path d="M601.242 142.263L617.148 137.678L607.986 104.818L592.08 109.403L601.242 142.263Z" fill="#322F2F"/>
<path d="M629.632 237.022C630.268 239.314 630.396 241.734 629.759 244.027L614.235 300.83C613.09 305.161 609.781 308.472 605.582 309.746L275.373 406.032C268.629 408.069 261.503 404.121 259.594 397.244L195.97 171.43C194.061 164.68 198.006 157.675 204.623 155.765L560.791 51.073C567.535 49.1625 574.534 52.9834 576.57 59.6062L585.604 87.2439L601.51 82.6588L587.767 39.1009C585.731 32.3507 578.733 28.5298 571.989 30.5676L184.263 144.43C177.519 146.34 173.701 153.345 175.61 160.095L248.014 417.876C249.923 424.754 257.049 428.702 263.793 426.664L618.943 323.119C623.143 321.845 626.451 318.534 627.596 314.203L646.811 243.899C647.447 241.607 647.447 239.187 646.683 236.895L639.43 211.932L623.524 216.517L629.632 237.022Z" fill="#322F2F"/>
<path d="M664.113 56.8037C652.915 56.8037 643.753 65.9738 643.626 77.1817L602.652 88.899L586.618 93.3567L388.111 150.16L277.532 246.956L268.879 214.606L280.968 193.846L337.084 176.779L333.394 164.552L272.569 183.02L255.264 212.695L270.533 270.008L394.346 161.623L590.309 105.583L606.215 100.998L647.443 89.1537C651.133 94.3756 657.241 97.687 664.113 97.687C675.438 97.687 684.6 88.5169 684.6 77.1817C684.6 65.8464 675.438 56.8037 664.113 56.8037ZM664.113 85.0781C659.786 85.0781 656.35 81.6394 656.35 77.309C656.35 72.9787 659.786 69.5399 664.113 69.5399C668.439 69.5399 671.875 72.9787 671.875 77.309C671.875 81.6394 668.439 85.0781 664.113 85.0781Z" fill="#FF6B00"/>
<path d="M679.88 109.405C668.809 109.405 659.902 118.193 659.393 129.146L618.165 140.991L602.259 145.576L403.878 202.38L293.3 299.175L287.574 277.651L275.23 280.962L286.301 322.355L410.114 213.97L605.949 157.93L621.855 153.345L662.956 141.628C666.646 147.105 672.881 150.671 680.007 150.671C691.332 150.671 700.494 141.501 700.494 130.165C700.367 118.575 691.205 109.405 679.88 109.405ZM679.88 137.68C675.554 137.68 672.118 134.241 672.118 129.911C672.118 125.58 675.554 122.142 679.88 122.142C684.207 122.142 687.642 125.58 687.642 129.911C687.642 134.241 684.207 137.68 679.88 137.68Z" fill="#FF6B00"/>
<path d="M692.35 162.133C681.025 162.133 671.863 171.303 671.863 182.638C671.863 182.765 671.863 182.893 671.863 182.893L633.943 193.719L618.037 198.304L419.021 255.235L338.091 326.048L293.936 336.619L296.862 348.973L344.071 337.638L425.129 266.697L621.6 210.53L637.506 205.945L675.935 194.992C679.625 199.959 685.606 203.143 692.223 203.143C703.548 203.143 712.71 193.973 712.71 182.638C712.71 171.303 703.675 162.133 692.35 162.133ZM692.35 190.407C688.024 190.407 684.588 186.968 684.588 182.638C684.588 178.308 688.024 174.869 692.35 174.869C696.676 174.869 700.112 178.308 700.112 182.638C700.112 186.968 696.676 190.407 692.35 190.407Z" fill="#FF6B00"/>
<path d="M385.174 327.193L381.611 314.967L447.017 295.735L457.579 280.324L455.161 268.734L467.631 266.06L471.194 283.126L454.906 306.688L385.174 327.193Z" fill="#FF6B00"/>
<path d="M613.838 350.757C610.911 379.923 603.658 408.325 592.205 435.326C577.317 470.478 556.067 502.064 528.963 529.192C501.859 556.32 470.302 577.59 435.181 592.491C398.788 607.902 360.232 615.671 320.403 615.671C280.574 615.671 241.891 607.902 205.625 592.491C170.505 577.59 138.947 556.32 111.843 529.192C84.7392 502.064 63.4887 470.478 48.6006 435.326C33.2036 398.9 25.4414 360.31 25.4414 320.445C25.4414 280.581 33.0763 241.99 48.4734 205.564C63.3614 170.412 84.6119 138.827 111.716 111.698C138.82 84.5702 170.377 63.3007 205.498 48.3993C241.891 32.9884 280.447 25.2193 320.276 25.2193C356.033 25.2193 390.771 31.4601 423.856 43.9416L460.503 33.4979C418.13 12.7378 370.539 1.02051 320.276 1.02051C144.037 1.02051 1.00977 144.048 1.00977 320.573C1.00977 497.097 143.91 640.125 320.276 640.125C488.753 640.125 626.817 509.451 638.651 343.88L613.838 350.757Z" fill="#322F2F"/>
<path fill-rule="evenodd" clip-rule="evenodd" d="M1488.81 234.984C1483.98 244.281 1395.41 444.75 1351.51 545.875C1339.04 574.532 1328.35 597.584 1327.84 597.075C1327.33 596.565 1314.1 568.036 1298.58 533.648L1270.2 471.241L1255.18 470.222C1246.91 469.713 1240.17 470.349 1240.3 471.878C1240.42 473.279 1258.11 512.761 1279.74 559.503C1317.79 641.779 1319.32 644.581 1328.23 644.581C1337.01 644.581 1338.41 642.161 1363.85 585.23C1395.41 514.417 1519.1 235.366 1521.52 229.635C1522.66 226.705 1518.97 225.559 1508.54 225.559C1495.43 225.559 1493.14 226.578 1488.81 234.984Z" fill="#FF6B00"/>
<path fill-rule="evenodd" clip-rule="evenodd" d="M692.492 244.791C681.294 249.248 678.622 258.291 678.622 292.042C678.622 339.803 675.823 337.892 746.191 337.892H803.707V354.067V370.115H740.974H678.24L679.258 385.399L680.276 400.682L750.517 401.574C841.245 402.72 835.901 405.649 835.901 354.577C835.901 303.25 839.718 305.925 767.441 305.925H710.689V291.533V277.141H773.295H835.901V259.437V241.734L767.696 241.989C730.158 241.989 696.31 243.262 692.492 244.791Z" fill="#322F2F"/>
<path fill-rule="evenodd" clip-rule="evenodd" d="M882.342 243.772C868.726 247.084 867.963 252.178 867.963 328.977V402.211H883.996H900.029V339.549V276.886H916.063H932.096V339.549V402.211H946.475H960.854V339.549V276.886H976.887H992.921L993.811 338.784L994.702 400.555L1009.97 401.574L1025.24 402.593V329.232C1025.24 270.9 1024.35 254.471 1020.66 249.631C1016.46 243.9 1011.5 243.39 952.456 242.881C917.462 242.371 885.905 242.881 882.342 243.772Z" fill="#322F2F"/>
<path fill-rule="evenodd" clip-rule="evenodd" d="M1066.85 245.683C1059.09 249.632 1058.83 250.778 1057.94 288.732C1057.18 320.954 1057.94 328.596 1062.14 332.799C1066.47 337.129 1076.39 337.894 1124.75 337.894H1182.26V354.069V370.116H1119.79H1057.18V386.291V402.466L1131.24 401.447C1200.21 400.556 1205.55 400.046 1209.88 394.188C1213.19 389.73 1214.46 378.14 1214.46 353.304C1214.46 304.015 1217 305.798 1145.49 305.798H1089.25V291.406V277.014L1150.96 276.123L1212.68 275.231V259.184V243.263L1143.71 242.499C1092.94 241.862 1072.7 242.754 1066.85 245.683Z" fill="#322F2F"/>
<path fill-rule="evenodd" clip-rule="evenodd" d="M1410.92 555.555C1389.42 602.806 1358.75 670.053 1342.72 704.823C1326.81 739.721 1313.71 769.651 1313.71 771.434C1313.71 776.146 1338.01 775.382 1341.83 770.67C1343.61 768.504 1369.82 712.592 1399.85 646.491C1430.01 580.39 1455.84 525.115 1457.37 523.587C1458.9 522.058 1472.77 549.059 1488.42 583.574L1516.79 646.237H1530.79C1538.55 646.237 1544.79 644.708 1544.79 642.798C1544.79 640.887 1527.23 601.15 1505.72 554.536C1469.33 475.316 1466.15 469.712 1458.39 469.712C1450.75 469.585 1447.57 475.189 1410.92 555.555Z" fill="#FF6B00"/>
<path fill-rule="evenodd" clip-rule="evenodd" d="M758.139 487.417C752.286 483.342 739.688 482.45 686.626 482.45C633.563 482.45 621.093 483.342 615.112 487.417C608.114 492.384 607.986 493.658 607.986 566.127V639.743H624.02H640.053V609.176V578.609H686.626H733.199V609.176V639.743H749.232H765.265V566.127C765.265 493.658 765.138 492.384 758.139 487.417ZM733.199 530.593V546.641H686.626H640.053V530.593V514.546H686.626H733.199V530.593Z" fill="#322F2F"/>
<path fill-rule="evenodd" clip-rule="evenodd" d="M804.454 487.417C797.455 492.384 797.328 493.785 797.328 562.179C797.328 612.232 798.473 633.12 801.146 635.794C803.945 638.596 825.959 639.615 879.912 639.615H954.862L953.844 624.332L952.826 609.048L895.309 608.157C859.553 607.647 836.139 605.991 833.594 603.699C830.54 601.152 829.395 589.816 829.395 562.561C829.395 511.616 825.705 514.291 897.854 514.291H954.607V498.243V482.195H883.094C823.541 482.45 810.435 483.342 804.454 487.417Z" fill="#322F2F"/>
<path fill-rule="evenodd" clip-rule="evenodd" d="M986.693 498.496V514.544H1017.11H1047.65V577.206V639.868H1063.68H1079.71V577.206V514.544H1111.91H1144.23L1143.21 499.26L1142.19 484.104L1064.44 483.213L986.693 482.321V498.496Z" fill="#322F2F"/>
<path fill-rule="evenodd" clip-rule="evenodd" d="M1174.88 484.615C1173.73 485.762 1172.71 521.168 1172.71 563.325V639.87H1188.75H1204.78V561.16V482.45H1190.91C1183.27 482.45 1176.02 483.469 1174.88 484.615Z" fill="#322F2F"/>
<path fill-rule="evenodd" clip-rule="evenodd" d="M1548.1 498.498V514.546H1580.16H1612.23V577.208V639.87H1628.26H1644.3V577.208V514.546H1674.83H1705.25V498.498V482.45H1626.74H1548.1V498.498Z" fill="#322F2F"/>
<path fill-rule="evenodd" clip-rule="evenodd" d="M1744.57 487.417C1737.57 492.257 1737.44 493.785 1737.44 559.886C1737.44 600.26 1738.71 629.808 1740.75 633.502C1743.93 639.361 1748.26 639.743 1819.51 639.743H1894.97L1893.95 624.459L1892.94 609.176L1831.22 608.284L1769.51 607.393V593.001V578.609H1832.11H1894.72V562.561V546.513H1832.11H1769.51V530.466V514.546H1832.11H1894.72V498.498V482.45H1823.2C1763.65 482.45 1750.42 483.342 1744.57 487.417Z" fill="#322F2F"/>
</svg>
