<svg width="699" height="215" viewBox="0 0 699 215" fill="none" xmlns="http://www.w3.org/2000/svg">
<path d="M104.264 0.00167252C104.492 0.00167252 104.721 0.00167252 104.949 0.00167252C105.422 0.00167252 105.897 0.00167252 106.371 0.00167252C106.972 0.00334504 107.574 0.00167252 108.175 0.00167252C108.645 0.00167252 109.114 0.00167252 109.584 0.00167252C109.912 0.00167252 110.238 0.00167252 110.566 0C111.743 0.00334504 112.902 0.0501756 114.075 0.157217C114.613 0.195685 115.136 0.18565 115.674 0.163907C119.62 0.0217427 123.647 0.921558 127.51 1.64409C127.644 1.66917 127.779 1.69426 127.918 1.71935C128.3 1.79127 128.681 1.86486 129.063 1.93845C129.175 1.96019 129.289 1.98193 129.404 2.00368C129.966 2.11406 130.438 2.25623 130.94 2.53219C131.273 2.59575 131.273 2.59575 131.61 2.61582C132.135 2.67101 132.476 2.79143 132.948 3.03395C133.126 3.05904 133.303 3.08412 133.487 3.10921C134.081 3.19618 134.618 3.32999 135.192 3.5056C135.388 3.56414 135.586 3.62268 135.788 3.68456C135.989 3.74477 136.191 3.80665 136.399 3.87021C136.802 3.9923 137.206 4.1144 137.609 4.23649C137.875 4.31844 137.875 4.31844 138.146 4.4004C138.626 4.54423 138.626 4.54423 139.078 4.62117C139.483 4.70814 139.778 4.85198 140.144 5.04097C140.397 5.12293 140.653 5.19986 140.91 5.27011C141.829 5.53938 142.714 5.87389 143.605 6.22344C144.784 6.69008 144.784 6.69008 145.993 7.06806C146.503 7.21525 146.503 7.21525 147.005 7.54975C147.34 7.66181 147.674 7.77387 148.009 7.88425C148.409 8.06489 148.806 8.24886 149.201 8.43953C149.964 8.80079 150.728 9.14868 151.512 9.46311C152.66 9.93309 153.759 10.4934 154.863 11.057C155.421 11.3397 155.983 11.619 156.544 11.8983C156.878 12.0656 157.213 12.2328 157.548 12.4001C157.548 12.5104 157.548 12.6208 157.548 12.7346C157.727 12.7613 157.727 12.7613 157.911 12.7881C158.433 12.9135 158.803 13.1092 159.265 13.3818C159.427 13.4788 159.591 13.5742 159.758 13.6728C159.926 13.7749 160.093 13.8752 160.267 13.9789C160.436 14.0793 160.607 14.1796 160.782 14.2816C162.042 15.0326 162.042 15.0326 162.233 15.4106C162.454 15.4708 162.678 15.526 162.903 15.5778C163.219 15.7484 163.219 15.7484 163.542 15.9542C163.659 16.0294 163.776 16.103 163.897 16.1799C164.017 16.2569 164.138 16.3338 164.261 16.4141C164.502 16.568 164.743 16.7218 164.984 16.874C165.143 16.9761 165.143 16.9761 165.306 17.0814C165.585 17.2604 165.585 17.2604 165.915 17.4176C165.915 17.528 165.915 17.6384 165.915 17.7521C166.08 17.7521 166.246 17.7521 166.417 17.7521C166.417 17.8625 166.417 17.9729 166.417 18.0866C166.584 18.1452 166.584 18.1452 166.756 18.202C167.391 18.483 167.93 18.851 168.497 19.2473C168.674 19.3694 168.674 19.3694 168.853 19.4949C169.929 20.2475 170.962 21.0486 171.984 21.8715C172.275 22.104 172.57 22.3331 172.863 22.5606C174.613 23.9204 176.307 25.3336 177.955 26.8138C178.29 27.1115 178.628 27.4025 178.967 27.6936C179.602 28.2455 180.189 28.8392 180.78 29.438C181.099 29.7524 181.426 30.0418 181.77 30.3278C182.14 30.6355 182.452 30.9449 182.753 31.3213C183.123 31.8029 183.123 31.8029 183.548 32.1157C184.046 32.5188 184.43 32.967 184.845 33.452C185.152 33.8016 185.474 34.1227 185.807 34.4472C186.469 35.0978 187.047 35.8036 187.629 36.5278C188.084 37.0864 188.561 37.62 189.041 38.1552C190.179 39.4263 190.179 39.4263 190.179 39.8294C190.29 39.8294 190.4 39.8294 190.514 39.8294C190.789 40.1873 191.045 40.5452 191.297 40.9165C191.754 41.5855 192.219 42.2194 192.761 42.8232C193.382 43.5189 193.906 44.2615 194.425 45.0359C194.519 45.1747 194.614 45.3136 194.711 45.4574C195.32 46.3589 195.918 47.2671 196.498 48.1853C196.798 48.6569 197.102 49.1236 197.422 49.5835C201.375 55.3018 204.437 61.8598 206.924 68.3358C206.997 68.5264 206.997 68.5264 207.071 68.7221C208.107 71.4584 209.024 74.2281 209.852 77.0329C209.899 77.1934 209.946 77.354 209.996 77.5179C210.788 80.2123 211.442 82.8917 211.934 85.6564C211.981 85.9206 212.029 86.1832 212.078 86.4458C213.276 92.9603 214.004 99.366 213.994 105.994C213.994 106.524 213.994 107.053 213.997 107.583C214.014 110.505 213.959 113.405 213.711 116.319C213.694 116.501 213.694 116.501 213.679 116.688C213.47 119.107 213.137 121.507 212.727 123.9C212.707 124.019 212.687 124.136 212.665 124.258C212.645 124.38 212.623 124.501 212.603 124.626C212.582 124.755 212.56 124.882 212.536 125.014C211.79 129.409 210.878 133.711 209.487 137.956C209.302 138.526 209.134 139.098 208.974 139.677C208.102 142.79 206.89 145.824 205.595 148.782C205.384 149.264 205.178 149.746 204.971 150.229C203.174 154.387 201.129 158.423 198.714 162.258C198.595 162.448 198.476 162.639 198.359 162.828C197.957 163.469 197.549 164.096 197.102 164.705C196.808 165.106 196.567 165.514 196.333 165.952C195.854 166.822 195.302 167.627 194.728 168.436C194.624 168.583 194.52 168.73 194.413 168.883C193.801 169.749 193.171 170.594 192.495 171.411C192.137 171.853 191.803 172.306 191.465 172.765C190.777 173.688 190.046 174.564 189.296 175.439C187.535 177.33 187.535 177.33 186.953 179.727C186.951 179.873 186.951 180.018 186.95 180.169C186.946 180.66 186.946 181.151 186.946 181.642C186.945 181.993 186.943 182.343 186.941 182.694C186.936 183.649 186.933 184.604 186.931 185.559C186.93 186.556 186.925 187.553 186.92 188.55C186.913 190.44 186.906 192.328 186.901 194.218C186.894 196.367 186.886 198.518 186.878 200.667C186.861 205.091 186.846 209.515 186.833 213.939C178.939 213.947 171.044 213.955 163.15 213.96C163.033 213.96 162.916 213.96 162.795 213.96C160.247 213.962 157.698 213.964 155.15 213.965C153.9 213.965 152.648 213.965 151.398 213.967C151.274 213.967 151.15 213.967 151.021 213.967C147.003 213.969 142.987 213.972 138.969 213.977C134.834 213.982 130.699 213.985 126.564 213.985C125.977 213.987 125.389 213.987 124.802 213.987C124.63 213.987 124.63 213.987 124.452 213.987C122.61 213.987 120.766 213.99 118.923 213.992C117.059 213.995 115.197 213.997 113.334 213.995C112.328 213.995 111.324 213.995 110.319 213.999C104.326 214.014 98.3218 213.9 92.3879 212.977C92.1001 212.935 91.8122 212.892 91.5244 212.85C86.5276 212.095 81.591 211.075 76.7414 209.654C76.5924 209.61 76.4435 209.567 76.2879 209.521C73.7075 208.764 71.1906 207.904 68.6889 206.914C68.3391 206.779 67.991 206.645 67.643 206.509C64.2191 205.173 60.812 203.771 57.6259 201.932C57.0552 201.604 56.4712 201.313 55.8755 201.03C52.8148 199.523 49.9348 197.6 47.1017 195.708C46.9812 195.628 46.8607 195.548 46.7352 195.466C45.3061 194.512 43.9322 193.509 42.5901 192.435C42.1919 192.117 41.7902 191.808 41.3803 191.507C39.3253 189.978 37.3657 188.279 35.4731 186.554C35.2388 186.344 35.0062 186.135 34.7669 185.931C33.9168 185.198 33.1119 184.43 32.3187 183.638C32.1262 183.447 32.1262 183.447 31.9288 183.251C31.6593 182.982 31.3899 182.714 31.1222 182.445C30.7139 182.039 30.3055 181.634 29.8972 181.227C28.5819 179.916 27.3285 178.608 26.1839 177.143C25.9078 176.825 25.6233 176.521 25.3355 176.213C24.5724 175.382 23.8629 174.522 23.1717 173.631C23.0446 173.469 22.9174 173.305 22.7868 173.137C22.3534 172.579 21.925 172.019 21.4983 171.457C21.4163 171.35 21.3326 171.243 21.249 171.13C20.1646 169.709 19.1254 168.274 18.1515 166.774C17.9875 166.529 17.8235 166.285 17.6595 166.043C17.2244 165.39 16.7977 164.735 16.3726 164.077C16.2789 163.934 16.2789 163.934 16.1835 163.786C14.972 161.903 14.972 161.903 14.972 161.421C14.8615 161.421 14.7511 161.421 14.6373 161.421C14.4164 161.018 14.1972 160.614 13.9779 160.209C13.8842 160.038 13.8842 160.038 13.7889 159.864C13.7286 159.752 13.6684 159.642 13.6064 159.527C13.5512 159.426 13.496 159.324 13.4391 159.219C13.2985 158.913 13.2985 158.913 13.2165 158.551C13.1881 158.449 13.1596 158.349 13.1312 158.244C13.0207 158.189 12.9103 158.133 12.7965 158.076C12.6091 157.777 12.6091 157.777 12.4083 157.389C12.2995 157.18 12.2995 157.18 12.1874 156.966C12.0753 156.745 12.0753 156.745 11.9598 156.519C11.846 156.302 11.846 156.302 11.7305 156.079C11.5264 155.686 11.3239 155.293 11.1231 154.899C11.0595 154.783 10.9959 154.668 10.9306 154.549C10.7884 154.23 10.7884 154.23 10.7884 153.728C10.678 153.673 10.5675 153.618 10.4537 153.561C10.0939 152.94 9.95169 152.617 9.95169 151.888C9.84124 151.888 9.73079 151.888 9.617 151.888C9.57851 151.799 9.5417 151.711 9.50489 151.619C9.33252 151.206 9.16016 150.794 8.98947 150.383C8.9309 150.242 8.87233 150.102 8.81209 149.958C8.48409 149.175 8.13937 148.411 7.74444 147.66C7.52355 147.195 7.4131 146.697 7.27421 146.202C7.07842 145.712 6.8726 145.228 6.66677 144.741C6.42914 144.176 6.19987 143.606 5.97731 143.035C5.9087 142.862 5.84009 142.686 5.7698 142.507C5.60079 142.02 5.60079 142.02 5.51377 141.57C5.44851 141.141 5.4485 141.141 5.09876 140.682C5.04186 140.348 4.98664 140.013 4.93142 139.679C4.76575 139.431 4.76575 139.431 4.59673 139.177C4.48127 138.807 4.3792 138.434 4.28214 138.06C4.25369 137.949 4.22524 137.841 4.19679 137.727C3.92737 136.688 3.66966 135.646 3.41363 134.604C3.26135 134.007 3.09232 133.415 2.92331 132.821C2.83294 132.402 2.75429 131.982 2.68233 131.557C2.58862 131.152 2.44304 130.848 2.25394 130.48C2.05313 129.813 2.02803 129.142 1.98284 128.448C1.91256 127.923 1.75358 127.471 1.58457 126.968C1.48082 126.514 1.4005 126.058 1.32185 125.599C1.3001 125.474 1.28001 125.35 1.25658 125.221C1.09259 124.246 0.977116 123.273 0.9152 122.285C0.859977 122.285 0.804754 122.285 0.747857 122.285C0.662513 121.704 0.578842 121.122 0.496844 120.54C0.460029 120.294 0.460028 120.294 0.423213 120.045C0.284319 119.053 0.220729 118.103 0.24583 117.1C0.190607 117.1 0.135384 117.1 0.078488 117.1C0.0584069 114.547 0.0433547 111.994 0.0349875 109.44C0.0299673 108.254 0.0249478 107.066 0.0149073 105.88C-0.0269283 100.707 -0.0470188 95.6112 0.9152 90.5067C0.960382 90.2608 1.00556 90.015 1.05075 89.7691C1.29005 88.4645 1.54441 87.165 1.81049 85.8654C2.03473 84.7415 2.22884 83.6109 2.42128 82.4786C2.53173 82.4786 2.64217 82.4786 2.75597 82.4786C2.7476 82.2846 2.74091 82.0906 2.73422 81.8899C2.73589 81.1774 2.8798 80.5435 3.09233 79.8661C3.1442 79.6905 3.1442 79.6905 3.19775 79.5099C3.30987 79.1369 3.42534 78.7639 3.53914 78.3926C3.61277 78.1484 3.68639 77.9043 3.76002 77.6601C3.90728 77.17 4.05622 76.6816 4.20683 76.1916C4.35577 75.7016 4.49967 75.2115 4.63857 74.7198C5.07533 73.1894 5.58405 71.7143 6.18648 70.2391C6.65672 69.07 7.11859 67.9043 7.5336 66.7151C7.86996 65.7634 8.25818 64.8586 8.70666 63.9555C9.08485 63.1878 9.44799 62.4234 9.75422 61.624C10.196 60.5 10.7616 59.4413 11.3206 58.3743C11.4343 58.1568 11.5481 57.9394 11.6619 57.7203C12.3999 56.307 13.1513 54.9004 13.9528 53.5223C14.1553 53.1744 14.3561 52.8248 14.557 52.477C15.2347 51.3062 15.9241 50.1639 16.719 49.0667C16.9767 48.6971 17.2043 48.3207 17.4286 47.931C18.6184 45.9123 20.0742 44.0291 21.4983 42.1709C21.597 42.0421 21.6958 41.9116 21.7979 41.7795C22.4455 40.9382 23.1132 40.117 23.7876 39.2975C24.0419 38.9881 24.2946 38.677 24.5473 38.3659C25.3221 37.4059 26.127 36.4827 26.962 35.5761C27.3017 35.2048 27.6331 34.8285 27.9611 34.4472C28.5635 33.7548 29.2111 33.1125 29.8654 32.4703C30.4344 31.91 30.9766 31.333 31.5071 30.7359C32.0877 30.0953 32.6734 29.5049 33.3344 28.948C33.8365 28.5181 34.3184 28.0699 34.802 27.62C36.8319 25.7401 38.9689 24.0073 41.1493 22.3047C41.3719 22.1324 41.5928 21.9585 41.812 21.7829C42.9315 20.8998 44.0929 20.0769 45.2609 19.2574C45.368 19.1821 45.4735 19.1069 45.5839 19.0299C49.9197 15.9926 54.53 13.1594 59.3177 10.8948C59.5252 10.7944 59.7327 10.6958 59.9402 10.5954C60.6782 10.2408 61.4195 9.89797 62.1625 9.55677C62.4286 9.43301 62.4286 9.43301 62.7013 9.30757C65.1864 8.16524 67.6697 7.09315 70.2569 6.20003C70.7053 6.04114 71.1505 5.87556 71.5939 5.70831C73.7141 4.90884 75.8511 4.26158 78.0399 3.67787C78.5303 3.54407 79.0189 3.4019 79.5059 3.25639C85.5335 1.4852 92.4983 -0.0100351 98.7988 0.183977C99.4179 0.19903 100.019 0.165579 100.635 0.108714C101.846 0.0117076 103.049 0 104.264 0.00167252ZM95.9657 0.357919C95.9657 0.413112 95.9657 0.468305 95.9657 0.525171C96.4627 0.525171 96.9597 0.525171 97.4717 0.525171C97.4717 0.469978 97.4717 0.414785 97.4717 0.357919C96.9747 0.357919 96.4777 0.357919 95.9657 0.357919ZM116.549 0.357919C116.549 0.413112 116.549 0.468305 116.549 0.525171C117.046 0.525171 117.543 0.525171 118.055 0.525171C118.055 0.469978 118.055 0.414785 118.055 0.357919C117.558 0.357919 117.061 0.357919 116.549 0.357919ZM94.6269 0.525171C95.2963 0.692423 95.2963 0.692423 95.2963 0.692423L94.6269 0.525171ZM118.724 0.525171C119.394 0.692423 119.394 0.692423 119.394 0.692423L118.724 0.525171ZM71.7546 67.5748C71.4098 67.8875 71.0601 68.1903 70.707 68.493C69.3783 69.6537 68.1768 70.9048 67.079 72.2863C66.7059 72.7479 66.3193 73.1928 65.9277 73.6393C65.096 74.5877 64.3446 75.546 63.6636 76.6114C63.3707 77.068 63.0662 77.5112 62.7549 77.9561C55.094 89.075 52.4734 103.576 54.8814 116.792C55.2446 118.598 55.765 120.364 56.2938 122.129C56.3289 122.243 56.3624 122.358 56.3976 122.475C58.1547 128.301 60.9476 133.863 64.6726 138.675C64.7931 138.834 64.9153 138.991 65.0408 139.155C65.3571 139.558 65.6817 139.955 66.0114 140.348C66.1486 140.515 66.2875 140.682 66.4297 140.855C69.0068 143.949 71.8332 146.983 75.2152 149.212C75.3257 149.212 75.4361 149.212 75.5499 149.212C75.5499 149.322 75.5499 149.433 75.5499 149.547C75.8126 149.769 75.8126 149.769 76.1657 149.986C76.3013 150.073 76.4368 150.16 76.5774 150.251C76.7347 150.349 76.892 150.448 77.056 150.55C77.148 150.609 77.2401 150.667 77.3354 150.727C78.388 151.517 78.388 151.517 79.5661 151.888C79.5661 151.999 79.5661 152.109 79.5661 152.223C80.4798 152.729 81.3968 153.229 82.3273 153.708C82.5264 153.81 82.5264 153.81 82.7289 153.915C83.0937 154.096 83.0937 154.096 83.5823 154.062C83.6375 154.173 83.6928 154.283 83.7497 154.397C84.6617 154.91 85.649 155.285 86.6146 155.683C86.7802 155.753 86.9459 155.822 87.1166 155.894C87.2756 155.959 87.4345 156.026 87.5985 156.093C87.7441 156.153 87.888 156.213 88.037 156.273C88.4704 156.439 88.4704 156.439 89.1046 156.404C89.1598 156.514 89.2151 156.625 89.272 156.738C89.6016 156.861 89.938 156.973 90.276 157.073C90.4417 157.128 90.6074 157.183 90.778 157.24C90.8885 157.185 90.9989 157.13 91.1127 157.073C91.168 157.183 91.2232 157.294 91.2801 157.407C91.3905 157.352 91.501 157.297 91.6148 157.24C91.67 157.351 91.7252 157.461 91.7821 157.575C92.1134 157.575 92.4448 157.575 92.7862 157.575C92.8414 157.685 92.8966 157.795 92.9535 157.909C93.417 158.038 93.8722 158.147 94.3441 158.244C94.4696 158.272 94.5968 158.299 94.7257 158.327C96.8141 158.776 98.9042 159.018 101.029 159.194C101.374 159.222 101.719 159.254 102.064 159.284C102.266 159.301 102.47 159.319 102.678 159.336C103.161 159.414 103.161 159.414 103.496 159.749C103.914 159.799 103.914 159.799 104.411 159.791C104.706 159.791 104.706 159.791 105.005 159.792C105.223 159.792 105.441 159.791 105.663 159.789C105.896 159.789 106.127 159.791 106.359 159.791C106.997 159.791 107.636 159.789 108.274 159.787C108.961 159.787 109.649 159.787 110.337 159.787C111.528 159.787 112.72 159.787 113.913 159.784C115.637 159.782 117.36 159.781 119.084 159.781C121.88 159.781 124.677 159.777 127.471 159.774C130.189 159.772 132.905 159.769 135.622 159.767C135.79 159.767 135.957 159.767 136.129 159.767C136.97 159.767 137.808 159.767 138.648 159.766C145.618 159.762 152.586 159.757 159.556 159.749C159.034 159.038 158.523 158.341 157.897 157.717C157.777 157.596 157.658 157.478 157.534 157.354C157.407 157.227 157.278 157.1 157.146 156.969C156.94 156.764 156.94 156.764 156.731 156.554C156.281 156.105 155.829 155.656 155.379 155.208C155.064 154.895 154.751 154.581 154.437 154.268C153.699 153.531 152.957 152.795 152.218 152.057C151.374 151.219 150.533 150.38 149.691 149.538C147.959 147.812 146.227 146.086 144.495 144.362C144.806 143.689 145.251 143.209 145.76 142.679C151.575 136.489 155.618 128.934 157.882 120.779C157.931 120.607 157.978 120.435 158.028 120.256C158.784 117.501 159.151 114.76 159.388 111.915C159.402 111.773 159.415 111.629 159.43 111.482C159.551 110.194 159.578 108.919 159.571 107.627C159.571 107.418 159.571 107.21 159.571 106.994C159.569 106.335 159.567 105.676 159.566 105.016C159.564 104.566 159.564 104.116 159.564 103.666C159.561 102.569 159.559 101.472 159.556 100.375C159.445 100.319 159.335 100.264 159.221 100.207C159.166 99.2138 159.111 98.2203 159.054 97.1968C158.943 97.1968 158.833 97.1968 158.719 97.1968C158.719 96.7 158.719 96.2033 158.719 95.6915C158.609 95.6915 158.498 95.6915 158.384 95.6915C158.329 95.0292 158.274 94.3669 158.217 93.6845C158.107 93.6845 157.996 93.6845 157.882 93.6845C157.938 93.4637 157.993 93.2429 158.05 93.0155C157.939 93.0155 157.829 93.0155 157.715 93.0155C157.715 92.6291 157.715 92.2428 157.715 91.8447C157.605 91.8447 157.494 91.8447 157.38 91.8447C157.414 91.7494 157.449 91.6524 157.484 91.552C157.563 91.0787 157.439 90.9231 157.213 90.5067C157.185 90.3662 157.158 90.224 157.129 90.0785C157.064 89.6303 157.064 89.6303 156.711 89.1687C156.544 88.7489 156.383 88.3291 156.229 87.9042C156.14 87.6617 156.05 87.4192 155.961 87.1784C155.918 87.0596 155.874 86.9425 155.829 86.8221C155.429 85.7517 154.991 84.698 154.535 83.6494C154.425 83.6494 154.315 83.6494 154.201 83.6494C154.161 83.5122 154.161 83.5122 154.12 83.3734C153.813 82.3799 153.382 81.5353 152.862 80.6388C152.676 80.301 152.491 79.9631 152.306 79.6253C152.221 79.4681 152.136 79.3108 152.047 79.1486C151.985 79.0332 151.922 78.9178 151.858 78.7991C151.748 78.7991 151.637 78.7991 151.523 78.7991C151.465 78.5866 151.465 78.5866 151.406 78.3709C151.148 77.6935 150.799 77.1985 150.362 76.6248C150.24 76.4625 150.24 76.4625 150.116 76.297C149.862 75.9591 149.604 75.6229 149.348 75.2868C149.268 75.1831 149.187 75.0777 149.105 74.9707C148.227 73.8216 147.321 72.7094 146.342 71.6457C146.031 71.3078 145.733 70.9633 145.435 70.6154C144.256 69.2674 142.984 68.0565 141.583 66.9426C141.183 66.6181 140.805 66.2819 140.425 65.9324C139.543 65.1396 138.581 64.4639 137.605 63.7915C137.406 63.6544 137.209 63.5156 137.01 63.3768C131.921 59.8126 126.327 57.456 120.398 55.7183C120.232 55.6698 120.066 55.6213 119.896 55.5694C116.169 54.4907 112.051 54.1394 108.182 54.0458C107.993 54.0391 107.803 54.0324 107.609 54.0257C94.493 53.7748 81.4303 58.7573 71.7546 67.5748ZM7.60889 66.7569C7.77624 67.0914 7.77624 67.0914 7.77624 67.0914L7.60889 66.7569ZM5.43344 72.6107C5.60079 72.9452 5.60079 72.9452 5.60079 72.9452L5.43344 72.6107ZM5.2661 73.1125C5.43344 73.447 5.43344 73.447 5.43344 73.447L5.2661 73.1125ZM5.09876 73.6142C5.2661 73.9488 5.2661 73.9488 5.2661 73.9488L5.09876 73.6142ZM4.93142 74.116C5.09876 74.4505 5.09876 74.4505 5.09876 74.4505L4.93142 74.116ZM4.76407 74.6178C4.93142 74.9523 4.93142 74.9523 4.93142 74.9523L4.76407 74.6178ZM2.92331 81.1406C3.09065 81.6423 3.09065 81.6423 3.09065 81.6423L2.92331 81.1406ZM2.42128 83.1476C2.58862 83.8166 2.58862 83.8166 2.58862 83.8166L2.42128 83.1476ZM2.25394 83.9839C2.42128 84.4856 2.42128 84.4856 2.42128 84.4856L2.25394 83.9839ZM0.9152 91.5102C1.08254 91.8447 1.08254 91.8447 1.08254 91.8447L0.9152 91.5102ZM0.747857 92.681C0.9152 93.1827 0.9152 93.1827 0.9152 93.1827L0.747857 92.681ZM0.580515 94.019C0.747857 94.3535 0.747857 94.3535 0.747857 94.3535L0.580515 94.019ZM0.413173 95.1897C0.413173 95.5209 0.413173 95.8521 0.413173 96.1933C0.468396 96.1933 0.523619 96.1933 0.580515 96.1933C0.580515 95.8621 0.580515 95.5309 0.580515 95.1897C0.525292 95.1897 0.470069 95.1897 0.413173 95.1897ZM0.24583 96.695C0.24583 97.3021 0.24583 97.9093 0.24583 98.5348C0.301053 98.5348 0.356276 98.5348 0.413173 98.5348C0.413173 97.9277 0.413173 97.3205 0.413173 96.695C0.35795 96.695 0.302727 96.695 0.24583 96.695ZM159.221 99.2038C159.221 99.5349 159.221 99.8661 159.221 100.207C159.276 100.207 159.332 100.207 159.388 100.207C159.388 99.8761 159.388 99.545 159.388 99.2038C159.333 99.2038 159.278 99.2038 159.221 99.2038ZM159.556 101.88C159.556 102.542 159.556 103.204 159.556 103.887C159.611 103.887 159.666 103.887 159.723 103.887C159.723 103.225 159.723 102.562 159.723 101.88C159.668 101.88 159.613 101.88 159.556 101.88ZM159.723 104.054C159.723 105.931 159.723 107.807 159.723 109.741C159.778 109.741 159.834 109.741 159.89 109.741C159.89 107.864 159.89 105.988 159.89 104.054C159.835 104.054 159.78 104.054 159.723 104.054ZM159.556 109.908C159.556 110.515 159.556 111.122 159.556 111.748C159.611 111.748 159.666 111.748 159.723 111.748C159.723 111.141 159.723 110.533 159.723 109.908C159.668 109.908 159.613 109.908 159.556 109.908ZM159.388 111.915C159.388 112.412 159.388 112.908 159.388 113.42C159.444 113.42 159.499 113.42 159.556 113.42C159.556 112.923 159.556 112.427 159.556 111.915C159.501 111.915 159.445 111.915 159.388 111.915ZM159.221 113.587C159.221 113.919 159.221 114.25 159.221 114.591C159.276 114.591 159.332 114.591 159.388 114.591C159.388 114.26 159.388 113.929 159.388 113.587C159.333 113.587 159.278 113.587 159.221 113.587ZM0.413173 117.769C0.413173 118.045 0.413173 118.321 0.413173 118.605C0.468396 118.605 0.523619 118.605 0.580515 118.605C0.580515 118.329 0.580515 118.053 0.580515 117.769C0.525292 117.769 0.470069 117.769 0.413173 117.769ZM0.580515 119.441C0.747857 119.943 0.747857 119.943 0.747857 119.943L0.580515 119.441ZM0.747857 120.779C0.9152 121.281 0.9152 121.281 0.9152 121.281L0.747857 120.779ZM157.213 122.954C157.38 123.288 157.38 123.288 157.38 123.288L157.213 122.954ZM157.046 123.455C157.213 123.79 157.213 123.79 157.213 123.79L157.046 123.455ZM156.878 123.957C157.046 124.292 157.046 124.292 157.046 124.292L156.878 123.957ZM156.711 124.459C156.878 124.793 156.878 124.793 156.878 124.793L156.711 124.459ZM98.9778 159.08C98.9778 159.135 98.9778 159.19 98.9778 159.247C99.2539 159.247 99.5301 159.247 99.8145 159.247C99.8145 159.192 99.8145 159.137 99.8145 159.08C99.5384 159.08 99.2623 159.08 98.9778 159.08ZM100.149 159.247C100.149 159.302 100.149 159.358 100.149 159.414C100.481 159.414 100.812 159.414 101.153 159.414C101.153 159.359 101.153 159.304 101.153 159.247C100.822 159.247 100.491 159.247 100.149 159.247ZM101.488 159.414C101.488 159.47 101.488 159.525 101.488 159.582C102.04 159.582 102.592 159.582 103.161 159.582C103.161 159.527 103.161 159.471 103.161 159.414C102.609 159.414 102.057 159.414 101.488 159.414Z" fill="#AC6AFF"/>
<path d="M278.256 94.824C271.92 94.824 266.576 93.832 262.224 91.848C257.872 89.8 254.576 87.048 252.336 83.592C250.096 80.072 248.976 76.04 248.976 71.496H264.24C264.24 73.288 264.72 74.952 265.68 76.488C266.704 78.024 268.24 79.272 270.288 80.232C272.336 81.128 274.992 81.576 278.256 81.576C281.2 81.576 283.664 81.192 285.648 80.424C287.632 79.656 289.136 78.6 290.16 77.256C291.184 75.848 291.696 74.248 291.696 72.456C291.696 70.216 290.736 68.456 288.816 67.176C286.896 65.832 283.792 64.968 279.504 64.584L274.224 64.104C267.248 63.528 261.68 61.352 257.52 57.576C253.36 53.8 251.28 48.808 251.28 42.6C251.28 38.12 252.336 34.248 254.448 30.984C256.624 27.72 259.632 25.224 263.472 23.496C267.312 21.704 271.856 20.808 277.104 20.808C282.608 20.808 287.312 21.768 291.216 23.688C295.184 25.544 298.224 28.2 300.336 31.656C302.448 35.048 303.504 39.048 303.504 43.656H288.144C288.144 41.928 287.728 40.36 286.896 38.952C286.064 37.48 284.816 36.296 283.152 35.4C281.552 34.504 279.536 34.056 277.104 34.056C274.8 34.056 272.848 34.44 271.248 35.208C269.712 35.976 268.56 37.032 267.792 38.376C267.024 39.656 266.64 41.064 266.64 42.6C266.64 44.584 267.344 46.312 268.752 47.784C270.16 49.256 272.464 50.12 275.664 50.376L281.04 50.856C286.16 51.304 290.672 52.424 294.576 54.216C298.48 55.944 301.52 58.344 303.696 61.416C305.936 64.424 307.056 68.104 307.056 72.456C307.056 76.936 305.872 80.872 303.504 84.264C301.2 87.592 297.904 90.184 293.616 92.04C289.328 93.896 284.208 94.824 278.256 94.824ZM317.903 93V22.92H339.599L355.631 62.28H357.455L373.295 22.92H395.375V93H379.823V33.192L382.031 33.384L363.503 78.792H348.527L329.903 33.384L332.303 33.192V93H317.903ZM435.475 94.824C429.139 94.824 423.795 93.832 419.443 91.848C415.091 89.8 411.795 87.048 409.555 83.592C407.315 80.072 406.195 76.04 406.195 71.496H421.459C421.459 73.288 421.939 74.952 422.899 76.488C423.923 78.024 425.459 79.272 427.507 80.232C429.555 81.128 432.211 81.576 435.475 81.576C438.419 81.576 440.883 81.192 442.867 80.424C444.851 79.656 446.355 78.6 447.379 77.256C448.403 75.848 448.915 74.248 448.915 72.456C448.915 70.216 447.955 68.456 446.035 67.176C444.115 65.832 441.011 64.968 436.723 64.584L431.443 64.104C424.467 63.528 418.899 61.352 414.739 57.576C410.579 53.8 408.499 48.808 408.499 42.6C408.499 38.12 409.555 34.248 411.667 30.984C413.843 27.72 416.851 25.224 420.691 23.496C424.531 21.704 429.075 20.808 434.323 20.808C439.827 20.808 444.531 21.768 448.435 23.688C452.403 25.544 455.443 28.2 457.555 31.656C459.667 35.048 460.723 39.048 460.723 43.656H445.363C445.363 41.928 444.947 40.36 444.115 38.952C443.283 37.48 442.035 36.296 440.371 35.4C438.771 34.504 436.755 34.056 434.323 34.056C432.019 34.056 430.067 34.44 428.467 35.208C426.931 35.976 425.779 37.032 425.011 38.376C424.243 39.656 423.859 41.064 423.859 42.6C423.859 44.584 424.563 46.312 425.971 47.784C427.379 49.256 429.683 50.12 432.883 50.376L438.259 50.856C443.379 51.304 447.891 52.424 451.795 54.216C455.699 55.944 458.739 58.344 460.915 61.416C463.155 64.424 464.275 68.104 464.275 72.456C464.275 76.936 463.091 80.872 460.723 84.264C458.419 87.592 455.123 90.184 450.835 92.04C446.547 93.896 441.427 94.824 435.475 94.824ZM269.328 214L248.016 143.92H264.24L281.136 203.056L277.488 201.232H287.28L283.44 203.056L299.088 143.92H314.832L294.96 214H269.328ZM324.935 214V143.92H340.295V214H324.935ZM338.375 214V200.944H368.999V214H338.375ZM338.375 184.912V171.856H366.791V184.912H338.375ZM338.375 156.976V143.92H368.327V156.976H338.375ZM381.935 214V143.344H397.679V214H381.935ZM424.463 214L403.919 183.856H421.199L442.703 214H424.463ZM393.455 191.536V179.152H410.735C413.039 179.152 415.023 178.704 416.687 177.808C418.415 176.848 419.727 175.536 420.623 173.872C421.583 172.144 422.062 170.16 422.062 167.92C422.062 165.68 421.583 163.728 420.623 162.064C419.727 160.336 418.415 159.024 416.687 158.128C415.023 157.168 413.039 156.688 410.735 156.688H393.455V143.344H409.487C415.311 143.344 420.367 144.24 424.655 146.032C428.943 147.76 432.239 150.352 434.543 153.808C436.847 157.264 437.999 161.616 437.999 166.864V168.4C437.999 173.584 436.815 177.904 434.447 181.36C432.143 184.752 428.847 187.312 424.559 189.04C420.335 190.704 415.311 191.536 409.487 191.536H393.455ZM452.252 214V143.92H467.996V214H452.252ZM483.935 214V143.92H499.679V214H483.935ZM497.759 185.776V172.72H524.831V185.776H497.759ZM497.759 156.976V143.92H525.983V156.976H497.759ZM537.845 214V143.92H553.589V214H537.845ZM569.528 214V143.92H584.888V214H569.528ZM582.968 214V200.944H613.592V214H582.968ZM582.968 184.912V171.856H611.384V184.912H582.968ZM582.968 156.976V143.92H612.92V156.976H582.968ZM640.352 214.384V199.696H653.408C656.672 199.696 659.616 199.216 662.24 198.256C664.864 197.232 667.104 195.824 668.96 194.032C670.816 192.176 672.224 189.968 673.184 187.408C674.144 184.784 674.624 181.904 674.624 178.768C674.624 175.504 674.144 172.592 673.184 170.032C672.224 167.472 670.816 165.296 668.96 163.504C667.104 161.712 664.864 160.368 662.24 159.472C659.616 158.512 656.672 158.032 653.408 158.032H640.352V143.344H652.544C658.88 143.344 664.416 144.272 669.152 146.128C673.888 147.984 677.856 150.512 681.056 153.712C684.256 156.912 686.624 160.592 688.16 164.752C689.76 168.848 690.56 173.168 690.56 177.712V179.824C690.56 184.048 689.76 188.24 688.16 192.4C686.624 196.496 684.256 200.208 681.056 203.536C677.856 206.8 673.888 209.424 669.152 211.408C664.416 213.392 658.88 214.384 652.544 214.384H640.352ZM626.528 214.384V143.344H642.272V214.384H626.528Z" fill="#AC6AFF"/>
</svg>
